SplineFontDB: 3.0
FontName: KAN-KaveriNormal
FullName: KAN Kaveri Normal
FamilyName: KAN Kaveri
Weight: Book
Copyright: Copyright (c) 2009-2015, NLCI (http://www.nlci.in/fonts/)
Version: 1.0 Wed May 17 15:30:32 1995
ItalicAngle: 0
UnderlinePosition: -150
UnderlineWidth: 10
Ascent: 800
Descent: 200
InvalidEm: 0
LayerCount: 2
Layer: 0 0 "Back" 1
Layer: 1 0 "Fore" 0
XUID: [1021 915 2070801671 66543]
FSType: 0
OS2Version: 0
OS2_WeightWidthSlopeOnly: 0
OS2_UseTypoMetrics: 1
CreationTime: 1250825681
ModificationTime: 1533324720
PfmFamily: 81
TTFWeight: 400
TTFWidth: 5
LineGap: 0
VLineGap: 0
Panose: 2 0 0 3 0 0 0 0 0 0
OS2TypoAscent: -71
OS2TypoAOffset: 1
OS2TypoDescent: -158
OS2TypoDOffset: 1
OS2TypoLinegap: 0
OS2WinAscent: -231
OS2WinAOffset: 1
OS2WinDescent: -142
OS2WinDOffset: 1
HheadAscent: -231
HheadAOffset: 1
HheadDescent: 142
HheadDOffset: 1
OS2SubXSize: 700
OS2SubYSize: 650
OS2SubXOff: 0
OS2SubYOff: 143
OS2SupXSize: 700
OS2SupYSize: 650
OS2SupXOff: 0
OS2SupYOff: 453
OS2StrikeYSize: 50
OS2StrikeYPos: 259
OS2Vendor: 'Alts'
OS2CodePages: 20000001.00000000
OS2UnicodeRanges: a04080ff.500021cb.08000028.00000000
Lookup: 262 0 0 "blwm" { "blwm-2sub"  } []
MarkAttachClasses: 1
DEI: 91125
TtTable: prep
NPUSHB
 1
 1
SCANTYPE
PUSHW_1
 511
SCANCTRL
EndTTInstrs
ShortTable: maxp 16
  1
  0
  319
  161
  5
  150
  6
  2
  8
  64
  10
  0
  3
  557
  4
  2
EndShort
LangName: 1033 "" "" "Normal" "NLCI:KAN Kaveri Normal" "" "1.0 Wed May 17 15:30:32 1995"
Encoding: Original
UnicodeInterp: none
NameList: Adobe Glyph List
DisplaySize: -48
AntiAlias: 1
FitToEm: 1
BeginPrivate: 0
EndPrivate
AnchorClass2: "Sub" "blwm-2sub" "Nukta"""  "s"""  "V""" 
BeginChars: 607 607

StartChar: .notdef
Encoding: 0 -1 0
Width: 499
VWidth: 999
Flags: HW
LayerCount: 2
Fore
SplineSet
31 0 m 1
 31 684 l 1
 469 684 l 1
 469 0 l 1
 31 0 l 1
438 31 m 1
 438 653 l 1
 62 653 l 1
 62 31 l 1
 438 31 l 1
EndSplineSet
EndChar

StartChar: exclam
Encoding: 4 33 4
Width: 270
VWidth: 499
Flags: HW
LayerCount: 2
Fore
SplineSet
83.5 4 m 0
 79.8330078125 7.3330078125 78 11.6669921875 78 17 c 0
 78 112 l 0
 78 124.666992188 84.3330078125 131 97 131 c 0
 168 131 l 0
 180.666992188 131 187 124.666992188 187 112 c 0
 187 17 l 0
 187 5 180.666992188 -1 168 -1 c 0
 97 -1 l 0
 91.6669921875 -1 87.1669921875 0.6669921875 83.5 4 c 0
72 737 m 0
 196 737 l 0
 178 202 l 0
 87 202 l 0
 72 737 l 0
EndSplineSet
EndChar

StartChar: quotedbl
Encoding: 5 34 5
Width: 359
VWidth: 499
Flags: HW
LayerCount: 2
Fore
SplineSet
135 223 m 0
 127 223 l 0
 109 353 l 0
 109 361 110 368 114 372 c 0
 118 376 124 379 131 379 c 0
 138 379 144 376 148 372 c 0
 152 368 154 361 154 353 c 0
 135 223 l 0
50 223 m 0
 41 223 l 0
 23 353 l 0
 23 361 25 368 29 372 c 0
 33 376 39 379 46 379 c 0
 53 379 58 376 62 372 c 0
 66 368 68 361 68 353 c 0
 50 223 l 0
EndSplineSet
Refer: 10 39 N 1 0 0 1 162 0 2
Refer: 10 39 N 1 0 0 1 0 0 2
EndChar

StartChar: numbersign
Encoding: 6 35 6
Width: 710
VWidth: 499
Flags: HW
LayerCount: 2
Fore
SplineSet
404 297 m 0
 427 433 l 0
 295 433 l 0
 273 297 l 0
 404 297 l 0
174 215 m 0
 18 215 l 0
 31 297 l 0
 190 297 l 0
 213 433 l 0
 52 433 l 0
 65 515 l 0
 229 515 l 0
 268 732 l 0
 350 732 l 0
 312 515 l 0
 440 515 l 0
 478 732 l 0
 560 732 l 0
 523 515 l 0
 694 515 l 0
 682 433 l 0
 510 433 l 0
 487 297 l 0
 659 297 l 0
 648 215 l 0
 468 215 l 0
 431 0 l 0
 348 0 l 0
 386 215 l 0
 257 215 l 0
 219 0 l 0
 137 0 l 0
 174 215 l 0
EndSplineSet
EndChar

StartChar: dollar
Encoding: 7 36 7
Width: 609
VWidth: 499
Flags: HW
LayerCount: 2
Fore
SplineSet
486.5 376.5 m 0
 518.833007812 342.833007812 535 298.333007812 535 243 c 0
 535 196 l 0
 535 125.333007812 517 75.1669921875 481 45.5 c 0
 445 15.8330078125 393 -1 325 -5 c 0
 325 -89 l 0
 254 -89 l 0
 254 -5 l 0
 220 -3.6669921875 184.833007812 -1.1669921875 148.5 2.5 c 0
 112.166992188 6.1669921875 82 10.6669921875 58 16 c 0
 58 113 l 0
 118 107.666992188 192.333007812 105 281 105 c 0
 325.666992188 105 359.5 111.333007812 382.5 124 c 0
 405.5 136.666992188 417 159.666992188 417 193 c 0
 417 228 l 0
 417 254 409.666992188 274 395 288 c 0
 380.333007812 302 358.666992188 309 330 309 c 0
 261 309 l 0
 191 309 138.5 324.333007812 103.5 355 c 0
 68.5 385.666992188 51 435.333007812 51 504 c 0
 51 542 l 0
 51 608 68.5 657.333007812 103.5 690 c 0
 138.5 722.666992188 190.333007812 740.666992188 259 744 c 0
 254 786 l 0
 317 824 l 0
 325 762 l 0
 294 744 l 0
 327.333007812 743.333007812 362.666992188 740.833007812 400 736.5 c 0
 437.333007812 732.166992188 470.666992188 727 500 721 c 0
 500 624 l 0
 410 630 341.666992188 633 295 633 c 0
 253 633 221.5 626.166992188 200.5 612.5 c 0
 179.5 598.833007812 169 573.666992188 169 537 c 0
 169 512 l 0
 169 482 177.166992188 460.333007812 193.5 447 c 0
 209.833007812 433.666992188 234.666992188 427 268 427 c 0
 345 427 l 0
 407 427 454.166992188 410.166992188 486.5 376.5 c 0
EndSplineSet
EndChar

StartChar: percent
Encoding: 8 37 8
Width: 962
VWidth: 499
Flags: HW
LayerCount: 2
Fore
SplineSet
775 83 m 0
 801 83 819.333007812 88.1669921875 830 98.5 c 0
 840.666992188 108.833007812 846 126.666992188 846 152 c 0
 846 238 l 0
 846 263.333007812 840.833007812 281 830.5 291 c 0
 820.166992188 301 802.333007812 306 777 306 c 0
 706 306 l 0
 682 306 664.5 301.333007812 653.5 292 c 0
 642.5 282.666992188 637 264.666992188 637 238 c 0
 637 152 l 0
 637 127.333007812 641.833007812 109.666992188 651.5 99 c 0
 661.166992188 88.3330078125 678.666992188 83 704 83 c 0
 775 83 l 0
587.5 35.5 m 0
 567.166992188 57.1669921875 557 90 557 134 c 0
 557 255 l 0
 557 299.666992188 567.166992188 332.666992188 587.5 354 c 0
 607.833007812 375.333007812 642.333007812 386 691 386 c 0
 793 386 l 0
 840.333007812 386 874.333007812 375.166992188 895 353.5 c 0
 915.666992188 331.833007812 926 299 926 255 c 0
 926 134 l 0
 926 90 915.666992188 57.1669921875 895 35.5 c 0
 874.333007812 13.8330078125 839.666992188 3 791 3 c 0
 689 3 l 0
 641.666992188 3 607.833007812 13.8330078125 587.5 35.5 c 0
257 429 m 0
 283 429 301 434.166992188 311 444.5 c 0
 321 454.833007812 326 472.666992188 326 498 c 0
 326 584 l 0
 326 609.333007812 321.166992188 627 311.5 637 c 0
 301.833007812 647 284.333007812 652 259 652 c 0
 187 652 l 0
 163 652 145.5 647.333007812 134.5 638 c 0
 123.5 628.666992188 118 610.666992188 118 584 c 0
 118 498 l 0
 118 473.333007812 122.833007812 455.666992188 132.5 445 c 0
 142.166992188 434.333007812 159.666992188 429 185 429 c 0
 257 429 l 0
660 732 m 0
 742 732 l 0
 298 0 l 0
 213 0 l 0
 660 732 l 0
68.5 381.5 m 0
 48.1669921875 403.166992188 38 436 38 480 c 0
 38 601 l 0
 38 645.666992188 48.1669921875 678.666992188 68.5 700 c 0
 88.8330078125 721.333007812 123.333007812 732 172 732 c 0
 273 732 l 0
 320.333007812 732 354.333007812 721.166992188 375 699.5 c 0
 395.666992188 677.833007812 406 645 406 601 c 0
 406 480 l 0
 406 436 395.666992188 403.166992188 375 381.5 c 0
 354.333007812 359.833007812 319.666992188 349 271 349 c 0
 170 349 l 0
 122.666992188 349 88.8330078125 359.833007812 68.5 381.5 c 0
EndSplineSet
EndChar

StartChar: ampersand
Encoding: 9 38 9
Width: 689
VWidth: 499
Flags: HW
LayerCount: 2
Fore
SplineSet
301 118 m 0
 316.333007812 124.666992188 332.666992188 136 350 152 c 0
 377 179 l 0
 251 347 l 0
 208 309 l 0
 188.666992188 292.333007812 175 275.666992188 167 259 c 0
 159 242.333007812 155 224.333007812 155 205 c 0
 155 176.333007812 163.833007812 153 181.5 135 c 0
 199.166992188 117 222.666992188 108 252 108 c 0
 269.333007812 108 285.666992188 111.333007812 301 118 c 0
131 19.5 m 0
 101.666992188 35.8330078125 78.6669921875 58.8330078125 62 88.5 c 0
 45.3330078125 118.166992188 37 152.333007812 37 191 c 0
 37 265 67.6669921875 327.666992188 129 379 c 0
 191 432 l 0
 176 455 l 0
 156.666992188 483 143.833007812 507.666992188 137.5 529 c 0
 131.166992188 550.333007812 128 572 128 594 c 0
 128 643.333007812 144.666992188 679.333007812 178 702 c 0
 211.333007812 724.666992188 255.333007812 736 310 736 c 0
 380.666992188 736 442.666992188 729.666992188 496 717 c 0
 496 627 l 0
 333 627 l 0
 279 627 252 607 252 567 c 0
 252 553.666992188 255.666992188 539.166992188 263 523.5 c 0
 270.333007812 507.833007812 282.666992188 488.333007812 300 465 c 0
 460 246 l 0
 605 379 l 0
 651 324 l 0
 582 225 l 0
 521 166 l 0
 646 0 l 0
 517 0 l 0
 442 96 l 0
 407 64 l 0
 378.333007812 38.6669921875 350.333007812 20.8330078125 323 10.5 c 0
 295.666992188 0.1669921875 265 -5 231 -5 c 0
 193.666992188 -5 160.333007812 3.1669921875 131 19.5 c 0
EndSplineSet
EndChar

StartChar: quotesingle
Encoding: 10 39 10
Width: 197
VWidth: 499
Flags: HW
LayerCount: 2
Fore
SplineSet
36 684 m 0
 36 751 l 0
 155 751 l 0
 155 684 l 0
 147 501 l 0
 46 501 l 0
 36 684 l 0
EndSplineSet
EndChar

StartChar: parenleft
Encoding: 11 40 11
Width: 373
VWidth: 499
Flags: HW
LayerCount: 2
Fore
SplineSet
112.5 30.5 m 0
 81.5 114.833007812 66 213.333007812 66 326 c 0
 66 433.333007812 82 530.166992188 114 616.5 c 0
 146 702.833007812 189 784 243 860 c 0
 355 860 l 0
 303.666992188 774 263.333007812 688.166992188 234 602.5 c 0
 204.666992188 516.833007812 190 424.666992188 190 326 c 0
 190 226 203.666992188 135 231 53 c 0
 258.333007812 -29 299.666992188 -116.666992188 355 -210 c 0
 243 -210 l 0
 187 -134 143.5 -53.8330078125 112.5 30.5 c 0
EndSplineSet
EndChar

StartChar: parenright
Encoding: 12 41 12
Width: 372
VWidth: 499
Flags: HW
LayerCount: 2
Fore
SplineSet
139 47.5 m 0
 167.666992188 132.5 182 225 182 325 c 0
 182 425.666992188 168.666992188 516.666992188 142 598 c 0
 115.333007812 679.333007812 74 766.666992188 18 860 c 0
 129 860 l 0
 185.666992188 784 229.333007812 704 260 620 c 0
 290.666992188 536 306 437.666992188 306 325 c 0
 306 216.333007812 290.333007812 119.166992188 259 33.5 c 0
 227.666992188 -52.1669921875 184.333007812 -133.333007812 129 -210 c 0
 18 -210 l 0
 70 -123.333007812 110.333007812 -37.5 139 47.5 c 0
EndSplineSet
EndChar

StartChar: asterisk
Encoding: 13 42 13
Width: 439
VWidth: 499
Flags: HW
LayerCount: 2
Fore
SplineSet
202 474 m 0
 237 530 l 0
 353 443 l 0
 325 406 l 0
 202 474 l 0
106 414 m 0
 134 551 l 0
 198 535 l 0
 150 400 l 0
 106 414 l 0
45 577 m 0
 45 624 l 0
 185 636 l 0
 188 571 l 0
 45 577 l 0
252 563 m 0
 368 645 l 0
 395 607 l 0
 294 512 l 0
 252 563 l 0
177 722 m 0
 222 737 l 0
 285 612 l 0
 224 588 l 0
 177 722 l 0
EndSplineSet
EndChar

StartChar: plus
Encoding: 14 43 14
Width: 609
VWidth: 499
Flags: HW
LayerCount: 2
Fore
SplineSet
528 306 m 0
 354 306 l 0
 354 132 l 0
 254 132 l 0
 254 306 l 0
 80 306 l 0
 80 406 l 0
 254 406 l 0
 254 580 l 0
 354 580 l 0
 354 406 l 0
 528 406 l 0
 528 306 l 0
EndSplineSet
EndChar

StartChar: comma
Encoding: 15 44 15
Width: 222
VWidth: 499
Flags: HW
LayerCount: 2
Fore
SplineSet
75 -83 m 0
 67 -81.6669921875 62 -80.6669921875 60 -80 c 0
 60 -41 l 0
 69.3330078125 -41 75.8330078125 -39.6669921875 79.5 -37 c 0
 83.1669921875 -34.3330078125 85 -29.3330078125 85 -22 c 0
 85 8 l 0
 76 8 l 0
 70.6669921875 8 66.1669921875 9.8330078125 62.5 13.5 c 0
 58.8330078125 17.1669921875 57 22 57 28 c 0
 57 110 l 0
 57 124 63.3330078125 131 76 131 c 0
 146 131 l 0
 158.666992188 131 165 124 165 110 c 0
 165 -22 l 0
 165 -64 143.333007812 -85 100 -85 c 0
 91.3330078125 -85 83 -84.3330078125 75 -83 c 0
EndSplineSet
EndChar

StartChar: hyphen
Encoding: 16 45 16
Width: 347
VWidth: 499
Flags: HW
LayerCount: 2
Fore
SplineSet
23 340 m 0
 325 340 l 0
 325 240 l 0
 23 240 l 0
 23 340 l 0
EndSplineSet
EndChar

StartChar: period
Encoding: 17 46 17
Width: 222
VWidth: 499
Flags: HW
LayerCount: 2
Fore
SplineSet
62.5 4 m 0
 58.8330078125 7.3330078125 57 11.6669921875 57 17 c 0
 57 112 l 0
 57 124.666992188 63.3330078125 131 76 131 c 0
 147 131 l 0
 159.666992188 131 166 124.666992188 166 112 c 0
 166 17 l 0
 166 5 159.666992188 -1 147 -1 c 0
 76 -1 l 0
 70.6669921875 -1 66.1669921875 0.6669921875 62.5 4 c 0
EndSplineSet
EndChar

StartChar: slash
Encoding: 18 47 18
Width: 441
VWidth: 499
Flags: HW
LayerCount: 2
Fore
SplineSet
299 770 m 0
 423 770 l 0
 142 -72 l 0
 18 -72 l 0
 299 770 l 0
EndSplineSet
EndChar

StartChar: zero
Encoding: 19 48 19
Width: 650
VWidth: 499
Flags: HW
LayerCount: 2
Fore
SplineSet
371 108 m 0
 433 108 464 138.666992188 464 200 c 0
 464 541 l 0
 464 602.333007812 434.666992188 633 376 633 c 0
 277 633 l 0
 247.666992188 633 225.166992188 625.166992188 209.5 609.5 c 0
 193.833007812 593.833007812 186 571 186 541 c 0
 186 200 l 0
 186 169.333007812 194.166992188 146.333007812 210.5 131 c 0
 226.833007812 115.666992188 250.333007812 108 281 108 c 0
 371 108 l 0
112 43.5 m 0
 78.6669921875 75.1669921875 62 121.333007812 62 182 c 0
 62 553 l 0
 62 614.333007812 79 661.5 113 694.5 c 0
 147 727.5 193.666992188 744 253 744 c 0
 404 744 l 0
 464.666992188 744 510.333007812 727.333007812 541 694 c 0
 571.666992188 660.666992188 587 613.666992188 587 553 c 0
 587 182 l 0
 587 121.333007812 570.833007812 75.1669921875 538.5 43.5 c 0
 506.166992188 11.8330078125 461 -4 403 -4 c 0
 252 -4 l 0
 192 -4 145.333007812 11.8330078125 112 43.5 c 0
EndSplineSet
EndChar

StartChar: one
Encoding: 20 49 20
Width: 369
VWidth: 499
Flags: HW
LayerCount: 2
Fore
SplineSet
174 626 m 0
 35 601 l 0
 35 680 l 0
 187 745 l 0
 298 745 l 0
 298 0 l 0
 174 0 l 0
 174 626 l 0
EndSplineSet
EndChar

StartChar: two
Encoding: 21 50 21
Width: 589
VWidth: 499
Flags: HW
LayerCount: 2
Fore
SplineSet
49 100 m 0
 305 351 l 0
 339 383.666992188 363.5 413.333007812 378.5 440 c 0
 393.5 466.666992188 401 496 401 528 c 0
 401 560 391.5 584.5 372.5 601.5 c 0
 353.5 618.5 320.666992188 627 274 627 c 0
 69 627 l 0
 69 724 l 0
 112.333007812 730 151.5 734.833007812 186.5 738.5 c 0
 221.5 742.166992188 259 744 299 744 c 0
 381 744 439.166992188 727.333007812 473.5 694 c 0
 507.833007812 660.666992188 525 611.666992188 525 547 c 0
 525 498.333007812 515.166992188 454.833007812 495.5 416.5 c 0
 475.833007812 378.166992188 444.333007812 337.666992188 401 295 c 0
 214 112 l 0
 549 112 l 0
 549 0 l 0
 49 0 l 0
 49 100 l 0
EndSplineSet
EndChar

StartChar: three
Encoding: 22 51 22
Width: 581
VWidth: 499
Flags: HW
LayerCount: 2
Fore
SplineSet
40 12 m 0
 40 111 l 0
 272 111 l 0
 316 111 348.5 117 369.5 129 c 0
 390.5 141 401 163 401 195 c 0
 401 232 l 0
 401 260.666992188 391 281.666992188 371 295 c 0
 351 308.333007812 325 315.666992188 293 317 c 0
 109 325 l 0
 109 419 l 0
 288 428 l 0
 322 429.333007812 347.833007812 435.833007812 365.5 447.5 c 0
 383.166992188 459.166992188 392 477.666992188 392 503 c 0
 392 537 l 0
 392 567.666992188 381.833007812 590.333007812 361.5 605 c 0
 341.166992188 619.666992188 309.333007812 627 266 627 c 0
 59 627 l 0
 59 726 l 0
 153.666992188 739.333007812 239 745.333007812 315 744 c 0
 379.666992188 743.333007812 429.166992188 727.666992188 463.5 697 c 0
 497.833007812 666.333007812 515 622.333007812 515 565 c 0
 515 508 l 0
 515 470 505.666992188 439.833007812 487 417.5 c 0
 468.333007812 395.166992188 445 380 417 372 c 0
 445.666992188 364 471 346.333007812 493 319 c 0
 515 291.666992188 526 257.333007812 526 216 c 0
 526 173 l 0
 526 115.666992188 507.666992188 71.5 471 40.5 c 0
 434.333007812 9.5 383 -6 317 -6 c 0
 213 -6 120.666992188 0 40 12 c 0
EndSplineSet
EndChar

StartChar: four
Encoding: 23 52 23
Width: 610
VWidth: 499
Flags: HW
LayerCount: 2
Fore
SplineSet
381 168 m 0
 48 168 l 0
 24 229 l 0
 277 738 l 0
 404 738 l 0
 170 273 l 0
 381 273 l 0
 381 436 l 0
 406 515 l 0
 504 515 l 0
 504 273 l 0
 589 273 l 0
 589 188 l 0
 504 168 l 0
 504 1 l 0
 381 1 l 0
 381 168 l 0
EndSplineSet
EndChar

StartChar: five
Encoding: 24 53 24
Width: 616
VWidth: 499
Flags: HW
LayerCount: 2
Fore
SplineSet
68 9 m 0
 68 106 l 0
 327 106 l 0
 364.333007812 106 392.5 115.166992188 411.5 133.5 c 0
 430.5 151.833007812 440 175 440 203 c 0
 440 265 l 0
 440 293 432.333007812 314.666992188 417 330 c 0
 401.666992188 345.333007812 378.333007812 353 347 353 c 0
 282 353 l 0
 257.333007812 353 238.166992188 347.666992188 224.5 337 c 0
 210.833007812 326.333007812 202 310 198 288 c 0
 81 288 l 0
 102 738 l 0
 537 738 l 0
 537 627 l 0
 209 627 l 0
 199 418 l 0
 209 430 223.333007812 439.666992188 242 447 c 0
 260.666992188 454.333007812 282.333007812 458 307 458 c 0
 390 458 l 0
 446 458 489 442.166992188 519 410.5 c 0
 549 378.833007812 564 337.666992188 564 287 c 0
 564 178 l 0
 564 56 483.333007812 -5 322 -5 c 0
 241.333007812 -5 156.666992188 -0.3330078125 68 9 c 0
EndSplineSet
EndChar

StartChar: six
Encoding: 25 54 25
Width: 613
VWidth: 499
Flags: HW
LayerCount: 2
Fore
SplineSet
356 107 m 0
 382 107 402.166992188 113.333007812 416.5 126 c 0
 430.833007812 138.666992188 438 159.666992188 438 189 c 0
 438 248 l 0
 438 280 429.5 301.666992188 412.5 313 c 0
 395.5 324.333007812 367.666992188 330 329 330 c 0
 182 330 l 0
 182 272 186.166992188 226.833007812 194.5 194.5 c 0
 202.833007812 162.166992188 215.333007812 139.5 232 126.5 c 0
 248.666992188 113.5 270.333007812 107 297 107 c 0
 356 107 l 0
153.5 28 m 0
 122.5 49.3330078125 98.8330078125 86.6669921875 82.5 140 c 0
 66.1669921875 193.333007812 58 267.666992188 58 363 c 0
 58 498.333007812 81 595.666992188 127 655 c 0
 173 714.333007812 241 744 331 744 c 0
 400.333007812 744 462.333007812 739.333007812 517 730 c 0
 517 633 l 0
 340 633 l 0
 234.666992188 633 182 562 182 420 c 0
 224.666992188 430 284.666992188 435 362 435 c 0
 431.333007812 435 481.833007812 421.333007812 513.5 394 c 0
 545.166992188 366.666992188 561 325.666992188 561 271 c 0
 561 166 l 0
 561 107.333007812 545 64.3330078125 513 37 c 0
 481 9.6669921875 437.666992188 -4 383 -4 c 0
 273 -4 l 0
 224.333007812 -4 184.5 6.6669921875 153.5 28 c 0
EndSplineSet
EndChar

StartChar: seven
Encoding: 26 55 26
Width: 550
VWidth: 499
Flags: HW
LayerCount: 2
Fore
SplineSet
361 615 m 0
 26 615 l 0
 26 738 l 0
 486 738 l 0
 520 683 l 0
 267 0 l 0
 128 0 l 0
 361 615 l 0
EndSplineSet
EndChar

StartChar: eight
Encoding: 27 56 27
Width: 633
VWidth: 499
Flags: HW
LayerCount: 2
Fore
SplineSet
363 102 m 0
 392.333007812 102 413 107.833007812 425 119.5 c 0
 437 131.166992188 443 149.333007812 443 174 c 0
 443 249 l 0
 443 275 436.5 294 423.5 306 c 0
 410.5 318 389.666992188 324 361 324 c 0
 276 324 l 0
 254 324 234.166992188 317.666992188 216.5 305 c 0
 198.833007812 292.333007812 190 273.666992188 190 249 c 0
 190 174 l 0
 190 148.666992188 197.333007812 130.333007812 212 119 c 0
 226.666992188 107.666992188 248 102 276 102 c 0
 363 102 l 0
360 430 m 0
 408 430 432 455.333007812 432 506 c 0
 432 561 l 0
 432 590.333007812 426.333007812 610.666992188 415 622 c 0
 403.666992188 633.333007812 386.333007812 639 363 639 c 0
 276 639 l 0
 249.333007812 639 230.333007812 633.166992188 219 621.5 c 0
 207.666992188 609.833007812 202 589.666992188 202 561 c 0
 202 506 l 0
 202 480 207.833007812 460.833007812 219.5 448.5 c 0
 231.166992188 436.166992188 250 430 276 430 c 0
 360 430 l 0
66 152 m 0
 66 255 l 0
 66 285 74.3330078125 311.166992188 91 333.5 c 0
 107.666992188 355.833007812 128.333007812 369.666992188 153 375 c 0
 124.333007812 389 105.166992188 406.5 95.5 427.5 c 0
 85.8330078125 448.5 81 474.333007812 81 505 c 0
 81 590 l 0
 81 642.666992188 96.5 681.5 127.5 706.5 c 0
 158.5 731.5 199.333007812 744 250 744 c 0
 389 744 l 0
 439 744 478.833007812 731.666992188 508.5 707 c 0
 538.166992188 682.333007812 553 643.333007812 553 590 c 0
 553 505 l 0
 553 481 547.166992188 456.666992188 535.5 432 c 0
 523.833007812 407.333007812 506.666992188 392.333007812 484 387 c 0
 513.333007812 380.333007812 534.5 364.666992188 547.5 340 c 0
 560.5 315.333007812 567 288.333007812 567 259 c 0
 567 152 l 0
 567 95.3330078125 551.333007812 55.1669921875 520 31.5 c 0
 488.666992188 7.8330078125 445.666992188 -4 391 -4 c 0
 256 -4 l 0
 129.333007812 -4 66 48 66 152 c 0
EndSplineSet
EndChar

StartChar: nine
Encoding: 28 57 28
Width: 613
VWidth: 499
Flags: HW
LayerCount: 2
Fore
SplineSet
433 410 m 0
 433 468 428.833007812 513.166992188 420.5 545.5 c 0
 412.166992188 577.833007812 399.833007812 600.333007812 383.5 613 c 0
 367.166992188 625.666992188 345.333007812 632 318 632 c 0
 259 632 l 0
 232.333007812 632 212 625.833007812 198 613.5 c 0
 184 601.166992188 177 580 177 550 c 0
 177 491 l 0
 177 459 185.5 437.5 202.5 426.5 c 0
 219.5 415.5 247.333007812 410 286 410 c 0
 433 410 l 0
97 9 m 0
 97 106 l 0
 274 106 l 0
 380 106 433 177 433 319 c 0
 390.333007812 309 330.333007812 304 253 304 c 0
 183.666992188 304 133 317.666992188 101 345 c 0
 69 372.333007812 53 413.666992188 53 469 c 0
 53 574 l 0
 53 632 69.1669921875 674.666992188 101.5 702 c 0
 133.833007812 729.333007812 177.333007812 743 232 743 c 0
 342 743 l 0
 390.666992188 743 430.5 732.333007812 461.5 711 c 0
 492.5 689.666992188 516.166992188 652.333007812 532.5 599 c 0
 548.833007812 545.666992188 557 471.333007812 557 376 c 0
 557 240.666992188 534 143.333007812 488 84 c 0
 442 24.6669921875 374 -5 284 -5 c 0
 215.333007812 -5 153 -0.3330078125 97 9 c 0
EndSplineSet
EndChar

StartChar: colon
Encoding: 29 58 29
Width: 222
VWidth: 499
Flags: HW
LayerCount: 2
Fore
SplineSet
104 226 m 0
 104 221 103 217 101 213 c 0
 99 209 96 204 93 201 c 0
 90 198 86 196 82 194 c 0
 78 192 73 191 68 191 c 0
 63 191 58 192 54 194 c 0
 50 196 46 198 43 201 c 0
 40 204 37 209 35 213 c 0
 33 217 32 221 32 226 c 0
 32 231 33 236 35 240 c 0
 37 244 40 249 43 252 c 0
 46 255 50 257 54 259 c 0
 58 261 63 262 68 262 c 0
 73 262 78 261 82 259 c 0
 86 257 90 255 93 252 c 0
 96 249 99 244 101 240 c 0
 103 236 104 231 104 226 c 0
104 29 m 0
 104 24 103 19 101 15 c 0
 99 11 96 7 93 4 c 0
 90 1 86 -2 82 -4 c 0
 78 -6 73 -6 68 -6 c 0
 63 -6 58 -6 54 -4 c 0
 50 -2 46 1 43 4 c 0
 40 7 37 11 35 15 c 0
 33 19 32 24 32 29 c 0
 32 34 33 39 35 43 c 0
 37 47 40 51 43 54 c 0
 46 57 50 60 54 62 c 0
 58 64 63 65 68 65 c 0
 73 65 78 64 82 62 c 0
 86 60 90 57 93 54 c 0
 96 51 99 47 101 43 c 0
 103 39 104 34 104 29 c 0
EndSplineSet
Refer: 17 46 N 1 0 0 1 0 406 2
Refer: 17 46 N 1 0 0 1 0 0 2
EndChar

StartChar: semicolon
Encoding: 30 59 30
Width: 222
VWidth: 499
Flags: HW
LayerCount: 2
Fore
SplineSet
103 226 m 0
 103 221 103 217 101 213 c 0
 99 209 96 204 93 201 c 0
 90 198 86 196 82 194 c 0
 78 192 73 191 68 191 c 0
 63 191 58 192 54 194 c 0
 50 196 46 198 43 201 c 0
 40 204 37 209 35 213 c 0
 33 217 32 221 32 226 c 0
 32 231 33 236 35 240 c 0
 37 244 40 249 43 252 c 0
 46 255 50 257 54 259 c 0
 58 261 63 262 68 262 c 0
 73 262 78 261 82 259 c 0
 86 257 90 255 93 252 c 0
 96 249 99 244 101 240 c 0
 103 236 103 231 103 226 c 0
109 5 m 0
 109 -8 107 -20 102 -31 c 0
 97 -42 90 -53 81 -61 c 0
 72 -69 63 -76 52 -81 c 0
 41 -86 29 -89 17 -90 c 0
 17 -71 l 0
 26 -69 35 -67 42 -63 c 0
 49 -59 55 -55 60 -49 c 0
 65 -43 69 -35 72 -27 c 0
 75 -19 75 -8 75 4 c 0
 42 4 l 0
 42 4 41 5 40 6 c 0
 39 7 38 9 37 11 c 0
 36 13 35 16 34 19 c 0
 33 22 32 24 32 28 c 0
 32 33 33 38 35 42 c 0
 37 46 39 50 42 53 c 0
 45 56 48 60 52 62 c 0
 56 64 60 65 65 65 c 0
 73 65 79 63 85 60 c 0
 91 57 95 53 99 48 c 0
 103 43 105 36 107 29 c 0
 109 22 109 13 109 5 c 0
EndSplineSet
Refer: 15 44 N 1 0 0 1 0 0 2
Refer: 17 46 N 1 0 0 1 0 406 2
EndChar

StartChar: less
Encoding: 31 60 31
Width: 609
VWidth: 499
Flags: HW
LayerCount: 2
Fore
SplineSet
96 295 m 0
 96 405 l 0
 511 537 l 0
 511 429 l 0
 216 351 l 0
 511 267 l 0
 511 159 l 0
 96 295 l 0
EndSplineSet
EndChar

StartChar: equal
Encoding: 32 61 32
Width: 609
VWidth: 499
Flags: HW
LayerCount: 2
Fore
SplineSet
106 191 m 0
 106 224 l 0
 424 224 l 0
 424 191 l 0
 106 191 l 0
106 95 m 0
 106 127 l 0
 424 127 l 0
 424 95 l 0
 106 95 l 0
EndSplineSet
Refer: 386 8722 N 1 0 0 1 0 120 2
Refer: 386 8722 N 1 0 0 1 0 -120 2
EndChar

StartChar: greater
Encoding: 33 62 33
Width: 609
VWidth: 499
Flags: HW
LayerCount: 2
Fore
SplineSet
98 267 m 0
 393 351 l 0
 98 429 l 0
 98 537 l 0
 513 405 l 0
 513 295 l 0
 98 159 l 0
 98 267 l 0
EndSplineSet
EndChar

StartChar: question
Encoding: 34 63 34
Width: 530
VWidth: 499
Flags: HW
LayerCount: 2
Fore
SplineSet
153.5 4 m 0
 149.833007812 7.3330078125 148 11.6669921875 148 17 c 0
 148 112 l 0
 148 124.666992188 154.333007812 131 167 131 c 0
 238 131 l 0
 250.666992188 131 257 124.666992188 257 112 c 0
 257 17 l 0
 257 5 250.666992188 -1 238 -1 c 0
 167 -1 l 0
 161.666992188 -1 157.166992188 0.6669921875 153.5 4 c 0
156 385 m 0
 218 385 l 0
 261.333007812 385 292.666992188 391.666992188 312 405 c 0
 331.333007812 418.333007812 341 442.333007812 341 477 c 0
 341 519 l 0
 341 557.666992188 331.166992188 585.5 311.5 602.5 c 0
 291.833007812 619.5 261.333007812 628 220 628 c 0
 190.666992188 628 162.166992188 625.166992188 134.5 619.5 c 0
 106.833007812 613.833007812 76.3330078125 605 43 593 c 0
 43 683 l 0
 105.666992188 720.333007812 177.333007812 739 258 739 c 0
 326.666992188 739 378.166992188 721.166992188 412.5 685.5 c 0
 446.833007812 649.833007812 464 600.666992188 464 538 c 0
 464 475 l 0
 464 413 446.666992188 366.833007812 412 336.5 c 0
 377.333007812 306.166992188 323.333007812 291 250 291 c 0
 250 201 l 0
 156 201 l 0
 156 385 l 0
EndSplineSet
EndChar

StartChar: at
Encoding: 35 64 35
Width: 879
VWidth: 499
Flags: HW
LayerCount: 2
Fore
SplineSet
472.5 123.5 m 0
 498.833007812 132.5 519 143.333007812 533 156 c 0
 533 256 l 0
 402 248 l 0
 380.666992188 246.666992188 364.166992188 242.666992188 352.5 236 c 0
 340.833007812 229.333007812 335 215.333007812 335 194 c 0
 335 168 l 0
 335 149.333007812 340.5 135 351.5 125 c 0
 362.5 115 379 110 401 110 c 0
 422.333007812 110 446.166992188 114.5 472.5 123.5 c 0
116 -125 m 0
 77.3330078125 -90.3330078125 58 -36.6669921875 58 36 c 0
 58 337 l 0
 58 392.333007812 73.5 439.333007812 104.5 478 c 0
 135.5 516.666992188 189.666992188 536 267 536 c 0
 451 536 l 0
 504.333007812 536 547.166992188 525.333007812 579.5 504 c 0
 611.833007812 482.666992188 628 441 628 379 c 0
 628 24 l 0
 552 24 l 0
 535 82 l 0
 534.333007812 81.3330078125 518.5 70 487.5 48 c 0
 456.5 26 414.666992188 15 362 15 c 0
 321.333007812 15 289.833007812 28.3330078125 267.5 55 c 0
 245.166992188 81.6669921875 234 113.333007812 234 150 c 0
 234 191 l 0
 234 233.666992188 246.833007812 266.166992188 272.5 288.5 c 0
 298.166992188 310.833007812 334.333007812 322 381 322 c 0
 533 322 l 0
 533 371 l 0
 533 396.333007812 526.333007812 414.5 513 425.5 c 0
 499.666992188 436.5 479.666992188 442 453 442 c 0
 267 442 l 0
 231 442 203 433.833007812 183 417.5 c 0
 163 401.166992188 153 372.333007812 153 331 c 0
 153 48 l 0
 153 2 164.333007812 -31.1669921875 187 -51.5 c 0
 209.666992188 -71.8330078125 236.333007812 -82 267 -82 c 0
 586 -82 l 0
 630 -82 661.666992188 -71 681 -49 c 0
 700.333007812 -27 710 5.3330078125 710 48 c 0
 710 501 l 0
 710 543.666992188 699.166992188 577.166992188 677.5 601.5 c 0
 655.833007812 625.833007812 625.333007812 638 586 638 c 0
 188 638 l 0
 188 713 l 0
 213.333007812 718.333007812 255.5 723 314.5 727 c 0
 373.5 731 433.333007812 733 494 733 c 0
 586 733 l 0
 648 733 699.833007812 714.166992188 741.5 676.5 c 0
 783.166992188 638.833007812 804 580.333007812 804 501 c 0
 804 48 l 0
 804 -27.3330078125 786.5 -83.6669921875 751.5 -121 c 0
 716.5 -158.333007812 663.333007812 -177 592 -177 c 0
 267 -177 l 0
 205 -177 154.666992188 -159.666992188 116 -125 c 0
EndSplineSet
EndChar

StartChar: A
Encoding: 36 65 36
Width: 681
VWidth: 499
Flags: HW
LayerCount: 2
Fore
SplineSet
443 286 m 0
 339 632 l 0
 235 286 l 0
 443 286 l 0
263 738 m 0
 419 738 l 0
 659 0 l 0
 530 0 l 0
 473 175 l 0
 206 175 l 0
 150 0 l 0
 23 0 l 0
 263 738 l 0
EndSplineSet
EndChar

StartChar: B
Encoding: 37 66 37
Width: 619
VWidth: 499
Flags: HW
LayerCount: 2
Fore
SplineSet
359 111 m 0
 392.333007812 111 417.666992188 119.833007812 435 137.5 c 0
 452.333007812 155.166992188 461 184.333007812 461 225 c 0
 461 257.666992188 451.5 283.333007812 432.5 302 c 0
 413.5 320.666992188 389 330 359 330 c 0
 192 330 l 0
 192 111 l 0
 359 111 l 0
353 426 m 0
 378.333007812 426 398.666992188 435.333007812 414 454 c 0
 429.333007812 472.666992188 437 497.666992188 437 529 c 0
 437 594.333007812 408 627 350 627 c 0
 192 627 l 0
 192 426 l 0
 353 426 l 0
69 738 m 0
 351 738 l 0
 487 738 555 674 555 546 c 0
 555 502.666992188 545.5 466.833007812 526.5 438.5 c 0
 507.5 410.166992188 482.333007812 392 451 384 c 0
 486.333007812 375.333007812 516.5 356.166992188 541.5 326.5 c 0
 566.5 296.833007812 579 256 579 204 c 0
 579 130.666992188 561 78.3330078125 525 47 c 0
 489 15.6669921875 435 0 363 0 c 0
 69 0 l 0
 69 738 l 0
EndSplineSet
EndChar

StartChar: C
Encoding: 38 67 38
Width: 584
VWidth: 499
Flags: HW
LayerCount: 2
Fore
SplineSet
165 23.5 m 0
 127.666992188 43.1669921875 99.1669921875 80.3330078125 79.5 135 c 0
 59.8330078125 189.666992188 50 268.666992188 50 372 c 0
 50 470 60 546.166992188 80 600.5 c 0
 100 654.833007812 129.333007812 692.5 168 713.5 c 0
 206.666992188 734.5 256.666992188 745 318 745 c 0
 358 745 398.166992188 741.833007812 438.5 735.5 c 0
 478.833007812 729.166992188 513.333007812 721.666992188 542 713 c 0
 542 618 l 0
 522 622 493.5 625.666992188 456.5 629 c 0
 419.5 632.333007812 381.666992188 634 343 634 c 0
 299 634 265.166992188 627.166992188 241.5 613.5 c 0
 217.833007812 599.833007812 200.666992188 574.333007812 190 537 c 0
 179.333007812 499.666992188 174 444 174 370 c 0
 174 296 179 240.333007812 189 203 c 0
 199 165.666992188 215.666992188 140 239 126 c 0
 262.333007812 112 296.666992188 105 342 105 c 0
 418 105 484.666992188 108.666992188 542 116 c 0
 542 21 l 0
 481.333007812 3 405.666992188 -6 315 -6 c 0
 252.333007812 -6 202.333007812 3.8330078125 165 23.5 c 0
EndSplineSet
EndChar

StartChar: D
Encoding: 39 68 39
Width: 676
VWidth: 499
Flags: HW
LayerCount: 2
Fore
SplineSet
362 111 m 0
 410.666992188 111 446.333007812 132.833007812 469 176.5 c 0
 491.666992188 220.166992188 503 284.333007812 503 369 c 0
 503 435.666992188 498 487.666992188 488 525 c 0
 478 562.333007812 462.833007812 588.666992188 442.5 604 c 0
 422.166992188 619.333007812 395.333007812 627 362 627 c 0
 192 627 l 0
 192 111 l 0
 362 111 l 0
69 738 m 0
 374 738 l 0
 465.333007812 738 530.166992188 706.666992188 568.5 644 c 0
 606.833007812 581.333007812 626 489.666992188 626 369 c 0
 626 247 605 155 563 93 c 0
 521 31 458 0 374 0 c 0
 69 0 l 0
 69 738 l 0
EndSplineSet
EndChar

StartChar: E
Encoding: 40 69 40
Width: 594
VWidth: 499
Flags: HW
LayerCount: 2
Fore
SplineSet
119.5 26 m 0
 85.8330078125 46.6669921875 69 88.3330078125 69 151 c 0
 69 577 l 0
 69 633.666992188 84.3330078125 674.666992188 115 700 c 0
 145.666992188 725.333007812 182.666992188 738 226 738 c 0
 288.666992188 738 342.666992188 737 388 735 c 0
 433.333007812 733 485.333007812 730.333007812 544 727 c 0
 544 624 l 0
 265 624 l 0
 241.666992188 624 223.666992188 618.166992188 211 606.5 c 0
 198.333007812 594.833007812 192 577.333007812 192 554 c 0
 192 423 l 0
 499 416 l 0
 499 319 l 0
 192 312 l 0
 192 185 l 0
 192 135.666992188 216 111 264 111 c 0
 544 111 l 0
 544 8 l 0
 460 0.6669921875 358.666992188 -3.6669921875 240 -5 c 0
 193.333007812 -5 153.166992188 5.3330078125 119.5 26 c 0
EndSplineSet
EndChar

StartChar: F
Encoding: 41 70 41
Width: 577
VWidth: 499
Flags: HW
LayerCount: 2
Fore
SplineSet
69 577 m 0
 69 633.666992188 84.3330078125 674.666992188 115 700 c 0
 145.666992188 725.333007812 182.666992188 738 226 738 c 0
 357.333007812 738 463.333007812 734.333007812 544 727 c 0
 544 624 l 0
 262 624 l 0
 240 624 222.833007812 618 210.5 606 c 0
 198.166992188 594 192 577 192 555 c 0
 192 406 l 0
 499 399 l 0
 499 302 l 0
 192 295 l 0
 192 0 l 0
 69 0 l 0
 69 577 l 0
EndSplineSet
EndChar

StartChar: G
Encoding: 42 71 42
Width: 661
VWidth: 499
Flags: HW
LayerCount: 2
Fore
SplineSet
139.5 38 m 0
 105.833007812 66.6669921875 82.5 108.166992188 69.5 162.5 c 0
 56.5 216.833007812 50 286 50 370 c 0
 50 456 57.5 525.833007812 72.5 579.5 c 0
 87.5 633.166992188 114.166992188 674.166992188 152.5 702.5 c 0
 190.833007812 730.833007812 245 745 315 745 c 0
 396.333007812 745 478 735 560 715 c 0
 560 620 l 0
 535.333007812 623.333007812 502.166992188 626.5 460.5 629.5 c 0
 418.833007812 632.5 377.333007812 634 336 634 c 0
 291.333007812 634 257.5 625.666992188 234.5 609 c 0
 211.5 592.333007812 195.666992188 565.333007812 187 528 c 0
 178.333007812 490.666992188 174 437.666992188 174 369 c 0
 174 299 178.333007812 245.5 187 208.5 c 0
 195.666992188 171.5 210.166992188 145.666992188 230.5 131 c 0
 250.833007812 116.333007812 280.333007812 109 319 109 c 0
 346.333007812 109 373.666992188 111.666992188 401 117 c 0
 428.333007812 122.333007812 452.666992188 128.666992188 474 136 c 0
 474 306 l 0
 325 306 l 0
 325 402 l 0
 345 404.666992188 370.666992188 407 402 409 c 0
 433.333007812 411 464 412 494 412 c 0
 534 412 567 411 593 409 c 0
 593 0 l 0
 500 0 l 0
 483 51 l 0
 457 36.3330078125 426 23.3330078125 390 12 c 0
 354 0.6669921875 317 -5 279 -5 c 0
 219.666992188 -5 173.166992188 9.3330078125 139.5 38 c 0
EndSplineSet
EndChar

StartChar: H
Encoding: 43 72 43
Width: 696
VWidth: 499
Flags: HW
LayerCount: 2
Fore
SplineSet
69 738 m 0
 192 738 l 0
 192 419 l 0
 503 419 l 0
 503 738 l 0
 627 738 l 0
 627 0 l 0
 503 0 l 0
 503 308 l 0
 192 308 l 0
 192 0 l 0
 69 0 l 0
 69 738 l 0
EndSplineSet
EndChar

StartChar: I
Encoding: 44 73 44
Width: 261
VWidth: 499
Flags: HW
LayerCount: 2
Fore
SplineSet
69 738 m 0
 192 738 l 0
 192 0 l 0
 69 0 l 0
 69 738 l 0
EndSplineSet
EndChar

StartChar: J
Encoding: 45 74 45
Width: 397
VWidth: 499
Flags: HW
LayerCount: 2
Fore
SplineSet
82.5 0 m 0
 60.8330078125 4 42 9 26 15 c 0
 26 113 l 0
 63.3330078125 107.666992188 94 105 118 105 c 0
 146.666992188 105 168.333007812 111.666992188 183 125 c 0
 197.666992188 138.333007812 205 160.666992188 205 192 c 0
 205 738 l 0
 329 738 l 0
 329 174 l 0
 329 112 314.333007812 66.5 285 37.5 c 0
 255.666992188 8.5 209 -6 145 -6 c 0
 125 -6 104.166992188 -4 82.5 0 c 0
EndSplineSet
EndChar

StartChar: K
Encoding: 46 75 46
Width: 631
VWidth: 499
Flags: HW
LayerCount: 2
Fore
SplineSet
69 738 m 0
 192 738 l 0
 192 423 l 0
 302 423 l 0
 471 738 l 0
 603 738 l 0
 400 368 l 0
 608 0 l 0
 476 0 l 0
 301 311 l 0
 192 311 l 0
 192 0 l 0
 69 0 l 0
 69 738 l 0
EndSplineSet
EndChar

StartChar: L
Encoding: 47 76 47
Width: 534
VWidth: 499
Flags: HW
LayerCount: 2
Fore
SplineSet
110.5 38.5 m 0
 82.8330078125 64.1669921875 69 106.333007812 69 165 c 0
 69 738 l 0
 192 738 l 0
 192 185 l 0
 192 157.666992188 198.5 138.666992188 211.5 128 c 0
 224.5 117.333007812 242.333007812 112 265 112 c 0
 510 112 l 0
 510 0 l 0
 234 0 l 0
 179.333007812 0 138.166992188 12.8330078125 110.5 38.5 c 0
EndSplineSet
EndChar

StartChar: M
Encoding: 48 77 48
Width: 866
VWidth: 499
Flags: HW
LayerCount: 2
Fore
SplineSet
698 0 m 0
 636 528 l 0
 490 0 l 0
 374 0 l 0
 227 525 l 0
 168 0 l 0
 49 0 l 0
 134 738 l 0
 254 738 l 0
 433 147 l 0
 611 738 l 0
 731 738 l 0
 818 0 l 0
 698 0 l 0
EndSplineSet
EndChar

StartChar: N
Encoding: 49 78 49
Width: 697
VWidth: 499
Flags: HW
LayerCount: 2
Fore
SplineSet
77 738 m 0
 176 738 l 0
 512 211 l 0
 512 738 l 0
 636 738 l 0
 636 0 l 0
 537 0 l 0
 201 527 l 0
 201 0 l 0
 77 0 l 0
 77 738 l 0
EndSplineSet
EndChar

StartChar: O
Encoding: 50 79 50
Width: 695
VWidth: 499
Flags: HW
LayerCount: 2
Fore
SplineSet
452.5 125 m 0
 476.833007812 138.333007812 494.333007812 163.5 505 200.5 c 0
 515.666992188 237.5 521 293 521 367 c 0
 521 443.666992188 515.5 501 504.5 539 c 0
 493.5 577 476 602.333007812 452 615 c 0
 428 627.666992188 393 634 347 634 c 0
 302.333007812 634 268 627.5 244 614.5 c 0
 220 601.5 202.333007812 576.166992188 191 538.5 c 0
 179.666992188 500.833007812 174 443.666992188 174 367 c 0
 174 292.333007812 179.166992188 236.666992188 189.5 200 c 0
 199.833007812 163.333007812 217 138.333007812 241 125 c 0
 265 111.666992188 300.333007812 105 347 105 c 0
 393 105 428.166992188 111.666992188 452.5 125 c 0
177 22.5 m 0
 135 41.5 103.333007812 77.8330078125 82 131.5 c 0
 60.6669921875 185.166992188 50 263.666992188 50 367 c 0
 50 470.333007812 60.8330078125 549.333007812 82.5 604 c 0
 104.166992188 658.666992188 136 695.833007812 178 715.5 c 0
 220 735.166992188 276.333007812 745 347 745 c 0
 418.333007812 745 475.166992188 735.166992188 517.5 715.5 c 0
 559.833007812 695.833007812 591.666992188 658.833007812 613 604.5 c 0
 634.333007812 550.166992188 645 471 645 367 c 0
 645 263.666992188 634.166992188 185.166992188 612.5 131.5 c 0
 590.833007812 77.8330078125 559.166992188 41.5 517.5 22.5 c 0
 475.833007812 3.5 419 -6 347 -6 c 0
 275.666992188 -6 219 3.5 177 22.5 c 0
EndSplineSet
EndChar

StartChar: P
Encoding: 51 80 51
Width: 615
VWidth: 499
Flags: HW
LayerCount: 2
Fore
SplineSet
358 349 m 0
 388.666992188 349 412.5 360 429.5 382 c 0
 446.5 404 455 440 455 490 c 0
 455 581.333007812 424 627 362 627 c 0
 192 627 l 0
 192 349 l 0
 358 349 l 0
69 738 m 0
 374 738 l 0
 433.333007812 738 482.333007812 721.166992188 521 687.5 c 0
 559.666992188 653.833007812 579 588.333007812 579 491 c 0
 579 321.666992188 511.333007812 237 376 237 c 0
 355.333007812 237 325 238.666992188 285 242 c 0
 245 245.333007812 214 248.666992188 192 252 c 0
 192 0 l 0
 69 0 l 0
 69 738 l 0
EndSplineSet
EndChar

StartChar: Q
Encoding: 52 81 52
Width: 695
VWidth: 499
Flags: HW
LayerCount: 2
Fore
SplineSet
386.5 -148 m 0
 350.833007812 -122 331 -84.6669921875 327 -36 c 0
 413 -36 l 0
 418.333007812 -56.6669921875 429.666992188 -72 447 -82 c 0
 464.333007812 -92 484 -97 506 -97 c 0
 519.333007812 -97 538.666992188 -94 564 -88 c 0
 564 -180 l 0
 544 -184.666992188 526.333007812 -187 511 -187 c 0
 463.666992188 -187 422.166992188 -174 386.5 -148 c 0
452.5 125 m 0
 476.833007812 138.333007812 494.333007812 163.5 505 200.5 c 0
 515.666992188 237.5 521 293 521 367 c 0
 521 443.666992188 515.5 501 504.5 539 c 0
 493.5 577 476 602.333007812 452 615 c 0
 428 627.666992188 393 634 347 634 c 0
 302.333007812 634 268 627.5 244 614.5 c 0
 220 601.5 202.333007812 576.166992188 191 538.5 c 0
 179.666992188 500.833007812 174 443.666992188 174 367 c 0
 174 292.333007812 179.166992188 236.666992188 189.5 200 c 0
 199.833007812 163.333007812 217 138.333007812 241 125 c 0
 265 111.666992188 300.333007812 105 347 105 c 0
 393 105 428.166992188 111.666992188 452.5 125 c 0
177 22.5 m 0
 135 41.5 103.333007812 77.8330078125 82 131.5 c 0
 60.6669921875 185.166992188 50 263.666992188 50 367 c 0
 50 470.333007812 60.8330078125 549.333007812 82.5 604 c 0
 104.166992188 658.666992188 136 695.833007812 178 715.5 c 0
 220 735.166992188 276.333007812 745 347 745 c 0
 418.333007812 745 475.166992188 735.166992188 517.5 715.5 c 0
 559.833007812 695.833007812 591.666992188 658.833007812 613 604.5 c 0
 634.333007812 550.166992188 645 471 645 367 c 0
 645 263.666992188 634.166992188 185.166992188 612.5 131.5 c 0
 590.833007812 77.8330078125 559.166992188 41.5 517.5 22.5 c 0
 475.833007812 3.5 419 -6 347 -6 c 0
 275.666992188 -6 219 3.5 177 22.5 c 0
EndSplineSet
EndChar

StartChar: R
Encoding: 53 82 53
Width: 620
VWidth: 499
Flags: HW
LayerCount: 2
Fore
SplineSet
348 383 m 0
 380 383 404.833007812 392.166992188 422.5 410.5 c 0
 440.166992188 428.833007812 449 461.666992188 449 509 c 0
 449 554.333007812 440.166992188 585.333007812 422.5 602 c 0
 404.833007812 618.666992188 380 627 348 627 c 0
 192 627 l 0
 192 383 l 0
 348 383 l 0
69 738 m 0
 369 738 l 0
 431.666992188 738 481.333007812 721.5 518 688.5 c 0
 554.666992188 655.5 573 595.666992188 573 509 c 0
 573 443.666992188 561.5 396 538.5 366 c 0
 515.5 336 485.333007812 314.666992188 448 302 c 0
 590 0 l 0
 465 0 l 0
 337 284 l 0
 296.333007812 284 248 284.666992188 192 286 c 0
 192 0 l 0
 69 0 l 0
 69 738 l 0
EndSplineSet
EndChar

StartChar: S
Encoding: 54 83 54
Width: 585
VWidth: 499
Flags: HW
LayerCount: 2
Fore
SplineSet
167 0 m 0
 123 4 86.6669921875 9.3330078125 58 16 c 0
 58 113 l 0
 118 107.666992188 192.333007812 105 281 105 c 0
 325.666992188 105 359.5 111.333007812 382.5 124 c 0
 405.5 136.666992188 417 159.666992188 417 193 c 0
 417 228 l 0
 417 254 409.666992188 274 395 288 c 0
 380.333007812 302 358.666992188 309 330 309 c 0
 261 309 l 0
 191 309 138.5 324.333007812 103.5 355 c 0
 68.5 385.666992188 51 435.333007812 51 504 c 0
 51 542 l 0
 51 611.333007812 70.3330078125 662.333007812 109 695 c 0
 147.666992188 727.666992188 205 744 281 744 c 0
 315.666992188 744 353.5 741.666992188 394.5 737 c 0
 435.5 732.333007812 470.666992188 727 500 721 c 0
 500 624 l 0
 410 630 341.666992188 633 295 633 c 0
 253 633 221.5 626.166992188 200.5 612.5 c 0
 179.5 598.833007812 169 573.666992188 169 537 c 0
 169 512 l 0
 169 482 177.166992188 460.333007812 193.5 447 c 0
 209.833007812 433.666992188 234.666992188 427 268 427 c 0
 345 427 l 0
 407 427 454.166992188 410.166992188 486.5 376.5 c 0
 518.833007812 342.833007812 535 298.333007812 535 243 c 0
 535 196 l 0
 535 119.333007812 513.666992188 66.5 471 37.5 c 0
 428.333007812 8.5 367 -6 287 -6 c 0
 251 -6 211 -4 167 0 c 0
EndSplineSet
EndChar

StartChar: T
Encoding: 55 84 55
Width: 579
VWidth: 499
Flags: HW
LayerCount: 2
Fore
SplineSet
228 627 m 0
 16 627 l 0
 16 738 l 0
 563 738 l 0
 563 627 l 0
 352 627 l 0
 352 0 l 0
 228 0 l 0
 228 627 l 0
EndSplineSet
EndChar

StartChar: U
Encoding: 56 85 56
Width: 682
VWidth: 499
Flags: HW
LayerCount: 2
Fore
SplineSet
131.5 47.5 m 0
 83.1669921875 82.5 59 145 59 235 c 0
 59 738 l 0
 182 738 l 0
 182 235 l 0
 182 188.333007812 195.333007812 155.166992188 222 135.5 c 0
 248.666992188 115.833007812 288.333007812 106 341 106 c 0
 393.666992188 106 433.333007812 115.833007812 460 135.5 c 0
 486.666992188 155.166992188 500 188.333007812 500 235 c 0
 500 738 l 0
 623 738 l 0
 623 235 l 0
 623 145 598.833007812 82.5 550.5 47.5 c 0
 502.166992188 12.5 432.333007812 -5 341 -5 c 0
 249.666992188 -5 179.833007812 12.5 131.5 47.5 c 0
EndSplineSet
EndChar

StartChar: V
Encoding: 57 86 57
Width: 681
VWidth: 499
Flags: HW
LayerCount: 2
Fore
SplineSet
23 738 m 0
 151 738 l 0
 341 133 l 0
 531 738 l 0
 659 738 l 0
 419 0 l 0
 263 0 l 0
 23 738 l 0
EndSplineSet
EndChar

StartChar: W
Encoding: 58 87 58
Width: 991
VWidth: 499
Flags: HW
LayerCount: 2
Fore
SplineSet
23 738 m 0
 151 738 l 0
 284 180 l 0
 438 738 l 0
 554 738 l 0
 707 180 l 0
 840 738 l 0
 968 738 l 0
 787 0 l 0
 659 0 l 0
 496 559 l 0
 332 0 l 0
 204 0 l 0
 23 738 l 0
EndSplineSet
EndChar

StartChar: X
Encoding: 59 88 59
Width: 649
VWidth: 499
Flags: HW
LayerCount: 2
Fore
SplineSet
396 362 m 0
 623 0 l 0
 486 0 l 0
 319 266 l 0
 163 0 l 0
 27 0 l 0
 254 370 l 0
 24 738 l 0
 160 738 l 0
 331 466 l 0
 489 738 l 0
 626 738 l 0
 396 362 l 0
EndSplineSet
EndChar

StartChar: Y
Encoding: 60 89 60
Width: 624
VWidth: 499
Flags: HW
LayerCount: 2
Fore
SplineSet
250 231 m 0
 24 738 l 0
 152 738 l 0
 314 357 l 0
 476 738 l 0
 601 738 l 0
 374 231 l 0
 374 0 l 0
 250 0 l 0
 250 231 l 0
EndSplineSet
EndChar

StartChar: Z
Encoding: 61 90 61
Width: 569
VWidth: 499
Flags: HW
LayerCount: 2
Fore
SplineSet
40 100 m 0
 382 627 l 0
 40 627 l 0
 40 738 l 0
 532 738 l 0
 532 639 l 0
 191 111 l 0
 532 111 l 0
 532 0 l 0
 40 0 l 0
 40 100 l 0
EndSplineSet
EndChar

StartChar: bracketleft
Encoding: 62 91 62
Width: 337
VWidth: 499
Flags: HW
LayerCount: 2
Fore
SplineSet
112 -150.5 m 0
 88 -110.833007812 76 -63.6669921875 76 -9 c 0
 76 652 l 0
 76 709.333007812 89.1669921875 755.333007812 115.5 790 c 0
 141.833007812 824.666992188 185.666992188 842 247 842 c 0
 320 842 l 0
 320 742 l 0
 282 742 l 0
 227.333007812 742 200 706.333007812 200 635 c 0
 200 -3 l 0
 200 -74.3330078125 227.333007812 -110 282 -110 c 0
 320 -110 l 0
 320 -210 l 0
 247 -210 l 0
 181 -210 136 -190.166992188 112 -150.5 c 0
EndSplineSet
EndChar

StartChar: backslash
Encoding: 63 92 63
Width: 441
VWidth: 499
Flags: HW
LayerCount: 2
Fore
SplineSet
18 770 m 0
 142 770 l 0
 423 -72 l 0
 299 -72 l 0
 18 770 l 0
EndSplineSet
EndChar

StartChar: bracketright
Encoding: 64 93 64
Width: 337
VWidth: 499
Flags: HW
LayerCount: 2
Fore
SplineSet
18 -110 m 0
 56 -110 l 0
 110.666992188 -110 138 -74.3330078125 138 -3 c 0
 138 635 l 0
 138 706.333007812 110.666992188 742 56 742 c 0
 18 742 l 0
 18 842 l 0
 91 842 l 0
 152.333007812 842 196.166992188 824.666992188 222.5 790 c 0
 248.833007812 755.333007812 262 709.333007812 262 652 c 0
 262 -9 l 0
 262 -63.6669921875 250 -110.833007812 226 -150.5 c 0
 202 -190.166992188 157 -210 91 -210 c 0
 18 -210 l 0
 18 -110 l 0
EndSplineSet
EndChar

StartChar: asciicircum
Encoding: 65 94 65
Width: 390
VWidth: 499
Flags: HW
LayerCount: 2
Fore
SplineSet
158 667 m 0
 243 667 l 0
 346 531 l 0
 273 531 l 0
 198 608 l 0
 118 531 l 0
 45 531 l 0
 158 667 l 0
EndSplineSet
EndChar

StartChar: underscore
Encoding: 66 95 66
Width: 609
VWidth: 499
Flags: HW
LayerCount: 2
Fore
SplineSet
0 -82 m 0
 609 -82 l 0
 609 -182 l 0
 0 -182 l 0
 0 -82 l 0
EndSplineSet
EndChar

StartChar: grave
Encoding: 67 96 67
Width: 226
VWidth: 499
Flags: HW
LayerCount: 2
Fore
SplineSet
18 770 m 0
 119 770 l 0
 209 631 l 0
 136 631 l 0
 18 770 l 0
EndSplineSet
EndChar

StartChar: a
Encoding: 68 97 68
Width: 548
VWidth: 499
Flags: HW
LayerCount: 2
Fore
SplineSet
308.5 95.5 m 0
 339.5 105.166992188 358 111.666992188 364 115 c 0
 364 255 l 0
 248 249 l 0
 190 244.333007812 161 218.666992188 161 172 c 0
 161 150 l 0
 161 126 167.833007812 108.666992188 181.5 98 c 0
 195.166992188 87.3330078125 212.666992188 81.6669921875 234 81 c 0
 252.666992188 81 277.5 85.8330078125 308.5 95.5 c 0
75.5 30.5 m 0
 50.5 54.8330078125 38 87.6669921875 38 129 c 0
 38 174 l 0
 38 216.666992188 52.5 250.666992188 81.5 276 c 0
 110.5 301.333007812 153.666992188 314 211 314 c 0
 364 314 l 0
 364 361 l 0
 364 381 360.666992188 397 354 409 c 0
 347.333007812 421 335 430.166992188 317 436.5 c 0
 299 442.833007812 273 446 239 446 c 0
 77 446 l 0
 77 518 l 0
 137.666992188 534.666992188 207.666992188 543 287 543 c 0
 355 543 405.5 529.666992188 438.5 503 c 0
 471.5 476.333007812 488 431.666992188 488 369 c 0
 488 0 l 0
 391 0 l 0
 370 58 l 0
 363.333007812 52 349.666992188 43.8330078125 329 33.5 c 0
 308.333007812 23.1669921875 284.166992188 14 256.5 6 c 0
 228.833007812 -2 201.333007812 -6 174 -6 c 0
 133.333007812 -6 100.5 6.1669921875 75.5 30.5 c 0
EndSplineSet
EndChar

StartChar: b
Encoding: 69 98 69
Width: 583
VWidth: 499
Flags: HW
LayerCount: 2
Fore
SplineSet
384.5 136 m 0
 402.833007812 163.333007812 412 207.666992188 412 269 c 0
 412 317 407.5 353.666992188 398.5 379 c 0
 389.5 404.333007812 377.5 421.333007812 362.5 430 c 0
 347.5 438.666992188 328.666992188 443 306 443 c 0
 268.666992188 443 229 431.333007812 187 408 c 0
 187 128 l 0
 228.333007812 106 268 95 306 95 c 0
 340 95 366.166992188 108.666992188 384.5 136 c 0
261.5 9.5 m 0
 235.166992188 19.8330078125 210.333007812 34 187 52 c 0
 166 0 l 0
 63 0 l 0
 63 763 l 0
 187 763 l 0
 187 495 l 0
 212.333007812 509 239.166992188 520.5 267.5 529.5 c 0
 295.833007812 538.5 321.666992188 543 345 543 c 0
 390.333007812 543 427 533.666992188 455 515 c 0
 483 496.333007812 503.5 466.5 516.5 425.5 c 0
 529.5 384.5 536 330.333007812 536 263 c 0
 536 173.666992188 521 106.5 491 61.5 c 0
 461 16.5 414.333007812 -6 351 -6 c 0
 317.666992188 -6 287.833007812 -0.8330078125 261.5 9.5 c 0
EndSplineSet
EndChar

StartChar: c
Encoding: 70 99 70
Width: 490
VWidth: 499
Flags: HW
LayerCount: 2
Fore
SplineSet
104.5 54.5 m 0
 66.1669921875 94.8330078125 47 165.333007812 47 266 c 0
 47 337.333007812 55.6669921875 393.166992188 73 433.5 c 0
 90.3330078125 473.833007812 115.166992188 502.166992188 147.5 518.5 c 0
 179.833007812 534.833007812 221 543 271 543 c 0
 335 543 396 536 454 522 c 0
 454 451 l 0
 308 451 l 0
 274.666992188 451 248.166992188 445.833007812 228.5 435.5 c 0
 208.833007812 425.166992188 194.166992188 406.666992188 184.5 380 c 0
 174.833007812 353.333007812 170 315.333007812 170 266 c 0
 170 217.333007812 174.833007812 180.166992188 184.5 154.5 c 0
 194.166992188 128.833007812 208.833007812 111.333007812 228.5 102 c 0
 248.166992188 92.6669921875 275 88 309 88 c 0
 462 88 l 0
 462 18 l 0
 436 11.3330078125 405.5 5.6669921875 370.5 1 c 0
 335.5 -3.6669921875 301.333007812 -6 268 -6 c 0
 197.333007812 -6 142.833007812 14.1669921875 104.5 54.5 c 0
EndSplineSet
EndChar

StartChar: d
Encoding: 71 100 71
Width: 580
VWidth: 499
Flags: HW
LayerCount: 2
Fore
SplineSet
395 129 m 0
 395 427 l 0
 373.666992188 434.333007812 355 440 339 444 c 0
 323 448 305.666992188 450 287 450 c 0
 257.666992188 450 234.666992188 444.833007812 218 434.5 c 0
 201.333007812 424.166992188 189.166992188 406 181.5 380 c 0
 173.833007812 354 170 317 170 269 c 0
 170 223.666992188 173.666992188 188.5 181 163.5 c 0
 188.333007812 138.5 199.833007812 120.666992188 215.5 110 c 0
 231.166992188 99.3330078125 252.666992188 94 280 94 c 0
 316 94 354.333007812 105.666992188 395 129 c 0
94 57.5 m 0
 62.6669921875 99.8330078125 47 168.333007812 47 263 c 0
 47 331 53.3330078125 385.166992188 66 425.5 c 0
 78.6669921875 465.833007812 99.6669921875 495.5 129 514.5 c 0
 158.333007812 533.5 198.333007812 543 249 543 c 0
 296.333007812 543 345 534 395 516 c 0
 395 763 l 0
 519 763 l 0
 519 0 l 0
 416 0 l 0
 395 52 l 0
 377.666992188 36.6669921875 354 23.1669921875 324 11.5 c 0
 294 -0.1669921875 265.666992188 -6 239 -6 c 0
 173.666992188 -6 125.333007812 15.1669921875 94 57.5 c 0
EndSplineSet
EndChar

StartChar: e
Encoding: 72 101 72
Width: 539
VWidth: 499
Flags: HW
LayerCount: 2
Fore
SplineSet
314 298 m 0
 338 298 355.333007812 302.666992188 366 312 c 0
 376.666992188 321.333007812 382 337.666992188 382 361 c 0
 382 395.666992188 374.333007812 419.666992188 359 433 c 0
 343.666992188 446.333007812 317 453 279 453 c 0
 250.333007812 453 228.166992188 448.5 212.5 439.5 c 0
 196.833007812 430.5 185.5 415 178.5 393 c 0
 171.5 371 168 339.333007812 168 298 c 0
 314 298 l 0
142.5 19.5 m 0
 108.833007812 35.8330078125 84.5 63.5 69.5 102.5 c 0
 54.5 141.5 47 196.666992188 47 268 c 0
 47 340.666992188 54.1669921875 396.666992188 68.5 436 c 0
 82.8330078125 475.333007812 106.5 503 139.5 519 c 0
 172.5 535 219 543 279 543 c 0
 331.666992188 543 373.333007812 537.666992188 404 527 c 0
 434.666992188 516.333007812 457 497.833007812 471 471.5 c 0
 485 445.166992188 492 408.333007812 492 361 c 0
 492 311.666992188 477.833007812 276.333007812 449.5 255 c 0
 421.166992188 233.666992188 380 223 326 223 c 0
 169 223 l 0
 170.333007812 188.333007812 175 161.5 183 142.5 c 0
 191 123.5 205.166992188 109.666992188 225.5 101 c 0
 245.833007812 92.3330078125 275.333007812 88 314 88 c 0
 476 88 l 0
 476 15 l 0
 440 8.3330078125 407.833007812 3.3330078125 379.5 0 c 0
 351.166992188 -3.3330078125 318.666992188 -5 282 -5 c 0
 222.666992188 -5 176.166992188 3.1669921875 142.5 19.5 c 0
EndSplineSet
EndChar

StartChar: f
Encoding: 73 102 73
Width: 384
VWidth: 499
Flags: HW
LayerCount: 2
Fore
SplineSet
98 436 m 0
 20 436 l 0
 20 516 l 0
 98 536 l 0
 98 581 l 0
 98 646.333007812 111 694 137 724 c 0
 163 754 206.666992188 769 268 769 c 0
 304 769 340 764.666992188 376 756 c 0
 376 668 l 0
 291 668 l 0
 264.333007812 668 246.166992188 661.666992188 236.5 649 c 0
 226.833007812 636.333007812 222 615.666992188 222 587 c 0
 222 536 l 0
 369 536 l 0
 369 436 l 0
 222 436 l 0
 222 0 l 0
 98 0 l 0
 98 436 l 0
EndSplineSet
EndChar

StartChar: g
Encoding: 74 103 74
Width: 580
VWidth: 499
Flags: HW
LayerCount: 2
Fore
SplineSet
230 -2 m 0
 204 -2 182.666992188 -8.1669921875 166 -20.5 c 0
 149.333007812 -32.8330078125 141 -50.6669921875 141 -74 c 0
 141 -90 l 0
 141 -113.333007812 149 -130.666992188 165 -142 c 0
 181 -153.333007812 203.666992188 -159 233 -159 c 0
 342 -159 l 0
 373.333007812 -159 397.666992188 -153 415 -141 c 0
 432.333007812 -129 441 -111.333007812 441 -88 c 0
 441 -71 l 0
 441 -25 410.333007812 -2 349 -2 c 0
 230 -2 l 0
381.5 287 m 0
 395.166992188 302.333007812 402 323.333007812 402 350 c 0
 402 383.333007812 394.5 407.166992188 379.5 421.5 c 0
 364.5 435.833007812 342.666992188 443 314 443 c 0
 258 443 l 0
 227.333007812 443 204.333007812 436.166992188 189 422.5 c 0
 173.666992188 408.833007812 166 386.333007812 166 355 c 0
 166 323.666992188 173.166992188 300.666992188 187.5 286 c 0
 201.833007812 271.333007812 223 264 251 264 c 0
 309 264 l 0
 343.666992188 264 367.833007812 271.666992188 381.5 287 c 0
560 468 m 0
 465 455 l 0
 479.666992188 441.666992188 491.5 426.333007812 500.5 409 c 0
 509.5 391.666992188 514 366.666992188 514 334 c 0
 514 285.333007812 498.666992188 246 468 216 c 0
 437.333007812 186 388.666992188 171 322 171 c 0
 231 171 l 0
 183 171 159 156.333007812 159 127 c 0
 159 114.333007812 163.833007812 105.166992188 173.5 99.5 c 0
 183.166992188 93.8330078125 195 91 209 91 c 0
 368 91 l 0
 431.333007812 91 478.833007812 78.5 510.5 53.5 c 0
 542.166992188 28.5 558 -11 558 -65 c 0
 558 -82 l 0
 558 -134.666992188 541.166992188 -175.333007812 507.5 -204 c 0
 473.833007812 -232.666992188 423.666992188 -247 357 -247 c 0
 200 -247 l 0
 147.333007812 -247 104.833007812 -235.666992188 72.5 -213 c 0
 40.1669921875 -190.333007812 24 -158.333007812 24 -117 c 0
 24 -98 l 0
 24 -70.6669921875 31.5 -46.8330078125 46.5 -26.5 c 0
 61.5 -6.1669921875 81.6669921875 9.6669921875 107 21 c 0
 89.6669921875 30.3330078125 76.5 42.5 67.5 57.5 c 0
 58.5 72.5 54 89 54 107 c 0
 54 133 61.8330078125 154.833007812 77.5 172.5 c 0
 93.1669921875 190.166992188 115 202 143 208 c 0
 111 223.333007812 88.1669921875 244.5 74.5 271.5 c 0
 60.8330078125 298.5 54 328.666992188 54 362 c 0
 54 422 72.1669921875 466.166992188 108.5 494.5 c 0
 144.833007812 522.833007812 199 537 271 537 c 0
 560 537 l 0
 560 468 l 0
EndSplineSet
EndChar

StartChar: h
Encoding: 75 104 75
Width: 593
VWidth: 499
Flags: HW
LayerCount: 2
Fore
SplineSet
63 762 m 0
 187 762 l 0
 187 480 l 0
 210.333007812 498 238.333007812 513.333007812 271 526 c 0
 303.666992188 538.666992188 335.666992188 545 367 545 c 0
 423.666992188 545 465.333007812 528.166992188 492 494.5 c 0
 518.666992188 460.833007812 532 415.333007812 532 358 c 0
 532 0 l 0
 408 0 l 0
 408 343 l 0
 408 371 399.833007812 393 383.5 409 c 0
 367.166992188 425 345.666992188 433 319 433 c 0
 295 433 272.666992188 429.333007812 252 422 c 0
 231.333007812 414.666992188 209.666992188 403.666992188 187 389 c 0
 187 0 l 0
 63 0 l 0
 63 762 l 0
EndSplineSet
EndChar

StartChar: i
Encoding: 76 105 76
Width: 251
VWidth: 499
Flags: HW
LayerCount: 2
Fore
SplineSet
63 536 m 0
 187 536 l 0
 187 0 l 0
 63 0 l 0
 63 536 l 0
65.5 626 m 0
 61.8330078125 629.333007812 60 633.666992188 60 639 c 0
 60 730 l 0
 60 736 61.6669921875 740.833007812 65 744.5 c 0
 68.3330078125 748.166992188 73 750 79 750 c 0
 173 750 l 0
 179 750 183.5 748.166992188 186.5 744.5 c 0
 189.5 740.833007812 191 736 191 730 c 0
 191 639 l 0
 191 627 185 621 173 621 c 0
 79 621 l 0
 73.6669921875 621 69.1669921875 622.666992188 65.5 626 c 0
EndSplineSet
EndChar

StartChar: j
Encoding: 77 106 77
Width: 251
VWidth: 499
Flags: HW
LayerCount: 2
Fore
SplineSet
63 536 m 0
 187 536 l 0
 187 9 l 0
 187 -35 184.333007812 -79.1669921875 179 -123.5 c 0
 173.666992188 -167.833007812 166.333007812 -205.666992188 157 -237 c 0
 63 -237 l 0
 63 536 l 0
65.5 626 m 0
 61.8330078125 629.333007812 60 633.666992188 60 639 c 0
 60 730 l 0
 60 743.333007812 66.3330078125 750 79 750 c 0
 172 750 l 0
 184 750 190 743.333007812 190 730 c 0
 190 639 l 0
 190 627 184 621 172 621 c 0
 79 621 l 0
 73.6669921875 621 69.1669921875 622.666992188 65.5 626 c 0
EndSplineSet
EndChar

StartChar: k
Encoding: 78 107 78
Width: 537
VWidth: 499
Flags: HW
LayerCount: 2
Fore
SplineSet
63 763 m 0
 187 763 l 0
 187 340 l 0
 255 340 l 0
 389 536 l 0
 516 536 l 0
 346 284 l 0
 530 0 l 0
 403 0 l 0
 253 229 l 0
 187 229 l 0
 187 0 l 0
 63 0 l 0
 63 763 l 0
EndSplineSet
EndChar

StartChar: l
Encoding: 79 108 79
Width: 306
VWidth: 499
Flags: HW
LayerCount: 2
Fore
SplineSet
102 39.5 m 0
 76 67.1669921875 63 111.666992188 63 173 c 0
 63 763 l 0
 187 763 l 0
 187 190 l 0
 187 156 192 132.166992188 202 118.5 c 0
 212 104.833007812 228 96.6669921875 250 94 c 0
 295 88 l 0
 295 -2 l 0
 222 -2 l 0
 168 -2 128 11.8330078125 102 39.5 c 0
EndSplineSet
EndChar

StartChar: m
Encoding: 80 109 80
Width: 937
VWidth: 499
Flags: HW
LayerCount: 2
Fore
SplineSet
63 536 m 0
 164 536 l 0
 187 480 l 0
 215.666992188 500.666992188 244.666992188 516.666992188 274 528 c 0
 303.333007812 539.333007812 336.666992188 545 374 545 c 0
 406 545 433.5 538 456.5 524 c 0
 479.5 510 497.333007812 491.333007812 510 468 c 0
 538 488.666992188 569.833007812 506.666992188 605.5 522 c 0
 641.166992188 537.333007812 675.333007812 545 708 545 c 0
 820.666992188 545 877 480.666992188 877 352 c 0
 877 0 l 0
 753 0 l 0
 753 342 l 0
 753 370.666992188 745 393 729 409 c 0
 713 425 691.333007812 433 664 433 c 0
 641.333007812 433 617.833007812 428.666992188 593.5 420 c 0
 569.166992188 411.333007812 546.333007812 399.666992188 525 385 c 0
 529.666992188 371.666992188 532 356.333007812 532 339 c 0
 532 0 l 0
 408 0 l 0
 408 342 l 0
 408 370.666992188 400 393 384 409 c 0
 368 425 346.333007812 433 319 433 c 0
 294.333007812 433 271.666992188 429.333007812 251 422 c 0
 230.333007812 414.666992188 209 403.666992188 187 389 c 0
 187 0 l 0
 63 0 l 0
 63 536 l 0
EndSplineSet
EndChar

StartChar: n
Encoding: 81 110 81
Width: 593
VWidth: 499
Flags: HW
LayerCount: 2
Fore
SplineSet
63 536 m 0
 164 536 l 0
 187 480 l 0
 211.666992188 498.666992188 239.833007812 514.166992188 271.5 526.5 c 0
 303.166992188 538.833007812 334.666992188 545 366 545 c 0
 424.666992188 545 467 527.833007812 493 493.5 c 0
 519 459.166992188 532 413.666992188 532 357 c 0
 532 0 l 0
 408 0 l 0
 408 342 l 0
 408 370.666992188 400 393 384 409 c 0
 368 425 346.333007812 433 319 433 c 0
 294.333007812 433 271.666992188 429.333007812 251 422 c 0
 230.333007812 414.666992188 209 403.666992188 187 389 c 0
 187 0 l 0
 63 0 l 0
 63 536 l 0
EndSplineSet
EndChar

StartChar: o
Encoding: 82 111 82
Width: 576
VWidth: 499
Flags: HW
LayerCount: 2
Fore
SplineSet
356.5 106 m 0
 372.833007812 114 385 130.5 393 155.5 c 0
 401 180.5 405 218.666992188 405 270 c 0
 405 320.666992188 401 358.5 393 383.5 c 0
 385 408.5 372.833007812 424.833007812 356.5 432.5 c 0
 340.166992188 440.166992188 317 444 287 444 c 0
 257.666992188 444 234.833007812 440.166992188 218.5 432.5 c 0
 202.166992188 424.833007812 190 408.5 182 383.5 c 0
 174 358.5 170 320.666992188 170 270 c 0
 170 218.666992188 174 180.5 182 155.5 c 0
 190 130.5 202.166992188 114 218.5 106 c 0
 234.833007812 98 257.666992188 94 287 94 c 0
 317 94 340.166992188 98 356.5 106 c 0
148 20 m 0
 113.333007812 36.6669921875 87.8330078125 64.6669921875 71.5 104 c 0
 55.1669921875 143.333007812 47 198.333007812 47 269 c 0
 47 342.333007812 55.1669921875 398.666992188 71.5 438 c 0
 87.8330078125 477.333007812 113.166992188 504.666992188 147.5 520 c 0
 181.833007812 535.333007812 228.333007812 543 287 543 c 0
 346.333007812 543 393.166992188 535.166992188 427.5 519.5 c 0
 461.833007812 503.833007812 487.333007812 476.166992188 504 436.5 c 0
 520.666992188 396.833007812 529 341 529 269 c 0
 529 197 521 141.333007812 505 102 c 0
 489 62.6669921875 463.666992188 35 429 19 c 0
 394.333007812 3 347 -5 287 -5 c 0
 229 -5 182.666992188 3.3330078125 148 20 c 0
EndSplineSet
EndChar

StartChar: p
Encoding: 83 112 83
Width: 583
VWidth: 499
Flags: HW
LayerCount: 2
Fore
SplineSet
412 268 m 0
 412 329.333007812 402.5 373.833007812 383.5 401.5 c 0
 364.5 429.166992188 339 443 307 443 c 0
 271 443 231 431.333007812 187 408 c 0
 187 128 l 0
 203.666992188 118 222.666992188 110 244 104 c 0
 265.333007812 98 286 95 306 95 c 0
 376.666992188 95 412 152.666992188 412 268 c 0
63 536 m 0
 166 536 l 0
 187 483 l 0
 208.333007812 499.666992188 232.833007812 513.833007812 260.5 525.5 c 0
 288.166992188 537.166992188 316.333007812 543 345 543 c 0
 410.333007812 543 458.5 518.5 489.5 469.5 c 0
 520.5 420.5 536 353.333007812 536 268 c 0
 536 176.666992188 521.166992188 108 491.5 62 c 0
 461.833007812 16 413 -7 345 -7 c 0
 318.333007812 -7 291 -3.3330078125 263 4 c 0
 235 11.3330078125 209.666992188 21.3330078125 187 34 c 0
 187 -237 l 0
 63 -237 l 0
 63 536 l 0
EndSplineSet
EndChar

StartChar: q
Encoding: 84 113 84
Width: 580
VWidth: 499
Flags: HW
LayerCount: 2
Fore
SplineSet
336.5 103.5 m 0
 358.166992188 109.833007812 377.666992188 118.333007812 395 129 c 0
 395 450 l 0
 286 450 l 0
 243.333007812 450 213.333007812 435.333007812 196 406 c 0
 178.666992188 376.666992188 170 332 170 272 c 0
 170 226.666992188 173.5 191.166992188 180.5 165.5 c 0
 187.5 139.833007812 198.5 121.5 213.5 110.5 c 0
 228.5 99.5 249 94 275 94 c 0
 294.333007812 94 314.833007812 97.1669921875 336.5 103.5 c 0
395 52 m 0
 372.333007812 34.6669921875 347.166992188 20.6669921875 319.5 10 c 0
 291.833007812 -0.6669921875 265.333007812 -6 240 -6 c 0
 192 -6 154 3.8330078125 126 23.5 c 0
 98 43.1669921875 77.8330078125 72.8330078125 65.5 112.5 c 0
 53.1669921875 152.166992188 47 204 47 268 c 0
 47 366 63.1669921875 436.333007812 95.5 479 c 0
 127.833007812 521.666992188 179.333007812 543 250 543 c 0
 294.666992188 543 341.666992188 541.166992188 391 537.5 c 0
 440.333007812 533.833007812 483 529.666992188 519 525 c 0
 519 -237 l 0
 395 -237 l 0
 395 52 l 0
EndSplineSet
EndChar

StartChar: r
Encoding: 85 114 85
Width: 419
VWidth: 499
Flags: HW
LayerCount: 2
Fore
SplineSet
63 536 m 0
 159 536 l 0
 187 450 l 0
 210.333007812 479.333007812 235.166992188 502.166992188 261.5 518.5 c 0
 287.833007812 534.833007812 317.666992188 543 351 543 c 0
 367 543 382 541 396 537 c 0
 396 411 l 0
 370.666992188 413.666992188 350.333007812 415 335 415 c 0
 303.666992188 415 276.666992188 409.833007812 254 399.5 c 0
 231.333007812 389.166992188 209 372.666992188 187 350 c 0
 187 0 l 0
 63 0 l 0
 63 536 l 0
EndSplineSet
EndChar

StartChar: s
Encoding: 86 115 86
Width: 503
VWidth: 499
Flags: HW
LayerCount: 2
Fore
SplineSet
139 -0.5 m 0
 97 3.1669921875 66.6669921875 8.3330078125 48 15 c 0
 48 88 l 0
 279 88 l 0
 306.333007812 88 326.166992188 91.6669921875 338.5 99 c 0
 350.833007812 106.333007812 357 121.333007812 357 144 c 0
 357 163 l 0
 357 181 351.166992188 194.5 339.5 203.5 c 0
 327.833007812 212.5 309 217 283 217 c 0
 202 217 l 0
 94 217 40 264 40 358 c 0
 40 388 l 0
 40 440 55.6669921875 478.5 87 503.5 c 0
 118.333007812 528.5 171.333007812 541 246 541 c 0
 276 541 310.5 538.833007812 349.5 534.5 c 0
 388.5 530.166992188 418.666992188 525.333007812 440 520 c 0
 440 447 l 0
 222 447 l 0
 196 447 176.833007812 442.5 164.5 433.5 c 0
 152.166992188 424.5 146 409.333007812 146 388 c 0
 146 369 l 0
 146 348.333007812 152.333007812 334.5 165 327.5 c 0
 177.666992188 320.5 197.666992188 317 225 317 c 0
 308 317 l 0
 359.333007812 317 398 305 424 281 c 0
 450 257 463 223 463 179 c 0
 463 135 l 0
 463 83 445.666992188 46.5 411 25.5 c 0
 376.333007812 4.5 324.333007812 -6 255 -6 c 0
 219.666992188 -6 181 -4.1669921875 139 -0.5 c 0
EndSplineSet
EndChar

StartChar: t
Encoding: 87 116 87
Width: 381
VWidth: 499
Flags: HW
LayerCount: 2
Fore
SplineSet
130.5 42 m 0
 104.833007812 70 92.6669921875 117.333007812 94 184 c 0
 98 436 l 0
 14 436 l 0
 14 516 l 0
 102 536 l 0
 120 686 l 0
 217 686 l 0
 217 536 l 0
 353 536 l 0
 353 436 l 0
 217 436 l 0
 217 185 l 0
 217 153.666992188 222.833007812 131.833007812 234.5 119.5 c 0
 246.166992188 107.166992188 261.333007812 100 280 98 c 0
 347 91 l 0
 347 0 l 0
 258 0 l 0
 198.666992188 0 156.166992188 14 130.5 42 c 0
EndSplineSet
EndChar

StartChar: u
Encoding: 88 117 88
Width: 593
VWidth: 499
Flags: HW
LayerCount: 2
Fore
SplineSet
102.5 36 m 0
 75.5 64 62 104.333007812 62 157 c 0
 62 536 l 0
 186 536 l 0
 186 193 l 0
 186 159.666992188 193.5 136.5 208.5 123.5 c 0
 223.5 110.5 246.333007812 104 277 104 c 0
 323.666992188 104 367 118.333007812 407 147 c 0
 407 536 l 0
 531 536 l 0
 531 0 l 0
 430 0 l 0
 407 56 l 0
 343 14.6669921875 280 -6 218 -6 c 0
 168 -6 129.5 8 102.5 36 c 0
EndSplineSet
EndChar

StartChar: v
Encoding: 89 118 89
Width: 554
VWidth: 499
Flags: HW
LayerCount: 2
Fore
SplineSet
15 536 m 0
 142 536 l 0
 276 115 l 0
 413 536 l 0
 539 536 l 0
 344 0 l 0
 202 0 l 0
 15 536 l 0
EndSplineSet
EndChar

StartChar: w
Encoding: 90 119 90
Width: 816
VWidth: 499
Flags: HW
LayerCount: 2
Fore
SplineSet
15 536 m 0
 142 536 l 0
 243 115 l 0
 359 536 l 0
 463 536 l 0
 579 115 l 0
 674 536 l 0
 801 536 l 0
 654 0 l 0
 517 0 l 0
 409 363 l 0
 298 0 l 0
 164 0 l 0
 15 536 l 0
EndSplineSet
EndChar

StartChar: x
Encoding: 91 120 91
Width: 529
VWidth: 499
Flags: HW
LayerCount: 2
Fore
SplineSet
332 261 m 0
 516 0 l 0
 390 0 l 0
 260 184 l 0
 139 0 l 0
 13 0 l 0
 197 274 l 0
 13 536 l 0
 139 536 l 0
 270 350 l 0
 390 535 l 0
 516 536 l 0
 332 261 l 0
EndSplineSet
EndChar

StartChar: y
Encoding: 92 121 92
Width: 559
VWidth: 499
Flags: HW
LayerCount: 2
Fore
SplineSet
285 0 m 0
 203.666992188 0 150.333007812 45.6669921875 125 137 c 0
 15 536 l 0
 143 536 l 0
 240 162 l 0
 246 144 253.333007812 130.666992188 262 122 c 0
 270.666992188 113.333007812 278.166992188 108 284.5 106 c 0
 290.833007812 104 298.333007812 102.666992188 307 102 c 0
 418 536 l 0
 544 536 l 0
 372 -138 l 0
 324 -237 l 0
 223 -237 l 0
 285 0 l 0
EndSplineSet
EndChar

StartChar: z
Encoding: 93 122 93
Width: 501
VWidth: 499
Flags: HW
LayerCount: 2
Fore
SplineSet
47 90 m 0
 319 436 l 0
 38 436 l 0
 38 536 l 0
 463 536 l 0
 463 446 l 0
 190 100 l 0
 463 100 l 0
 463 0 l 0
 47 0 l 0
 47 90 l 0
EndSplineSet
EndChar

StartChar: braceleft
Encoding: 94 123 94
Width: 315
VWidth: 499
Flags: HW
LayerCount: 2
Fore
SplineSet
134.5 -166.5 m 0
 104.166992188 -137.5 89 -94.6669921875 89 -38 c 0
 89 215 l 0
 89 234.333007812 82.1669921875 249.666992188 68.5 261 c 0
 54.8330078125 272.333007812 38 277.333007812 18 276 c 0
 18 391 l 0
 66 395.666992188 90 416 90 452 c 0
 90 656 l 0
 90 714.666992188 106.5 760.333007812 139.5 793 c 0
 172.5 825.666992188 225 842 297 842 c 0
 297 742 l 0
 276.333007812 742 260 738 248 730 c 0
 236 722 227.333007812 708.5 222 689.5 c 0
 216.666992188 670.5 214 643.666992188 214 609 c 0
 214 432 l 0
 214 401.333007812 205.5 378 188.5 362 c 0
 171.5 346 148.333007812 336.666992188 119 334 c 0
 147.666992188 328.666992188 170.5 317.666992188 187.5 301 c 0
 204.5 284.333007812 213 263.666992188 213 239 c 0
 213 3 l 0
 213 -41 219 -71.8330078125 231 -89.5 c 0
 243 -107.166992188 265 -116 297 -116 c 0
 297 -210 l 0
 219 -210 164.833007812 -195.5 134.5 -166.5 c 0
EndSplineSet
EndChar

StartChar: bar
Encoding: 95 124 95
Width: 252
VWidth: 499
Flags: HW
LayerCount: 2
Fore
SplineSet
76 770 m 0
 176 770 l 0
 176 -72 l 0
 76 -72 l 0
 76 770 l 0
EndSplineSet
EndChar

StartChar: braceright
Encoding: 96 125 96
Width: 315
VWidth: 499
Flags: HW
LayerCount: 2
Fore
SplineSet
18 -116 m 0
 49.3330078125 -116 71.1669921875 -107 83.5 -89 c 0
 95.8330078125 -71 102 -40.3330078125 102 3 c 0
 102 239 l 0
 102 264.333007812 110.333007812 285.166992188 127 301.5 c 0
 143.666992188 317.833007812 166.333007812 328.666992188 195 334 c 0
 165.666992188 336.666992188 142.666992188 346 126 362 c 0
 109.333007812 378 101 401.333007812 101 432 c 0
 101 609 l 0
 101 643.666992188 98.3330078125 670.5 93 689.5 c 0
 87.6669921875 708.5 79 722 67 730 c 0
 55 738 38.6669921875 742 18 742 c 0
 18 842 l 0
 90 842 142.5 825.666992188 175.5 793 c 0
 208.5 760.333007812 225 714.666992188 225 656 c 0
 225 452 l 0
 225 416 249 395.666992188 297 391 c 0
 297 276 l 0
 277 277.333007812 260.166992188 272.333007812 246.5 261 c 0
 232.833007812 249.666992188 226 234.333007812 226 215 c 0
 226 -38 l 0
 226 -94.6669921875 210.666992188 -137.5 180 -166.5 c 0
 149.333007812 -195.5 95.3330078125 -210 18 -210 c 0
 18 -116 l 0
EndSplineSet
EndChar

StartChar: asciitilde
Encoding: 97 126 97
Width: 432
VWidth: 499
Flags: HW
LayerCount: 2
Fore
SplineSet
246 542.5 m 0
 234.666992188 547.5 221 554.666992188 205 564 c 0
 203 565.333007812 197.833007812 568.166992188 189.5 572.5 c 0
 181.166992188 576.833007812 174 580.166992188 168 582.5 c 0
 162 584.833007812 157 586 153 586 c 0
 138.333007812 586 124.5 582.833007812 111.5 576.5 c 0
 98.5 570.166992188 82 559.666992188 62 545 c 0
 45 587 l 0
 82.3330078125 632.333007812 120.666992188 655 160 655 c 0
 170.666992188 655 181.166992188 652.666992188 191.5 648 c 0
 201.833007812 643.333007812 215 636 231 626 c 0
 233 624.666992188 237.833007812 621.833007812 245.5 617.5 c 0
 253.166992188 613.166992188 260 609.833007812 266 607.5 c 0
 272 605.166992188 277 604 281 604 c 0
 308.333007812 604 338.333007812 619 371 649 c 0
 388 603 l 0
 352 557.666992188 315.666992188 535 279 535 c 0
 268.333007812 535 257.333007812 537.5 246 542.5 c 0
EndSplineSet
EndChar

StartChar: inherent
Encoding: 98 -1 98
Width: 163
VWidth: 999
Flags: HW
LayerCount: 2
Fore
SplineSet
1 684 m 1
 32 684 54 708 54 737 c 2
 54 806 l 1
 164 806 l 1
 164 738 l 2
 164 656 91 588 1 588 c 1
 1 684 l 1
EndSplineSet
EndChar

StartChar: makewide
Encoding: 99 -1 99
Width: 330
VWidth: 999
Flags: HW
LayerCount: 2
Fore
SplineSet
317 498 m 2
 317 545 285 586 235 586 c 2
 140 586 l 1
 140 682 l 1
 359 682 l 1
 385 586 l 1
 413 560 427 533 427 504 c 2
 427 132 l 2
 427 62 379 0 317 0 c 2
 175 0 l 2
 106 0 44 47 4 103 c 1
 4 259 l 1
 46 172 118 95 195 95 c 2
 284 95 l 2
 304 95 317 118 317 148 c 2
 317 498 l 2
EndSplineSet
EndChar

StartChar: shortrr
Encoding: 100 -1 100
Width: 783
VWidth: 999
Flags: HW
LayerCount: 2
Fore
SplineSet
178 582 m 2
 178 643 234 684 295 684 c 2
 792 684 l 1
 792 588 l 1
 337 588 l 2
 312 588 288 570 288 547 c 2
 288 465 l 2
 288 436 317 411 351 411 c 2
 520 411 l 1
 520 316 l 1
 351 316 l 2
 317 316 288 292 288 262 c 2
 288 160 l 2
 288 127 307 103 328 98 c 1
 410 98 l 1
 410 3 l 1
 287 3 l 2
 230 3 178 47 178 111 c 2
 178 269 l 2
 178 318 219 358 267 366 c 1
 220 376 178 409 178 460 c 2
 178 582 l 2
EndSplineSet
EndChar

StartChar: anusvara
Encoding: 101 3202 101
Width: 748
VWidth: 999
Flags: HW
LayerCount: 2
Fore
SplineSet
599 682 m 2
 681 682 748 616 748 527 c 2
 749 149 l 2
 749 67 693 0 627 0 c 2
 325 0 l 2
 244 0 176 72 176 163 c 2
 176 541 l 2
 176 580 190 613 220 640 c 1
 248 668 284 682 325 682 c 2
 599 682 l 2
581 95 m 2
 613 95 641 126 640 171 c 1
 640 518 l 2
 640 564 606 586 580 586 c 2
 362 586 l 2
 322 586 285 559 285 526 c 2
 285 171 l 2
 285 132 321 95 368 95 c 2
 581 95 l 2
EndSplineSet
EndChar

StartChar: u0C83
Encoding: 102 3203 102
Width: 484
VWidth: 999
Flags: HW
LayerCount: 2
Fore
SplineSet
401 684 m 2
 457 684 510 637 510 574 c 2
 511 465 l 2
 511 414 471 370 416 370 c 2
 265 370 l 2
 204 370 156 419 156 473 c 2
 156 582 l 2
 156 643 208 684 265 684 c 2
 401 684 l 2
401 315 m 2
 466 315 510 260 510 200 c 2
 510 110 l 2
 510 49 471 1 425 1 c 2
 265 1 l 2
 206 1 156 47 156 104 c 2
 156 213 l 2
 156 273 209 315 265 315 c 2
 401 315 l 2
369 467 m 2
 385 467 400 479 401 493 c 1
 401 555 l 2
 401 575 388 588 369 588 c 2
 307 588 l 2
 285 588 265 574 265 555 c 2
 265 500 l 2
 265 487 276 467 301 467 c 2
 369 467 l 2
374 97 m 2
 390 97 400 109 400 125 c 2
 400 187 l 2
 400 215 385 220 381 220 c 2
 301 220 l 2
 282 220 265 209 265 193 c 2
 265 133 l 2
 265 116 275 97 292 97 c 2
 374 97 l 2
EndSplineSet
EndChar

StartChar: avowel
Encoding: 103 3205 103
Width: 973
VWidth: 999
Flags: HW
LayerCount: 2
Fore
SplineSet
853 682 m 2
 925 682 1005 634 1005 554 c 2
 1004 138 l 2
 1004 64 946 1 867 1 c 2
 340 1 l 2
 253 1 185 63 185 137 c 2
 185 547 l 2
 185 625 248 683 321 683 c 2
 497 683 l 1
 497 465 l 1
 389 465 l 1
 389 587 l 1
 349 587 l 2
 317 587 295 549 295 505 c 2
 295 172 l 2
 295 132 329 96 377 96 c 2
 819 96 l 2
 853 96 895 129 895 192 c 2
 895 533 l 2
 895 564 870 587 841 587 c 2
 799 587 l 1
 799 513 l 2
 799 477 822 443 868 410 c 1
 868 315 l 1
 458 315 l 1
 458 410 l 1
 745 410 l 1
 708 447 690 478 690 505 c 2
 690 682 l 1
 853 682 l 2
EndSplineSet
EndChar

StartChar: aavowel
Encoding: 104 3206 104
Width: 1041
VWidth: 999
Flags: HW
LayerCount: 2
Fore
SplineSet
956 680 m 2
 1022 680 1074 627 1074 566 c 1
 1075 490 l 1
 1075 414 1021 353 952 353 c 2
 910 353 l 1
 938 322 952 300 952 285 c 2
 952 103 l 2
 952 44 896 -2 830 -2 c 1
 830 1 l 1
 316 1 l 2
 246 1 187 60 187 138 c 2
 187 548 l 2
 187 626 262 684 351 684 c 2
 488 684 l 1
 488 465 l 1
 379 465 l 1
 379 588 l 1
 356 588 l 2
 323 588 296 557 296 528 c 2
 296 173 l 2
 296 138 321 97 366 97 c 2
 775 97 l 2
 813 97 843 131 843 173 c 2
 843 288 l 2
 843 307 831 329 807 356 c 1
 528 356 l 1
 528 451 l 1
 774 451 l 1
 756 475 747 492 747 502 c 2
 747 585 l 2
 747 642 799 680 868 680 c 2
 956 680 l 2
929 449 m 2
 951 449 963 472 963 497 c 2
 963 544 l 2
 963 571 954 585 937 585 c 2
 896 585 l 2
 876 585 855 570 855 544 c 2
 855 511 l 2
 855 491 864 471 883 449 c 1
 929 449 l 2
EndSplineSet
EndChar

StartChar: ivowel
Encoding: 105 3207 105
Width: 785
VWidth: 999
Flags: HW
LayerCount: 2
Fore
SplineSet
728 133 m 2
 728 111 746 97 761 97 c 2
 810 97 l 1
 812 0 l 1
 744 0 l 2
 674 0 621 50 621 109 c 2
 621 177 l 1
 512 177 l 2
 450 177 403 217 403 266 c 2
 403 340 l 2
 403 376 445 408 503 408 c 2
 621 408 l 2
 659 408 690 381 702 349 c 1
 702 541 l 2
 702 570 673 586 640 586 c 2
 567 586 l 2
 527 586 498 558 498 532 c 2
 498 464 l 1
 390 464 l 1
 390 527 l 2
 390 557 364 587 322 587 c 2
 231 587 l 2
 198 587 171 561 171 533 c 2
 171 465 l 2
 171 431 196 411 218 411 c 2
 239 411 l 1
 239 316 l 1
 191 316 l 2
 119 316 62 374 62 446 c 2
 62 547 l 2
 62 627 133 683 205 683 c 2
 335 683 l 2
 386 683 431 656 442 615 c 1
 457 652 493 683 539 683 c 2
 662 683 l 2
 748 683 810 620 810 542 c 2
 810 370 l 2
 810 311 783 254 728 200 c 1
 728 133 l 2
511 297 m 0
 511 288 519 276 530 276 c 2
 619 275 l 1
 619 288 l 2
 619 307 610 316 592 316 c 2
 530 316 l 2
 520 316 511 308 511 297 c 0
EndSplineSet
EndChar

StartChar: iivowel
Encoding: 106 3208 106
Width: 1219
VWidth: 999
Flags: HW
LayerCount: 2
Fore
SplineSet
1133 627 m 2
 1199 627 1250 570 1250 505 c 2
 1251 404 l 2
 1251 350 1209 295 1140 268 c 1
 1195 206 1223 166 1223 147 c 2
 1223 79 l 2
 1223 38 1196 2 1160 2 c 2
 936 2 l 1
 936 97 l 1
 1079 97 l 2
 1100 97 1113 115 1113 133 c 2
 1113 138 l 2
 1113 155 1104 171 1085 186 c 1
 1019 260 l 1
 799 260 l 1
 799 132 l 2
 799 64 746 1 669 1 c 2
 326 1 l 2
 267 1 212 54 212 118 c 2
 212 260 l 1
 104 260 l 1
 104 355 l 1
 212 355 l 1
 212 445 l 2
 212 493 240 540 295 587 c 1
 199 587 l 1
 199 682 l 1
 691 682 l 2
 723 682 731 709 731 723 c 2
 731 778 l 1
 842 778 l 1
 842 723 l 2
 842 657 794 596 718 581 c 1
 741 566 799 522 799 472 c 2
 799 355 l 1
 941 355 l 1
 919 375 908 402 908 437 c 2
 908 513 l 2
 908 579 961 627 1018 627 c 2
 1133 627 l 2
1072 354 m 1
 1112 354 1138 386 1139 418 c 1
 1139 491 l 2
 1139 519 1121 531 1105 531 c 2
 1050 531 l 2
 1033 531 1018 517 1018 498 c 2
 1018 417 l 2
 1018 403 1022 393 1031 384 c 1
 1072 358 l 1
 1072 354 l 1
688 358 m 1
 688 481 l 2
 688 527 665 563 620 590 c 1
 408 590 l 1
 350 550 321 504 321 453 c 2
 321 358 l 1
 688 358 l 1
620 98 m 2
 658 98 688 132 689 174 c 1
 689 262 l 1
 321 262 l 1
 321 161 l 2
 321 130 344 98 375 98 c 2
 620 98 l 2
EndSplineSet
EndChar

StartChar: uvowel
Encoding: 107 3209 107
Width: 1462
VWidth: 999
Flags: HW
LayerCount: 2
Fore
SplineSet
1378 682 m 2
 1449 682 1495 623 1495 558 c 2
 1496 146 l 2
 1496 65 1434 1 1360 1 c 2
 1174 1 l 2
 1082 1 1020 73 1020 146 c 2
 1020 542 l 2
 1020 569 997 587 969 587 c 2
 792 587 l 2
 770 587 747 569 747 542 c 2
 747 138 l 2
 747 68 686 1 597 1 c 2
 351 1 l 2
 262 1 188 68 188 158 c 2
 188 533 l 2
 188 633 267 683 324 683 c 2
 528 683 l 1
 528 486 l 2
 528 414 476 355 411 355 c 2
 337 355 l 1
 337 450 l 1
 383 450 l 2
 406 450 419 467 419 485 c 2
 419 586 l 1
 351 586 l 2
 322 586 296 560 296 531 c 2
 296 157 l 2
 296 122 325 94 356 94 c 2
 588 94 l 2
 617 94 637 121 637 148 c 2
 637 540 l 2
 637 621 695 681 765 681 c 2
 983 681 l 2
 1069 681 1127 616 1127 546 c 2
 1127 157 l 2
 1127 121 1153 95 1181 95 c 2
 1336 95 l 2
 1365 95 1385 121 1385 149 c 2
 1385 532 l 2
 1385 556 1365 573 1337 573 c 2
 1317 573 l 1
 1317 682 l 1
 1378 682 l 2
EndSplineSet
EndChar

StartChar: uuvowel
Encoding: 108 3210 108
Width: 1752
VWidth: 999
Flags: HW
LayerCount: 2
Fore
SplineSet
1619 685 m 2
 1704 685 1782 621 1782 523 c 2
 1782 138 l 2
 1782 58 1725 0 1660 0 c 2
 1605 0 l 2
 1540 0 1484 52 1484 123 c 2
 1484 218 l 1
 1593 218 l 1
 1593 123 l 2
 1593 106 1607 96 1619 96 c 2
 1653 96 l 2
 1667 96 1673 114 1673 132 c 2
 1673 519 l 2
 1673 563 1644 587 1618 587 c 2
 1482 587 l 2
 1449 587 1415 565 1415 520 c 2
 1415 159 l 2
 1415 69 1351 1 1278 1 c 2
 1080 1 l 2
 1007 1 952 69 952 150 c 2
 952 533 l 2
 952 564 927 587 898 587 c 2
 761 587 l 2
 731 587 706 558 706 528 c 2
 706 164 l 2
 706 70 634 1 548 1 c 2
 366 1 l 2
 267 1 189 72 189 160 c 2
 189 543 l 2
 189 583 205 616 235 642 c 1
 265 670 300 684 343 684 c 2
 529 684 l 1
 529 506 l 2
 529 431 472 371 398 371 c 2
 352 371 l 1
 352 466 l 1
 383 466 l 2
 405 466 420 484 420 500 c 2
 420 588 l 1
 357 588 l 2
 324 588 297 562 297 534 c 2
 297 165 l 2
 297 129 327 97 371 97 c 2
 543 97 l 2
 571 97 598 125 598 165 c 2
 598 534 l 2
 598 622 673 684 752 684 c 2
 904 684 l 2
 1000 684 1062 608 1062 535 c 2
 1062 151 l 2
 1062 119 1085 98 1115 98 c 2
 1244 98 l 2
 1280 98 1307 130 1307 166 c 2
 1307 522 l 2
 1307 620 1384 685 1461 685 c 2
 1619 685 l 2
EndSplineSet
EndChar

StartChar: rvocalicvowel.part
Encoding: 110 -1 110
Width: 1001
VWidth: 999
Flags: HW
LayerCount: 2
Fore
SplineSet
964 628 m 1
 1021 597 1030 549 1030 521 c 2
 1027 146 l 1
 1027 64 981 0 927 0 c 2
 723 0 l 2
 659 0 613 33 586 77 c 1
 566 34 533 0 498 0 c 2
 265 0 l 2
 207 0 155 44 155 103 c 2
 155 286 l 1
 320 286 l 2
 387 286 441 245 441 186 c 2
 441 138 l 1
 332 138 l 1
 332 172 l 2
 332 185 324 192 307 192 c 2
 266 192 l 1
 266 137 l 2
 266 115 283 95 307 95 c 2
 456 95 l 2
 494 95 524 120 524 149 c 2
 524 546 l 2
 524 570 499 587 464 587 c 2
 320 587 l 2
 290 587 267 574 267 555 c 2
 267 480 l 1
 308 480 l 2
 331 480 347 496 347 520 c 2
 347 547 l 1
 456 547 l 1
 456 514 l 2
 456 443 404 383 342 383 c 2
 155 383 l 1
 155 575 l 2
 155 635 210 684 279 684 c 2
 499 684 l 2
 576 684 634 625 634 555 c 2
 634 178 l 1
 656 134 696 96 737 96 c 2
 866 96 l 2
 893 96 920 122 920 164 c 2
 920 506 l 2
 920 556 886 587 848 587 c 2
 703 587 l 1
 703 683 l 1
 861 683 l 2
 895 683 921 713 921 750 c 2
 921 805 l 1
 1030 805 l 1
 1030 736 l 2
 1030 710 1021 654 964 628 c 1
EndSplineSet
EndChar

StartChar: lvocalicvowel.part
Encoding: 112 -1 112
Width: 785
VWidth: 999
Flags: HW
LayerCount: 2
Fore
SplineSet
661 682 m 2
 747 682 809 619 809 541 c 2
 809 368 l 2
 809 339 797 304 771 265 c 1
 727 199 l 1
 720 189 715 182 712 177 c 0
 701 161 696 151 697 146 c 1
 697 124 714 110 731 110 c 0
 746 110 759 118 766 127 c 2
 863 265 l 1
 946 210 l 1
 829 54 l 1
 822 41 801 7 758 7 c 0
 729 7 676 22 642 53 c 0
 623 71 609 85 602 95 c 0
 592 110 587 128 587 148 c 0
 587 162 695 336 695 336 c 0
 702 355 709 388 709 440 c 0
 709 475 706 516 701 539 c 1
 701 568 672 585 639 585 c 2
 566 585 l 2
 526 585 497 557 497 531 c 2
 497 462 l 1
 389 462 l 1
 389 525 l 2
 389 555 363 585 321 585 c 2
 230 585 l 2
 197 585 170 559 170 531 c 2
 170 463 l 2
 170 429 194 409 216 409 c 2
 238 409 l 1
 238 314 l 1
 190 314 l 2
 118 314 61 372 61 444 c 2
 61 546 l 2
 61 626 132 682 204 682 c 2
 334 682 l 2
 385 682 430 654 441 613 c 1
 456 650 492 682 538 682 c 2
 661 682 l 2
EndSplineSet
EndChar

StartChar: evowel
Encoding: 113 3214 113
Width: 949
VWidth: 999
Flags: HW
LayerCount: 2
Fore
SplineSet
796 683 m 2
 891 683 978 611 978 513 c 2
 978 146 l 2
 978 66 925 0 856 0 c 2
 649 0 l 2
 594 0 556 34 556 68 c 1
 542 24 506 0 469 0 c 2
 311 0 l 2
 227 0 161 61 161 137 c 2
 161 410 l 1
 323 410 l 2
 387 410 434 327 447 247 c 1
 345 219 l 1
 339 269 307 315 269 315 c 1
 269 164 l 2
 269 127 298 96 338 96 c 2
 440 96 l 2
 471 96 500 120 500 164 c 2
 500 233 l 1
 611 233 l 1
 611 172 l 2
 611 130 647 96 687 96 c 2
 801 96 l 2
 840 96 869 128 869 172 c 2
 869 499 l 2
 869 551 832 587 783 587 c 2
 692 587 l 1
 692 683 l 1
 796 683 l 2
EndSplineSet
EndChar

StartChar: eevowel
Encoding: 114 3215 114
Width: 946
VWidth: 999
Flags: HW
LayerCount: 2
Fore
SplineSet
791 685 m 2
 895 685 977 611 977 516 c 2
 976 162 l 2
 976 131 966 63 891 20 c 1
 863 5 834 -2 805 -2 c 1
 805 1 l 1
 649 1 l 2
 602 1 568 35 556 78 c 1
 531 27 494 1 445 1 c 2
 324 1 l 2
 231 1 160 70 160 150 c 2
 160 411 l 1
 324 411 l 2
 342 411 358 403 375 389 c 1
 397 372 430 329 444 248 c 1
 341 221 l 1
 332 281 297 316 267 316 c 1
 267 165 l 2
 267 128 296 97 336 97 c 2
 438 97 l 2
 469 97 499 121 499 165 c 2
 499 234 l 1
 610 234 l 1
 610 173 l 2
 610 128 643 97 682 97 c 2
 799 97 l 2
 837 97 867 132 867 174 c 2
 867 501 l 2
 867 552 827 589 778 589 c 2
 676 589 l 1
 676 556 l 2
 676 507 625 467 559 467 c 2
 432 467 l 2
 358 467 296 520 296 589 c 2
 296 685 l 1
 404 685 l 1
 404 604 l 2
 404 579 428 561 444 561 c 2
 532 561 l 2
 548 561 568 581 568 612 c 2
 568 685 l 1
 791 685 l 2
EndSplineSet
EndChar

StartChar: aivowel
Encoding: 115 3216 115
Width: 1003
VWidth: 999
Flags: HW
LayerCount: 2
Fore
SplineSet
880 678 m 2
 974 678 1031 609 1031 542 c 2
 1031 147 l 2
 1031 67 965 -3 880 -3 c 1
 880 0 l 1
 726 0 l 2
 666 0 619 36 598 82 c 1
 572 36 530 -1 484 -1 c 2
 312 -1 l 2
 228 -1 161 61 161 137 c 2
 161 286 l 2
 161 374 229 437 311 437 c 2
 501 437 l 1
 501 294 l 2
 501 215 435 153 352 146 c 1
 324 241 l 1
 363 241 393 268 393 297 c 2
 393 338 l 1
 346 338 l 2
 302 338 270 309 270 278 c 2
 270 173 l 2
 270 129 301 91 338 91 c 2
 455 91 l 2
 500 91 543 130 543 173 c 2
 543 214 l 1
 653 214 l 1
 653 173 l 2
 653 132 687 91 733 91 c 2
 864 91 l 2
 899 91 924 132 924 172 c 2
 924 514 l 2
 924 550 900 582 864 582 c 2
 747 582 l 2
 717 582 692 556 692 523 c 2
 692 488 l 1
 583 488 l 1
 583 528 l 2
 583 559 548 582 501 582 c 2
 332 582 l 2
 302 582 272 556 257 514 c 1
 175 568 l 1
 201 636 257 677 312 677 c 2
 524 677 l 2
 582 677 622 647 639 605 c 1
 657 642 692 678 744 678 c 2
 880 678 l 2
EndSplineSet
EndChar

StartChar: ovowel
Encoding: 116 3218 116
Width: 918
VWidth: 999
Flags: HW
LayerCount: 2
Fore
SplineSet
944 117 m 0
 944 85 934.666992188 57.5 916 34.5 c 0
 897.333007812 11.5 874.333007812 0 847 0 c 0
 638 0 l 0
 617.333007812 0 598.833007812 6 582.5 18 c 0
 566.166992188 30 554.666992188 45 548 63 c 0
 544.666992188 45.6669921875 536 30.8330078125 522 18.5 c 0
 508 6.1669921875 492.333007812 0 475 0 c 0
 284 0 l 0
 248.666992188 0 217.833007812 10.6669921875 191.5 32 c 0
 165.166992188 53.3330078125 152 79 152 109 c 0
 152 259 l 0
 272 339 l 0
 324 373 358.166992188 397.166992188 374.5 411.5 c 0
 390.833007812 425.833007812 399 441.333007812 399 458 c 0
 399 545 l 0
 399 556.333007812 395.333007812 566.333007812 388 575 c 0
 380 582.333007812 370.333007812 586 359 586 c 0
 264 586 l 0
 264 531 l 0
 264 519.666992188 268 510.166992188 276 502.5 c 0
 284 494.833007812 293.666992188 491 305 491 c 0
 318 491 l 0
 318 395 l 0
 271 395 l 0
 239.666992188 395 212.166992188 408.666992188 188.5 436 c 0
 164.833007812 463.333007812 153 495 153 531 c 0
 153 681 l 0
 385 681 l 0
 407 681 427.666992188 676.666992188 447 668 c 0
 466.333007812 659.333007812 481.5 647 492.5 631 c 0
 503.5 615 509 598 509 580 c 0
 509 423 l 0
 509 407 500.333007812 390.666992188 483 374 c 0
 465.666992188 357.333007812 425.333007812 327.333007812 362 284 c 0
 265 218 l 0
 265 149 l 0
 265 134.333007812 270.166992188 121.666992188 280.5 111 c 0
 290.833007812 100.333007812 303.666992188 95 319 95 c 0
 441 95 l 0
 455.666992188 95 468.5 101.5 479.5 114.5 c 0
 490.5 127.5 496 142 496 158 c 0
 496 204 l 0
 605 204 l 0
 605 163 l 0
 605 145 611.5 129.166992188 624.5 115.5 c 0
 637.5 101.833007812 653.666992188 95 673 95 c 0
 782 95 l 0
 796.666992188 95 809.333007812 101.166992188 820 113.5 c 0
 830.666992188 125.833007812 836 140.666992188 836 158 c 0
 836 254 l 0
 836 267.333007812 831.666992188 278.333007812 823 287 c 0
 814.333007812 295.666992188 803.666992188 300 791 300 c 0
 755 300 l 0
 755 395 l 0
 849 395 l 0
 877 395 900.166992188 385.833007812 918.5 367.5 c 0
 936.833007812 349.166992188 946 326.666992188 946 300 c 0
 944 117 l 0
EndSplineSet
EndChar

StartChar: oovowel
Encoding: 117 3219 117
Width: 918
VWidth: 999
Flags: HW
LayerCount: 2
Fore
SplineSet
944 132 m 0
 944 109.333007812 939 87.5 929 66.5 c 0
 919 45.5 905.666992188 29.6669921875 889 19 c 0
 873 7 855 1 835 1 c 0
 639 1 l 0
 618.333007812 1 599.666992188 7 583 19 c 0
 566.333007812 31 555 45.6669921875 549 63 c 0
 541 45 529 30.1669921875 513 18.5 c 0
 497 6.8330078125 480 1 462 1 c 0
 284 1 l 0
 248.666992188 1 218 11.6669921875 192 33 c 0
 166 54.3330078125 153 79.6669921875 153 109 c 0
 153 260 l 0
 272 339 l 0
 324 373 358.333007812 397.333007812 375 412 c 0
 391.666992188 426.666992188 400 442 400 458 c 0
 400 532 l 0
 400 546.666992188 394.833007812 559.333007812 384.5 570 c 0
 374.166992188 580.666992188 361 586 345 586 c 0
 264 586 l 0
 264 531 l 0
 264 519.666992188 268 510.166992188 276 502.5 c 0
 284 494.833007812 293.666992188 491 305 491 c 0
 318 491 l 0
 318 395 l 0
 271 395 l 0
 239.666992188 395 212.166992188 408.666992188 188.5 436 c 0
 164.833007812 463.333007812 153 495 153 531 c 0
 153 681 l 0
 258 681 l 0
 187.333007812 724.333007812 152.333007812 759 153 785 c 0
 153 872 l 0
 153 894 163.666992188 913.166992188 185 929.5 c 0
 206.333007812 945.833007812 232.333007812 954 263 954 c 0
 385 954 l 0
 385 858 l 0
 298 858 l 0
 289.333007812 858 281 855.666992188 273 851 c 0
 266.333007812 845.666992188 263.333007812 839.333007812 264 832 c 0
 264 790 l 0
 264 762 300.333007812 726 373 682 c 0
 385 682 l 0
 407 682 427.5 677.5 446.5 668.5 c 0
 465.5 659.5 480.666992188 647.166992188 492 631.5 c 0
 503.333007812 615.833007812 509 599 509 581 c 0
 509 424 l 0
 509 408 500.333007812 391.666992188 483 375 c 0
 465.666992188 358.333007812 425 328 361 284 c 0
 264 219 l 0
 264 149 l 0
 264 134.333007812 269.333007812 121.833007812 280 111.5 c 0
 290.666992188 101.166992188 303.333007812 96 318 96 c 0
 441 96 l 0
 455.666992188 96 468.333007812 102.333007812 479 115 c 0
 489.666992188 127.666992188 495 142 495 158 c 0
 495 204 l 0
 604 204 l 0
 604 149 l 0
 604 134.333007812 610.5 121.833007812 623.5 111.5 c 0
 636.5 101.166992188 652.666992188 96 672 96 c 0
 781 96 l 0
 795.666992188 96 808.5 102.166992188 819.5 114.5 c 0
 830.5 126.833007812 836 141.333007812 836 158 c 0
 836 255 l 0
 836 268.333007812 831.5 279.333007812 822.5 288 c 0
 813.5 296.666992188 802.666992188 301 790 301 c 0
 754 301 l 0
 754 396 l 0
 836 396 l 0
 866.666992188 396 892.666992188 383.833007812 914 359.5 c 0
 935.333007812 335.166992188 946 306 946 272 c 0
 944 132 l 0
EndSplineSet
EndChar

StartChar: auvowel
Encoding: 118 3220 118
Width: 913
VWidth: 999
Flags: HW
LayerCount: 2
Fore
SplineSet
809 958 m 2
 896 958 967 901 967 830 c 2
 967 519 l 1
 672 519 l 2
 609 519 557 580 557 651 c 2
 557 765 l 1
 804 765 l 1
 804 670 l 1
 655 670 l 1
 655 651 l 2
 655 629 672 615 694 615 c 2
 858 615 l 1
 858 801 l 2
 858 837 828 861 796 861 c 2
 509 861 l 1
 524 852 531 842 531 830 c 2
 531 802 l 2
 531 757 498 727 468 727 c 2
 163 727 l 1
 163 821 l 1
 423 821 l 2
 440 821 448 837 448 847 c 0
 448 851 440 855 422 861 c 1
 162 861 l 1
 162 958 l 1
 809 958 l 2
847 396 m 2
 903 396 942 354 942 301 c 2
 941 119 l 2
 941 57 901 2 846 2 c 2
 632 2 l 2
 591 2 557 32 546 64 c 1
 532 29 500 2 469 2 c 2
 292 2 l 2
 215 2 150 65 150 139 c 2
 150 261 l 1
 268 340 l 1
 323 376 356 400 369 412 c 1
 386 427 395 442 395 458 c 2
 395 558 l 2
 395 577 381 586 354 586 c 2
 259 586 l 1
 259 532 l 2
 259 508 278 492 299 492 c 2
 326 492 l 1
 326 396 l 1
 265 396 l 2
 201 396 149 459 149 532 c 2
 149 682 l 1
 380 682 l 2
 451 682 503 638 503 582 c 2
 503 425 l 2
 503 393 467 363 443 345 c 1
 428 333 396 311 349 280 c 2
 259 220 l 1
 259 150 l 2
 259 122 281 97 314 97 c 2
 451 97 l 2
 477 97 491 130 491 160 c 2
 491 205 l 1
 601 205 l 1
 601 150 l 2
 601 122 624 97 655 97 c 2
 763 97 l 2
 802 97 832 126 832 160 c 2
 832 256 l 2
 832 291 801 301 784 301 c 2
 750 301 l 1
 750 396 l 1
 847 396 l 2
EndSplineSet
EndChar

StartChar: ka.base
Encoding: 120 -1 120
Width: 527
VWidth: 999
Flags: HW
AnchorPoint: "s" 144 -32 basechar 0
LayerCount: 2
Fore
SplineSet
287 1 m 2
 229 1 185 44 185 96 c 2
 185 219 l 2
 185 264 229 323 316 396 c 1
 102 396 l 1
 102 492 l 1
 362 492 l 1
 362 587 l 1
 102 587 l 1
 102 682 l 1
 555 682 l 1
 555 587 l 1
 471 587 l 1
 471 492 l 1
 718 492 l 1
 717 396 l 1
 520 396 l 1
 623 327 648 263 648 230 c 2
 648 126 l 2
 648 56 596 4 533 4 c 1
 533 1 l 1
 287 1 l 2
507 99 m 2
 528 99 539 129 540 152 c 1
 540 215 l 2
 540 275 474 334 417 366 c 1
 345 325 294 277 294 224 c 2
 294 149 l 2
 294 121 316 102 335 102 c 1
 335 99 l 1
 507 99 l 2
EndSplineSet
EndChar

StartChar: ka.imathra
Encoding: 121 -1 121
Width: 620
VWidth: 999
Flags: HW
AnchorPoint: "s" 140 -41 basechar 0
LayerCount: 2
Fore
SplineSet
486 861 m 2
 542 861 581 818 581 766 c 2
 581 582 l 1
 507 493 l 1
 650 493 l 1
 651 396 l 1
 499 396 l 1
 610 321 637 250 637 213 c 2
 637 96 l 2
 637 42 595 2 543 2 c 2
 282 2 l 2
 222 2 173 45 173 97 c 2
 173 228 l 2
 173 259 200 286 241 327 c 2
 309 396 l 1
 146 396 l 1
 146 492 l 1
 390 492 l 1
 472 596 l 1
 472 746 l 2
 472 759 468 765 459 765 c 2
 390 765 l 1
 390 704 l 2
 390 696 400 683 418 683 c 2
 431 683 l 1
 431 588 l 1
 376 588 l 2
 322 588 281 628 281 670 c 2
 281 861 l 1
 486 861 l 2
498 97 m 2
 510 97 525 106 527 138 c 1
 527 219 l 2
 527 248 485 297 403 365 c 1
 321 294 280 244 280 214 c 2
 280 124 l 2
 280 110 299 97 316 97 c 2
 498 97 l 2
EndSplineSet
LCarets2: 1 0
EndChar

StartChar: ka.sub
Encoding: 122 -1 122
Width: 163
VWidth: 999
Flags: HW
AnchorPoint: "Sub" -153 266 mark 0
AnchorPoint: "Sub" 291 -401 basemark 0
LayerCount: 2
Fore
SplineSet
18 -411 m 1
 -45 -408 -100 -365 -100 -306 c 2
 -100 -260 l 2
 -100 -226 -75 -187 -24 -143 c 1
 -161 -143 l 1
 -161 -61 l 1
 50 -61 l 1
 57 -52 67 -41 79 -28 c 130
 162 65 l 1
 169 76 172 85 172 94 c 2
 172 225 l 2
 172 247 155 267 118 282 c 1
 180 337 l 1
 238 297 267 263 267 236 c 2
 267 78 l 2
 267 65 259 49 245 32 c 1
 213 -4 l 1
 153 -64 l 1
 331 -64 l 1
 330 -146 l 1
 207 -146 l 1
 256 -179 281 -210 281 -241 c 2
 281 -321 l 2
 281 -369 234 -411 172 -411 c 2
 18 -411 l 1
155 -337 m 2
 175 -337 188 -319 187 -291 c 1
 187 -243 l 2
 187 -205 143 -167 88 -148 c 1
 28 -165 -3 -213 -3 -256 c 2
 -3 -296 l 2
 -3 -324 24 -337 46 -337 c 2
 155 -337 l 2
EndSplineSet
LCarets2: 1 0
EndChar

StartChar: ka_rvocalicmatra.sub
Encoding: 123 -1 123
Width: 324
VWidth: 999
Flags: HW
LayerCount: 2
Fore
SplineSet
578 136 m 1
 616 118 655 79 655 27 c 2
 654 -276 l 2
 654 -350 604 -412 537 -412 c 2
 148 -410 l 2
 89 -410 39 -365 39 -306 c 2
 39 -123 l 1
 190 -123 l 1
 112 -93 94 -57 94 -41 c 2
 94 54 l 2
 94 84 117 116 163 149 c 1
 54 149 l 1
 54 232 l 1
 245 232 l 1
 245 341 l 1
 354 341 l 1
 354 232 l 1
 545 232 l 1
 545 149 l 1
 401 149 l 1
 457 131 491 92 491 54 c 2
 491 -6 l 2
 491 -67 441 -122 374 -122 c 2
 286 -122 l 1
 286 -203 l 1
 137 -203 l 1
 137 -291 l 2
 137 -312 158 -325 182 -325 c 2
 510 -325 l 2
 531 -325 545 -288 545 -251 c 2
 545 24 l 2
 545 43 534 57 510 67 c 1
 578 136 l 1
368 -42 m 2
 384 -42 395 -19 395 8 c 2
 395 54 l 2
 395 91 373 128 326 147 c 1
 251 147 l 1
 226 131 192 99 192 59 c 2
 192 -10 l 2
 192 -28 210 -45 231 -45 c 1
 231 -42 l 1
 368 -42 l 2
EndSplineSet
EndChar

StartChar: kha
Encoding: 124 3222 124
Width: 934
VWidth: 999
Flags: HW
LayerCount: 2
Fore
SplineSet
850 680 m 2
 909 680 960 631 960 571 c 2
 960 106 l 2
 960 53 932 -3 888 -3 c 2
 742 -3 l 2
 717 -3 690 9 661 32 c 1
 579 89 l 1
 566 40 519 -2 456 -2 c 2
 233 -2 l 1
 233 1 l 1
 172 1 129 38 129 78 c 2
 129 213 l 2
 129 262 170 301 219 301 c 2
 415 301 l 2
 447 301 470 292 484 273 c 1
 484 533 l 2
 484 563 470 587 451 587 c 2
 327 587 l 2
 323 587 307 580 307 542 c 2
 307 438 l 1
 198 438 l 1
 198 582 l 2
 198 640 244 683 307 683 c 2
 478 683 l 2
 538 683 592 627 592 554 c 2
 592 202 l 1
 687 120 l 2
 709 101 732 92 755 92 c 2
 818 92 l 2
 837 92 849 119 849 147 c 2
 849 544 l 2
 849 569 831 585 804 585 c 2
 687 585 l 1
 687 680 l 1
 850 680 l 2
436 93 m 2
 457 93 481 113 482 135 c 1
 482 170 l 1
 462 192 435 203 400 203 c 2
 277 203 l 2
 259 203 236 195 236 184 c 2
 236 121 l 1
 237 106 252 93 270 93 c 2
 436 93 l 2
EndSplineSet
LCarets2: 1 0
EndChar

StartChar: kha.base
Encoding: 125 -1 125
Width: 772
VWidth: 999
Flags: HW
LayerCount: 2
Fore
SplineSet
801 678 m 1
 898 662 963 572 963 469 c 2
 963 106 l 2
 963 46 930 -3 890 -3 c 1
 887 0 l 1
 742 0 l 2
 717 0 690 12 661 35 c 1
 586 82 l 1
 577 40 531 0 458 0 c 2
 235 0 l 2
 175 0 131 35 131 77 c 2
 131 212 l 2
 131 261 172 300 225 300 c 2
 417 300 l 2
 447 300 469 291 484 272 c 1
 484 546 l 2
 484 569 471 587 452 587 c 2
 342 587 l 2
 321 587 308 567 308 541 c 2
 308 437 l 1
 198 437 l 1
 198 581 l 2
 198 634 243 682 307 682 c 2
 480 682 l 2
 541 682 593 626 593 553 c 2
 593 201 l 1
 688 134 l 1
 719 106 742 91 757 91 c 2
 834 91 l 2
 846 91 852 98 852 113 c 2
 852 469 l 2
 852 536 798 583 737 583 c 2
 688 583 l 1
 688 678 l 1
 801 678 l 1
437 91 m 2
 456 91 482 107 484 134 c 1
 484 160 l 1
 453 187 419 201 382 201 c 2
 265 201 l 2
 254 201 238 193 238 182 c 2
 238 119 l 1
 239 105 254 91 273 91 c 2
 437 91 l 2
EndSplineSet
EndChar

StartChar: kha.imathra
Encoding: 126 -1 126
Width: 934
VWidth: 999
Flags: HW
LayerCount: 2
Fore
SplineSet
861 775 m 2
 918 775 963 725 963 661 c 2
 963 106 l 2
 963 46 930 -3 890 -3 c 1
 887 0 l 1
 742 0 l 2
 717 0 690 12 661 35 c 1
 578 90 l 1
 564 40 525 0 467 0 c 2
 235 0 l 2
 175 0 131 35 131 77 c 2
 131 212 l 2
 131 261 172 300 225 300 c 2
 417 300 l 2
 437 300 459 286 485 259 c 1
 485 532 l 2
 485 562 465 586 439 586 c 2
 343 586 l 2
 322 586 308 567 308 541 c 2
 308 437 l 1
 199 437 l 1
 199 581 l 2
 199 634 244 682 308 682 c 2
 480 682 l 2
 541 682 594 626 594 553 c 2
 594 201 l 1
 675 133 l 1
 714 105 751 91 785 91 c 2
 819 91 l 2
 839 91 852 107 852 127 c 2
 852 632 l 2
 852 656 842 678 820 678 c 2
 785 678 l 1
 773 677 758 672 758 661 c 2
 758 639 l 2
 758 611 774 598 785 598 c 2
 825 598 l 1
 825 501 l 1
 737 501 l 2
 690 501 648 544 648 598 c 2
 648 693 l 2
 648 741 697 775 752 775 c 2
 861 775 l 2
437 91 m 2
 455 91 482 106 484 133 c 1
 484 154 l 1
 447 185 415 201 388 201 c 2
 273 201 l 2
 257 201 238 193 238 182 c 2
 238 127 l 2
 238 106 250 91 260 91 c 2
 437 91 l 2
EndSplineSet
LCarets2: 1 0
EndChar

StartChar: kha.sub
Encoding: 127 -1 127
Width: 155
VWidth: 999
Flags: HW
AnchorPoint: "Sub" -299 258 mark 0
AnchorPoint: "Sub" 306 -414 basemark 0
LayerCount: 2
Fore
SplineSet
158 328 m 2
 240 328 308 274 308 201 c 2
 307 -238 l 2
 307 -317 247 -382 170 -382 c 2
 103 -382 l 2
 93 -382 67 -374 27 -361 c 1
 -16 -393 -50 -410 -76 -410 c 2
 -219 -410 l 2
 -265 -410 -310 -376 -310 -333 c 2
 -310 -273 l 2
 -310 -225 -272 -184 -219 -184 c 2
 -110 -184 l 2
 -100 -184 -91 -187 -84 -192 c 2
 -18 -237 l 1
 -18 -155 l 2
 -18 -121 -38 -96 -66 -96 c 2
 -80 -96 l 1
 -80 -149 l 1
 -175 -149 l 1
 -175 -20 l 1
 -44 -20 l 2
 26 -20 80 -78 80 -155 c 2
 80 -292 l 1
 96 -301 108 -306 116 -306 c 2
 171 -306 l 2
 195 -306 211 -277 211 -232 c 2
 211 193 l 2
 211 220 185 242 149 242 c 2
 94 242 l 1
 94 328 l 1
 158 328 l 2
-219 -319 m 2
 -219 -325 -206 -331 -198 -331 c 2
 -88 -331 l 1
 -80 -330 -67 -324 -48 -314 c 1
 -66 -297 -101 -272 -138 -272 c 2
 -198 -272 l 2
 -212 -272 -219 -277 -219 -286 c 2
 -219 -319 l 2
EndSplineSet
LCarets2: 1 0
EndChar

StartChar: ga.base
Encoding: 129 -1 129
Width: 549
VWidth: 999
Flags: HW
LayerCount: 2
Fore
SplineSet
578 683 m 1
 678 658 742 576 742 487 c 2
 741 0 l 1
 631 0 l 1
 631 487 l 2
 631 542 582 587 517 587 c 2
 413 587 l 2
 351 587 306 544 306 487 c 2
 306 1 l 1
 196 1 l 1
 196 493 l 2
 196 529 215 561 251 588 c 1
 196 588 l 1
 196 683 l 1
 578 683 l 1
EndSplineSet
EndChar

StartChar: ga.imathra
Encoding: 130 -1 130
Width: 729
VWidth: 999
Flags: HW
LayerCount: 2
Fore
SplineSet
482 888 m 2
 629 888 754 751 754 574 c 2
 755 0 l 1
 645 0 l 1
 645 487 l 2
 645 546 612 587 563 587 c 2
 385 587 l 2
 338 587 306 545 306 493 c 2
 306 1 l 1
 196 1 l 1
 196 487 l 2
 196 556 232 611 277 636 c 1
 235 649 196 682 196 731 c 2
 196 800 l 2
 196 852 245 888 298 888 c 2
 482 888 l 2
306 732 m 2
 306 710 315 687 332 684 c 1
 564 684 l 2
 593 684 621 667 645 636 c 1
 630 724 553 791 450 791 c 2
 354 791 l 2
 322 791 306 782 306 765 c 2
 306 732 l 2
EndSplineSet
LCarets2: 1 0
EndChar

StartChar: ga.sub
Encoding: 131 -1 131
Width: 95
VWidth: 999
Flags: HW
AnchorPoint: "Sub" -193 -56 mark 0
AnchorPoint: "Sub" 193 -420 basemark 0
LayerCount: 2
Fore
SplineSet
57 -55 m 2
 136 -55 194 -108 194 -177 c 2
 195 -410 l 1
 98 -410 l 1
 98 -192 l 2
 98 -162 77 -138 44 -138 c 2
 -38 -138 l 2
 -67 -138 -92 -158 -92 -192 c 2
 -92 -410 l 1
 -189 -410 l 1
 -189 -192 l 2
 -189 -115 -131 -55 -60 -55 c 2
 57 -55 l 2
EndSplineSet
LCarets2: 1 0
EndChar

StartChar: gha.base
Encoding: 133 -1 133
Width: 970
VWidth: 999
Flags: HW
LayerCount: 2
Fore
SplineSet
805 473 m 2
 805 537 749 588 677 588 c 2
 164 588 l 1
 164 684 l 1
 1175 684 l 1
 1173 588 l 1
 859 588 l 1
 910 556 914 509 914 488 c 1
 945 437 975 411 1004 411 c 0
 1032 411 1049 430 1049 451 c 2
 1049 547 l 1
 1158 547 l 1
 1158 465 l 2
 1158 392 1116 317 1049 317 c 2
 995 317 l 2
 965 317 938 330 914 357 c 1
 914 139 l 2
 914 60 862 2 804 2 c 2
 641 2 l 2
 585 2 547 49 532 97 c 1
 512 38 472 2 432 2 c 2
 259 2 l 2
 209 2 164 53 164 119 c 2
 164 412 l 1
 315 412 l 2
 383 412 438 360 438 289 c 2
 438 263 l 1
 327 263 l 1
 327 283 l 2
 327 304 313 317 295 317 c 2
 273 317 l 1
 273 148 l 2
 273 121 289 98 309 98 c 2
 418 98 l 2
 450 98 478 143 478 201 c 2
 478 274 l 1
 587 274 l 1
 587 201 l 2
 587 155 627 97 656 97 c 2
 764 97 l 2
 789 97 805 118 805 147 c 2
 805 473 l 2
587 411 m 1
 478 411 l 1
 478 520 l 1
 587 520 l 1
 587 411 l 1
587 -142 m 1
 478 -142 l 1
 478 -6 l 1
 587 -6 l 1
 587 -142 l 1
EndSplineSet
EndChar

StartChar: gha.imathra
Encoding: 134 -1 134
Width: 1156
VWidth: 999
Flags: HW
LayerCount: 2
Fore
SplineSet
507 888 m 2
 550 888 588 850 588 792 c 2
 588 602 l 2
 588 539 550 493 494 493 c 2
 316 493 l 1
 316 588 l 1
 452 588 l 2
 468 588 480 609 480 628 c 2
 480 746 l 2
 480 779 463 791 452 791 c 2
 402 791 l 2
 389 791 383 785 383 773 c 2
 383 745 l 1
 384 734 391 724 402 724 c 2
 452 724 l 1
 452 628 l 1
 363 628 l 2
 315 628 274 669 274 711 c 2
 274 787 l 2
 274 848 325 888 376 888 c 2
 507 888 l 2
1050 437 m 2
 1061 437 1078 449 1078 491 c 2
 1078 682 l 1
 1187 682 l 1
 1187 465 l 2
 1187 393 1145 342 1092 342 c 2
 996 342 l 2
 967 342 941 355 915 382 c 1
 915 138 l 2
 915 60 864 3 808 1 c 1
 644 1 l 2
 592 1 549 38 535 83 c 1
 521 39 483 1 433 1 c 2
 264 1 l 2
 210 1 167 50 167 104 c 2
 167 411 l 1
 318 411 l 2
 385 411 441 362 441 302 c 2
 441 262 l 1
 331 262 l 1
 331 296 l 2
 331 308 317 316 297 316 c 2
 278 316 l 1
 278 147 l 2
 278 115 297 97 310 97 c 2
 419 97 l 2
 457 97 482 150 482 200 c 2
 482 273 l 1
 590 273 l 1
 590 200 l 2
 590 154 630 96 659 96 c 2
 769 96 l 2
 788 96 808 115 808 146 c 2
 808 533 l 2
 808 561 786 587 754 587 c 2
 677 587 l 1
 677 682 l 1
 787 682 l 2
 860 682 917 608 917 518 c 1
 952 463 980 437 1002 437 c 2
 1050 437 l 2
588 -166 m 1
 480 -166 l 1
 480 -31 l 1
 588 -31 l 1
 588 -166 l 1
EndSplineSet
LCarets2: 1 0
EndChar

StartChar: gha.sub
Encoding: 135 -1 135
Width: 199
VWidth: 999
Flags: HW
AnchorPoint: "Sub" -400 151 mark 0
AnchorPoint: "Sub" 333 -393 basemark 0
LayerCount: 2
Fore
SplineSet
311 164 m 1
 362 131 400 95 400 55 c 2
 399 -32 l 1
 399 -81 376 -120 330 -149 c 1
 330 -237 l 2
 330 -296 293 -345 236 -345 c 2
 91 -345 l 2
 36 -345 -6 -301 -24 -263 c 1
 -55 -317 -102 -354 -154 -354 c 2
 -296 -354 l 2
 -349 -354 -391 -311 -391 -263 c 2
 -391 -168 l 2
 -391 -107 -345 -68 -296 -68 c 2
 -160 -68 l 1
 -160 -149 l 1
 -262 -149 l 2
 -279 -149 -295 -163 -295 -183 c 2
 -295 -245 l 2
 -295 -258 -281 -272 -268 -272 c 2
 -145 -272 l 2
 -116 -272 -73 -217 -73 -177 c 2
 -73 -137 l 1
 24 -137 l 1
 24 -183 l 2
 24 -218 65 -258 100 -258 c 2
 214 -258 l 2
 228 -258 236 -249 236 -231 c 2
 236 -176 l 1
 128 -176 l 1
 128 -94 l 1
 251 -94 l 2
 279 -94 306 -66 306 -27 c 2
 306 50 l 2
 306 60 289 75 256 96 c 1
 311 164 l 1
23 -410 m 1
 -74 -410 l 1
 -74 -347 l 1
 -24 -287 l 1
 23 -347 l 1
 23 -410 l 1
EndSplineSet
LCarets2: 1 0
EndChar

StartChar: nga
Encoding: 136 3225 136
Width: 872
VWidth: 999
Flags: HW
LayerCount: 2
Fore
SplineSet
805 396 m 2
 857 396 902 354 902 295 c 2
 903 109 l 2
 903 52 861 1 807 1 c 2
 615 1 l 2
 578 1 538 25 521 77 c 1
 511 37 484 -1 440 -1 c 2
 257 -1 l 2
 198 -1 152 43 152 95 c 2
 152 240 l 1
 352 409 l 1
 365 417 371 435 371 463 c 2
 371 545 l 2
 371 565 350 585 317 585 c 2
 263 585 l 1
 263 545 l 2
 263 523 275 504 289 504 c 2
 303 504 l 1
 303 409 l 1
 235 409 l 2
 193 409 151 454 151 513 c 2
 151 682 l 1
 338 682 l 2
 399 682 449 654 460 609 c 1
 503 658 549 682 597 682 c 2
 801 682 l 2
 845 682 874 646 874 602 c 2
 874 519 l 1
 765 519 l 1
 765 554 l 2
 765 566 759 587 732 587 c 2
 628 587 l 2
 563 587 500 552 465 492 c 1
 465 432 l 2
 465 388 452 356 425 336 c 1
 261 186 l 1
 261 133 l 2
 261 112 282 97 310 97 c 2
 397 97 l 2
 435 97 465 121 465 150 c 2
 465 205 l 1
 574 205 l 1
 574 150 l 2
 574 124 602 97 642 97 c 2
 765 97 l 2
 781 97 791 108 791 124 c 2
 791 260 l 2
 791 287 785 301 773 301 c 2
 696 301 l 1
 696 396 l 1
 805 396 l 2
573 260 m 1
 463 260 l 1
 463 370 l 1
 573 370 l 1
 573 260 l 1
EndSplineSet
LCarets2: 1 0
EndChar

StartChar: nga.sub
Encoding: 137 -1 137
Width: 185
VWidth: 999
Flags: HW
AnchorPoint: "Sub" -385 -28 mark 0
AnchorPoint: "Sub" 375 -400 basemark 0
LayerCount: 2
Fore
SplineSet
63 -219 m 1
 -32 -219 l 1
 -32 -149 l 1
 63 -149 l 1
 63 -219 l 1
249 -332 m 2
 267 -332 281 -317 281 -301 c 2
 281 -233 l 1
 372 -233 l 1
 372 -320 l 2
 372 -370 333 -410 289 -410 c 2
 98 -410 l 2
 63 -410 29 -384 18 -347 c 1
 8 -381 -27 -410 -65 -410 c 2
 -269 -410 l 2
 -319 -410 -365 -372 -365 -327 c 2
 -365 -252 l 2
 -365 -208 -322 -178 -282 -178 c 2
 -214 -178 l 2
 -205 -178 -201 -173 -201 -164 c 2
 -201 -138 l 2
 -201 -128 -205 -124 -214 -124 c 2
 -351 -124 l 1
 -351 -42 l 1
 -173 -42 l 2
 -140 -42 -116 -61 -113 -89 c 1
 -97 -58 -71 -42 -37 -42 c 2
 127 -42 l 2
 187 -42 222 -80 222 -123 c 2
 222 -178 l 1
 127 -178 l 1
 127 -138 l 2
 127 -123 115 -115 91 -115 c 2
 -19 -115 l 2
 -54 -115 -88 -142 -105 -184 c 1
 -105 -219 l 2
 -105 -241 -130 -260 -168 -260 c 2
 -242 -260 l 2
 -259 -260 -268 -267 -268 -279 c 2
 -268 -306 l 2
 -268 -317 -256 -326 -243 -326 c 2
 -87 -326 l 2
 -57 -326 -31 -309 -31 -286 c 2
 -31 -246 l 1
 64 -246 l 1
 64 -279 l 2
 64 -310 90 -332 118 -332 c 2
 249 -332 l 2
EndSplineSet
LCarets2: 1 0
EndChar

StartChar: ca.base
Encoding: 139 -1 139
Width: 779
VWidth: 999
Flags: HW
LayerCount: 2
Fore
SplineSet
784 282 m 2
 784 317 758 342 729 342 c 2
 593 342 l 1
 593 438 l 1
 761 438 l 1
 761 588 l 1
 593 588 l 1
 593 683 l 1
 810 683 l 1
 871 588 l 1
 871 438 l 1
 975 438 l 1
 974 341 l 1
 864 341 l 1
 882 326 892 308 892 287 c 2
 892 110 l 2
 892 50 846 1 788 1 c 2
 592 1 l 2
 555 1 523 26 518 55 c 1
 510 25 475 1 434 1 c 2
 265 1 l 2
 207 1 155 53 155 118 c 2
 155 268 l 1
 361 404 l 1
 361 542 l 2
 361 569 339 588 312 588 c 2
 266 588 l 1
 266 542 l 2
 266 524 278 506 297 506 c 2
 320 506 l 1
 320 411 l 1
 244 411 l 2
 193 411 155 458 155 506 c 2
 155 683 l 1
 368 683 l 2
 425 683 470 634 470 569 c 2
 470 351 l 1
 266 205 l 1
 266 150 l 2
 266 122 282 97 307 97 c 2
 422 97 l 2
 448 97 469 117 469 139 c 2
 469 205 l 1
 578 205 l 1
 578 150 l 2
 578 117 601 97 618 97 c 2
 733 97 l 2
 766 97 784 118 784 138 c 2
 784 282 l 2
EndSplineSet
EndChar

StartChar: ca.imathra
Encoding: 140 -1 140
Width: 949
VWidth: 999
Flags: HW
LayerCount: 2
Fore
SplineSet
806 781 m 2
 856 781 896 738 896 679 c 2
 896 508 l 2
 896 480 887 457 868 440 c 1
 978 440 l 1
 978 341 l 1
 869 341 l 1
 888 326 897 308 897 287 c 2
 897 110 l 2
 897 47 862 1 820 1 c 2
 597 1 l 2
 560 1 528 26 523 54 c 1
 520 26 483 1 439 1 c 2
 257 1 l 2
 204 1 161 43 161 90 c 2
 161 281 l 1
 367 404 l 1
 367 542 l 2
 367 573 339 588 318 588 c 2
 270 588 l 1
 270 542 l 2
 270 522 284 506 304 506 c 2
 339 506 l 1
 339 411 l 1
 249 411 l 2
 201 411 162 450 162 494 c 2
 162 684 l 1
 381 684 l 2
 438 684 475 633 475 575 c 2
 475 352 l 1
 270 221 l 1
 270 140 l 2
 270 115 293 98 311 98 c 2
 412 98 l 2
 446 98 474 115 474 140 c 2
 474 235 l 1
 583 235 l 1
 583 152 l 2
 583 123 602 99 624 99 c 2
 751 99 l 2
 771 99 787 117 787 140 c 2
 787 284 l 2
 787 307 773 336 738 343 c 1
 597 343 l 1
 597 439 l 1
 746 439 l 1
 773 454 787 472 787 494 c 2
 787 672 l 2
 787 681 775 685 751 685 c 2
 711 685 l 1
 707 684 705 674 705 654 c 2
 705 631 l 2
 705 618 722 605 737 605 c 2
 773 605 l 1
 773 509 l 1
 676 509 l 2
 635 509 597 544 597 590 c 2
 597 699 l 2
 597 747 635 781 677 781 c 2
 806 781 l 2
EndSplineSet
LCarets2: 1 0
EndChar

StartChar: ca.sub
Encoding: 141 -1 141
Width: 185
VWidth: 999
Flags: HW
AnchorPoint: "Sub" -367 192 mark 0
AnchorPoint: "Sub" 326 -400 basemark 0
LayerCount: 2
Fore
SplineSet
235 -201 m 2
 235 -170 210 -147 181 -147 c 2
 59 -147 l 1
 59 -66 l 1
 141 -66 l 1
 186 -22 208 17 208 51 c 2
 208 235 l 1
 305 235 l 1
 305 51 l 2
 305 12 287 -27 250 -66 c 1
 373 -66 l 1
 372 -149 l 1
 295 -149 l 1
 318 -164 330 -188 330 -221 c 2
 330 -317 l 2
 330 -366 296 -406 250 -406 c 2
 113 -406 l 2
 57 -406 13 -373 5 -329 c 1
 -11 -373 -50 -406 -104 -406 c 2
 -262 -406 l 1
 -262 -409 l 1
 -317 -409 -364 -379 -364 -340 c 2
 -364 -251 l 2
 -364 -208 -329 -176 -291 -176 c 2
 -222 -176 l 2
 -199 -176 -188 -163 -188 -155 c 2
 -188 -137 l 2
 -188 -127 -196 -122 -214 -122 c 2
 -351 -122 l 1
 -351 -40 l 1
 -182 -40 l 2
 -131 -40 -91 -66 -91 -100 c 2
 -91 -191 l 2
 -91 -234 -131 -271 -182 -271 c 2
 -242 -271 l 2
 -255 -271 -268 -280 -268 -291 c 2
 -268 -304 l 2
 -268 -315 -255 -324 -242 -324 c 2
 -119 -324 l 2
 -80 -324 -45 -292 -45 -249 c 2
 -45 -201 l 1
 50 -201 l 1
 50 -257 l 2
 50 -293 91 -324 113 -324 c 2
 200 -324 l 2
 220 -324 235 -305 235 -283 c 2
 235 -201 l 2
EndSplineSet
LCarets2: 1 0
EndChar

StartChar: cha.base
Encoding: 143 -1 143
Width: 694
VWidth: 999
Flags: HW
LayerCount: 2
Fore
SplineSet
734 679 m 1
 823 668 886 601 886 532 c 2
 887 117 l 2
 887 52 835 0 777 0 c 2
 641 0 l 2
 595 0 555 29 545 68 c 1
 533 25 495 0 459 0 c 2
 309 0 l 2
 246 0 193 49 193 109 c 2
 193 554 l 2
 193 628 254 682 310 682 c 2
 505 682 l 1
 505 505 l 2
 505 436 462 396 419 396 c 2
 343 396 l 1
 343 492 l 1
 370 492 l 2
 387 492 397 513 397 532 c 2
 397 586 l 1
 351 586 l 2
 324 586 301 566 301 541 c 2
 301 145 l 2
 301 118 320 96 342 96 c 2
 432 96 l 2
 465 96 491 121 491 149 c 2
 491 218 l 1
 601 218 l 1
 601 149 l 2
 601 121 624 95 655 95 c 2
 735 95 l 2
 762 95 777 125 777 149 c 2
 777 532 l 2
 777 558 758 575 722 584 c 1
 585 584 l 1
 585 679 l 1
 734 679 l 1
599 -165 m 1
 489 -165 l 1
 489 -30 l 1
 599 -30 l 1
 599 -165 l 1
EndSplineSet
EndChar

StartChar: cha.imathra
Encoding: 144 -1 144
Width: 858
VWidth: 999
Flags: HW
LayerCount: 2
Fore
SplineSet
786 792 m 2
 840 792 887 738 887 665 c 2
 887 117 l 2
 887 54 846 0 790 0 c 2
 641 0 l 2
 595 0 556 29 546 68 c 1
 533 32 503 0 459 0 c 2
 309 0 l 2
 246 0 193 49 193 109 c 2
 193 554 l 2
 193 628 254 682 310 682 c 2
 505 682 l 1
 505 505 l 2
 505 436 462 396 419 396 c 2
 343 396 l 1
 343 492 l 1
 370 492 l 2
 387 492 397 506 397 518 c 2
 397 586 l 1
 351 586 l 2
 324 586 301 566 301 541 c 2
 301 145 l 2
 301 116 325 95 351 95 c 2
 433 95 l 2
 466 95 492 120 492 148 c 2
 492 218 l 1
 601 218 l 1
 601 148 l 2
 601 120 624 95 655 95 c 2
 736 95 l 2
 763 95 777 124 777 148 c 2
 777 650 l 2
 777 674 764 696 744 696 c 2
 703 696 l 2
 683 696 669 681 669 664 c 2
 669 623 l 2
 669 602 686 588 703 588 c 2
 736 588 l 1
 736 493 l 1
 669 493 l 2
 609 493 558 541 558 597 c 2
 558 691 l 2
 558 749 602 792 655 792 c 2
 786 792 l 2
600 -164 m 1
 491 -164 l 1
 491 -28 l 1
 600 -28 l 1
 600 -164 l 1
EndSplineSet
LCarets2: 1 0
EndChar

StartChar: cha.sub
Encoding: 145 -1 145
Width: 149
VWidth: 999
Flags: HW
AnchorPoint: "Sub" -308 193 mark 0
AnchorPoint: "Sub" 306 -419 basemark 0
LayerCount: 2
Fore
SplineSet
153 201 m 1
 249 181 307 83 307 -24 c 2
 307 -235 l 2
 307 -314 273 -377 230 -377 c 2
 110 -377 l 2
 60 -377 26 -348 16 -310 c 1
 5 -348 -25 -378 -70 -378 c 2
 -205 -378 l 1
 -211 -375 l 1
 -256 -375 -299 -331 -299 -274 c 2
 -299 -165 l 2
 -299 -110 -261 -62 -205 -62 c 2
 -90 -62 l 1
 -90 -157 l 1
 -178 -157 l 2
 -194 -157 -205 -174 -205 -193 c 2
 -205 -253 l 2
 -205 -274 -189 -287 -178 -287 c 2
 -81 -287 l 2
 -50 -287 -33 -254 -33 -219 c 2
 -33 -184 l 1
 56 -184 l 1
 56 -224 l 2
 56 -261 81 -287 105 -287 c 2
 173 -287 l 2
 200 -287 222 -265 222 -233 c 2
 222 -20 l 2
 222 49 185 107 122 119 c 1
 153 201 l 1
62 -443 m 1
 -35 -443 l 1
 -35 -397 l 1
 14 -337 l 1
 62 -397 l 1
 62 -443 l 1
EndSplineSet
LCarets2: 1 0
EndChar

StartChar: ja
Encoding: 146 3228 146
Width: 883
VWidth: 999
Flags: HW
LayerCount: 2
Fore
SplineSet
826 384 m 2
 873 384 912 333 912 270 c 2
 914 109 l 2
 914 54 875 1 818 1 c 2
 608 1 l 2
 570 1 542 31 532 64 c 1
 527 29 499 1 463 1 c 2
 254 1 l 2
 194 1 149 45 149 96 c 2
 149 268 l 1
 364 382 l 1
 385 402 395 421 395 438 c 2
 395 533 l 2
 395 565 367 587 336 587 c 2
 273 587 l 1
 273 527 l 2
 273 518 287 513 315 513 c 2
 341 513 l 1
 341 410 l 1
 259 410 l 2
 209 410 164 448 164 505 c 2
 164 682 l 1
 378 682 l 2
 437 682 503 647 503 582 c 1
 528 550 554 533 581 533 c 2
 717 533 l 2
 737 533 749 549 749 559 c 2
 749 581 l 2
 749 594 743 601 730 601 c 2
 709 601 l 1
 709 696 l 1
 758 696 l 2
 819 696 858 650 858 597 c 2
 858 534 l 2
 858 477 813 439 763 439 c 2
 594 439 l 2
 563 439 533 453 503 480 c 1
 503 405 l 2
 503 372 490 345 463 323 c 1
 259 215 l 1
 259 148 l 2
 259 117 283 98 307 98 c 2
 430 98 l 2
 455 98 476 122 476 151 c 2
 476 194 l 1
 585 194 l 1
 585 161 l 2
 585 134 609 98 648 98 c 2
 748 98 l 2
 779 98 803 129 803 161 c 2
 803 249 l 2
 803 274 784 289 757 289 c 2
 694 289 l 1
 694 384 l 1
 826 384 l 2
EndSplineSet
LCarets2: 1 0
EndChar

StartChar: ja.base
Encoding: 147 -1 147
Width: 719
VWidth: 999
Flags: HW
LayerCount: 2
Fore
SplineSet
819 380 m 2
 876 380 914 338 914 280 c 1
 916 123 l 1
 916 55 866 0 807 0 c 2
 608 0 l 2
 572 0 545 32 535 63 c 1
 530 31 499 0 454 0 c 2
 255 0 l 2
 199 0 153 44 153 95 c 2
 153 267 l 1
 351 381 l 1
 384 410 400 437 400 463 c 2
 400 532 l 2
 400 561 380 586 351 586 c 2
 278 586 l 1
 278 553 l 2
 278 527 294 513 305 513 c 2
 331 513 l 1
 331 410 l 1
 264 410 l 2
 207 410 168 455 168 505 c 2
 168 682 l 1
 379 682 l 2
 449 682 509 629 509 567 c 1
 531 544 551 532 569 532 c 2
 700 532 l 2
 716 532 727 547 727 567 c 2
 727 586 l 1
 576 586 l 1
 576 681 l 1
 729 681 l 2
 789 681 835 640 835 586 c 2
 835 531 l 2
 835 478 790 436 739 436 c 2
 595 436 l 2
 567 436 538 450 508 477 c 1
 508 417 l 2
 508 393 490 366 453 335 c 1
 263 212 l 1
 263 144 l 2
 263 116 283 95 308 95 c 2
 431 95 l 2
 457 95 480 120 480 148 c 2
 480 191 l 1
 588 191 l 1
 588 157 l 2
 588 121 611 95 634 95 c 2
 751 95 l 2
 784 95 806 123 806 148 c 2
 806 254 l 2
 806 272 785 285 757 285 c 2
 697 285 l 1
 697 380 l 1
 819 380 l 2
EndSplineSet
EndChar

StartChar: ja.imathra
Encoding: 148 -1 148
Width: 894
VWidth: 999
Flags: HW
LayerCount: 2
Fore
SplineSet
815 381 m 2
 880 381 923 332 923 281 c 2
 924 109 l 2
 924 49 876 1 816 1 c 2
 603 1 l 2
 566 1 539 32 529 63 c 1
 523 26 493 1 461 1 c 2
 263 1 l 2
 202 1 149 48 149 109 c 2
 149 255 l 1
 372 396 l 1
 386 411 393 429 393 450 c 2
 393 541 l 2
 393 568 378 587 353 587 c 2
 270 587 l 1
 270 541 l 1
 271 525 281 513 297 513 c 2
 324 513 l 1
 324 410 l 1
 257 410 l 2
 201 410 162 455 162 504 c 2
 162 682 l 1
 372 682 l 2
 446 682 502 641 502 595 c 1
 541 576 578 567 613 567 c 2
 654 567 l 1
 654 696 l 2
 654 753 696 790 748 790 c 2
 816 790 l 2
 873 790 910 743 910 682 c 2
 910 573 l 2
 910 510 860 464 802 464 c 2
 630 464 l 2
 582 464 539 473 501 492 c 1
 501 410 l 2
 501 382 492 361 474 350 c 2
 257 213 l 1
 257 138 l 2
 257 112 277 96 296 96 c 2
 426 96 l 2
 451 96 473 116 473 146 c 2
 473 192 l 1
 582 192 l 1
 582 159 l 2
 582 126 604 96 628 96 c 2
 766 96 l 2
 791 96 814 121 814 150 c 2
 814 241 l 2
 814 267 788 286 759 286 c 2
 691 286 l 1
 691 381 l 1
 815 381 l 2
788 559 m 2
 799 559 814 569 814 602 c 2
 814 670 l 2
 814 688 807 697 792 697 c 2
 774 697 l 2
 759 697 747 686 747 670 c 2
 747 559 l 1
 788 559 l 2
EndSplineSet
LCarets2: 1 0
EndChar

StartChar: ja.sub
Encoding: 149 -1 149
Width: 180
VWidth: 999
Flags: HW
AnchorPoint: "Sub" -340 28 mark 0
AnchorPoint: "Sub" 370 -405 basemark 0
LayerCount: 2
Fore
SplineSet
225 -123 m 2
 245 -123 260 -107 260 -95 c 2
 260 -54 l 2
 260 -41 251 -28 233 -15 c 1
 287 40 l 1
 332 9 355 -22 355 -55 c 2
 355 -114 l 2
 355 -169 318 -204 274 -204 c 2
 70 -204 l 2
 22 -204 -29 -179 -81 -129 c 1
 -40 -69 l 1
 15 -105 49 -123 61 -123 c 2
 225 -123 l 2
244 -329 m 2
 258 -329 270 -319 270 -303 c 2
 270 -234 l 1
 367 -234 l 1
 367 -307 l 2
 367 -363 333 -411 284 -411 c 2
 121 -411 l 2
 77 -411 34 -378 26 -342 c 1
 4 -388 -27 -411 -67 -411 c 2
 -261 -411 l 2
 -315 -411 -356 -374 -356 -335 c 2
 -356 -262 l 2
 -356 -211 -318 -180 -282 -180 c 2
 -214 -180 l 2
 -197 -180 -188 -168 -188 -158 c 2
 -188 -140 l 2
 -188 -130 -194 -126 -206 -126 c 2
 -343 -126 l 1
 -343 -35 l 1
 -179 -35 l 2
 -130 -35 -92 -70 -92 -112 c 2
 -92 -199 l 2
 -92 -229 -123 -262 -166 -262 c 2
 -234 -262 l 2
 -253 -262 -262 -269 -262 -281 c 2
 -262 -308 l 2
 -262 -318 -247 -329 -234 -329 c 2
 -84 -329 l 2
 -48 -329 -24 -298 -24 -266 c 2
 -24 -235 l 1
 73 -235 l 1
 73 -266 l 2
 73 -301 103 -329 135 -329 c 2
 244 -329 l 2
EndSplineSet
LCarets2: 1 0
EndChar

StartChar: jha.sub
Encoding: 154 -1 154
Width: 196
VWidth: 999
Flags: HW
AnchorPoint: "Sub" -389 -32 mark 0
AnchorPoint: "Sub" 376 -379 basemark 0
LayerCount: 2
Fore
SplineSet
283 -31 m 1
 356 -55 401 -103 401 -151 c 1
 399 -264 l 1
 399 -329 350 -381 291 -381 c 2
 196 -381 l 2
 174 -381 157 -369 144 -346 c 1
 130 -369 108 -381 77 -381 c 2
 -7 -381 l 2
 -26 -381 -44 -373 -61 -355 c 1
 -75 -373 -96 -381 -123 -381 c 2
 -275 -381 l 2
 -337 -381 -389 -326 -389 -264 c 2
 -389 -138 l 2
 -389 -77 -334 -28 -266 -28 c 2
 -143 -28 l 2
 -74 -28 -22 -80 -22 -142 c 2
 -22 -259 l 2
 -22 -279 -3 -300 21 -300 c 2
 61 -300 l 2
 79 -300 93 -284 93 -264 c 2
 93 -155 l 2
 93 -128 67 -101 26 -89 c 1
 89 -29 l 1
 151 -50 189 -102 189 -150 c 2
 189 -273 l 2
 189 -288 202 -301 215 -301 c 2
 265 -301 l 2
 291 -301 306 -280 306 -261 c 2
 306 -165 l 2
 306 -135 274 -100 223 -85 c 1
 283 -31 l 1
191 -412 m 1
 94 -412 l 1
 94 -399 l 1
 144 -372 l 1
 191 -399 l 1
 191 -412 l 1
-164 -304 m 2
 -139 -304 -115 -283 -116 -255 c 1
 -116 -167 l 2
 -116 -139 -138 -112 -170 -112 c 2
 -247 -112 l 2
 -271 -112 -292 -130 -292 -158 c 2
 -292 -255 l 2
 -292 -283 -266 -304 -239 -304 c 2
 -164 -304 l 2
EndSplineSet
LCarets2: 1 0
EndChar

StartChar: jha.part
Encoding: 155 -1 155
Width: 410
VWidth: 999
Flags: HW
LayerCount: 2
Fore
SplineSet
307 683 m 2
 382 683 438 612 438 527 c 2
 438 132 l 2
 438 62 390 0 328 0 c 2
 164 0 l 2
 113 0 64 35 15 104 c 1
 15 260 l 1
 59 165 136 96 205 96 c 2
 265 96 l 2
 302 96 327 124 327 164 c 2
 327 527 l 2
 327 558 304 587 273 587 c 2
 150 587 l 1
 150 683 l 1
 307 683 l 2
438 -193 m 1
 328 -193 l 1
 328 -55 l 1
 438 -55 l 1
 438 -193 l 1
EndSplineSet
EndChar

StartChar: nya
Encoding: 157 3230 157
Width: 1104
VWidth: 999
Flags: HW
LayerCount: 2
Fore
SplineSet
1046 687 m 2
 1098 687 1137 643 1137 586 c 1
 1138 487 l 1
 1138 429 1103 382 1056 382 c 2
 988 382 l 1
 988 479 l 1
 1002 479 l 2
 1019 479 1027 492 1027 519 c 2
 1027 559 l 2
 1027 578 1015 587 988 587 c 2
 938 587 l 2
 905 587 879 559 879 520 c 2
 879 370 l 2
 879 312 856 260 810 214 c 1
 810 139 l 2
 810 114 832 97 850 97 c 2
 892 97 l 1
 892 2 l 1
 810 2 l 2
 749 2 702 52 702 111 c 2
 702 179 l 1
 593 179 l 2
 537 179 498 222 498 268 c 2
 498 342 l 2
 498 382 538 411 583 411 c 2
 701 411 l 2
 734 411 759 376 770 351 c 1
 770 543 l 2
 770 572 738 589 706 589 c 2
 646 589 l 2
 607 589 578 561 578 535 c 2
 578 467 l 1
 469 467 l 1
 469 529 l 2
 469 558 444 589 401 589 c 2
 312 589 l 2
 301 589 279 579 279 549 c 2
 279 482 l 2
 279 461 293 441 312 441 c 2
 346 441 l 1
 346 331 l 1
 270 331 l 2
 217 331 169 383 169 449 c 2
 169 577 l 2
 169 637 216 686 270 686 c 2
 429 686 l 2
 476 686 519 658 523 618 c 1
 538 652 572 686 617 686 c 2
 747 686 l 2
 796 686 822 644 829 627 c 1
 843 662 874 687 918 687 c 2
 1046 687 l 2
591 299 m 2
 591 287 609 278 622 278 c 2
 663 278 l 2
 671 278 683 283 699 292 c 1
 699 309 676 319 651 319 c 2
 610 319 l 2
 598 319 591 317 591 313 c 2
 591 299 l 2
EndSplineSet
LCarets2: 1 0
EndChar

StartChar: nya.sub
Encoding: 158 -1 158
Width: 223
VWidth: 999
Flags: HW
AnchorPoint: "Sub" -399 -16 mark 0
AnchorPoint: "Sub" 366 -413 basemark 0
LayerCount: 2
Fore
SplineSet
335 -12 m 2
 372 -12 407 -41 407 -91 c 2
 408 -219 l 2
 408 -265 380 -305 336 -305 c 2
 275 -305 l 1
 275 -230 l 1
 303 -230 l 2
 319 -230 323 -215 323 -205 c 2
 323 -126 l 2
 323 -99 315 -85 302 -85 c 2
 230 -85 l 2
 226 -85 203 -84 187 -133 c 1
 187 -259 l 2
 187 -309 135 -354 66 -354 c 1
 66 -364 78 -377 90 -377 c 2
 127 -377 l 1
 127 -439 l 1
 65 -439 l 2
 30 -439 -9 -415 -9 -378 c 2
 -9 -354 l 1
 -53 -354 l 2
 -90 -354 -119 -330 -119 -305 c 2
 -119 -249 l 2
 -119 -221 -96 -195 -58 -195 c 2
 4 -195 l 2
 51 -195 65 -228 65 -249 c 2
 65 -280 l 1
 89 -280 102 -272 102 -255 c 2
 102 -113 l 2
 102 -104 90 -85 53 -85 c 2
 -46 -85 l 2
 -78 -85 -100 -106 -100 -133 c 2
 -100 -151 l 1
 -186 -151 l 1
 -186 -126 l 2
 -186 -99 -207 -85 -236 -85 c 2
 -289 -85 l 2
 -299 -85 -314 -92 -314 -120 c 2
 -314 -200 l 2
 -314 -212 -290 -223 -265 -223 c 1
 -265 -305 l 1
 -345 -305 -400 -249 -400 -200 c 2
 -400 -98 l 2
 -400 -44 -359 -11 -322 -11 c 2
 -216 -11 l 2
 -175 -11 -143 -43 -143 -74 c 1
 -129 -41 -104 -12 -78 -12 c 2
 90 -12 l 2
 126 -12 150 -24 163 -49 c 1
 181 -24 202 -12 224 -12 c 2
 335 -12 l 2
-11 -275 m 2
 -11 -262 l 2
 -11 -252 -18 -247 -30 -247 c 0
 -42 -247 -48 -250 -48 -258 c 2
 -48 -283 l 2
 -48 -291 -40 -295 -24 -295 c 0
 -15 -295 -11 -288 -11 -275 c 2
EndSplineSet
LCarets2: 1 0
EndChar

StartChar: tta
Encoding: 159 3231 159
Width: 877
VWidth: 999
Flags: HW
LayerCount: 2
Fore
SplineSet
835 411 m 1
 877 411 910 371 910 323 c 2
 910 109 l 2
 910 48 872 1 816 1 c 2
 649 1 l 2
 599 1 561 39 549 83 c 1
 543 39 502 1 454 1 c 2
 312 1 l 2
 241 1 190 56 190 118 c 2
 190 383 l 2
 190 410 212 438 258 465 c 1
 212 493 190 519 190 542 c 2
 190 664 l 2
 190 731 243 778 305 778 c 2
 407 778 l 1
 407 682 l 1
 330 682 l 2
 314 682 298 666 298 651 c 2
 298 559 l 2
 298 535 317 514 339 507 c 1
 489 507 l 1
 489 351 l 2
 489 289 444 234 384 234 c 2
 324 234 l 1
 324 329 l 1
 357 329 l 2
 375 329 380 345 380 356 c 2
 380 411 l 1
 324 411 l 1
 306 401 298 387 298 370 c 2
 298 147 l 2
 298 114 323 97 339 97 c 2
 427 97 l 2
 465 97 496 128 501 165 c 1
 501 220 l 1
 612 220 l 1
 612 165 l 1
 623 119 651 98 677 98 c 2
 780 98 l 2
 799 98 814 123 814 151 c 2
 814 317 l 2
 814 341 799 357 774 357 c 2
 691 357 l 1
 691 452 l 1
 746 452 l 2
 774 452 801 474 801 506 c 2
 801 637 l 2
 801 648 795 670 760 670 c 2
 692 670 l 1
 692 765 l 1
 815 765 l 2
 862 765 897 717 897 656 c 2
 897 487 l 2
 897 455 878 423 835 411 c 1
EndSplineSet
LCarets2: 1 0
EndChar

StartChar: tta.base
Encoding: 160 -1 160
Width: 732
VWidth: 999
Flags: HW
LayerCount: 2
Fore
SplineSet
851 410 m 1
 896 410 926 371 926 323 c 2
 924 112 l 2
 924 52 887 3 830 3 c 1
 828 1 l 1
 649 1 l 2
 600 1 565 39 553 83 c 1
 545 39 503 1 457 1 c 2
 313 1 l 2
 244 1 191 47 191 104 c 2
 191 382 l 2
 191 409 213 437 259 464 c 1
 204 497 191 534 191 552 c 2
 191 674 l 2
 191 732 232 788 294 788 c 2
 408 788 l 1
 408 693 l 1
 335 693 l 2
 311 693 286 675 286 648 c 2
 286 557 l 2
 286 537 306 515 340 506 c 1
 491 506 l 1
 491 351 l 2
 491 286 438 234 377 234 c 2
 326 234 l 1
 326 329 l 1
 363 329 l 2
 374 329 382 346 382 370 c 2
 382 410 l 1
 326 410 l 1
 308 400 300 387 300 370 c 2
 300 145 l 2
 300 118 319 97 340 97 c 2
 431 97 l 2
 466 97 498 127 502 165 c 1
 502 247 l 1
 613 247 l 1
 613 165 l 1
 624 119 653 98 679 98 c 2
 771 98 l 2
 804 98 816 130 816 151 c 2
 816 316 l 2
 816 341 789 357 761 357 c 2
 693 357 l 1
 693 452 l 1
 748 452 l 2
 777 452 802 480 802 519 c 2
 802 541 l 2
 802 564 786 588 756 588 c 2
 666 588 l 1
 666 683 l 1
 799 683 l 1
 862 677 910 621 910 547 c 2
 910 487 l 2
 910 459 897 426 851 410 c 1
EndSplineSet
EndChar

StartChar: tta.imathra
Encoding: 161 -1 161
Width: 894
VWidth: 999
Flags: HW
LayerCount: 2
Fore
SplineSet
844 412 m 1
 888 412 924 375 924 325 c 2
 924 112 l 2
 924 52 887 3 830 3 c 1
 828 1 l 1
 649 1 l 2
 602 1 567 40 555 83 c 1
 544 37 505 1 454 1 c 2
 312 1 l 2
 242 1 190 55 190 123 c 2
 190 382 l 2
 190 409 212 436 258 463 c 1
 212 491 190 533 190 558 c 2
 190 663 l 2
 190 730 239 778 291 778 c 2
 408 778 l 1
 408 682 l 1
 318 682 l 2
 305 682 285 671 285 641 c 2
 285 573 l 2
 285 542 309 511 339 505 c 1
 490 505 l 1
 490 350 l 2
 490 287 439 233 373 233 c 2
 325 233 l 1
 325 327 l 1
 344 327 l 2
 363 327 380 347 380 369 c 2
 380 409 l 1
 339 409 l 2
 312 409 299 387 299 372 c 2
 299 152 l 2
 299 124 321 98 345 98 c 2
 441 98 l 2
 465 98 496 120 502 166 c 1
 502 248 l 1
 613 248 l 1
 613 166 l 1
 624 120 653 99 679 99 c 2
 753 99 l 2
 799 99 816 132 816 152 c 2
 816 317 l 2
 816 343 798 358 776 358 c 2
 693 358 l 1
 693 453 l 1
 748 453 l 2
 778 453 803 474 803 501 c 2
 803 666 l 2
 803 683 794 698 782 698 c 2
 728 698 l 2
 715 698 708 694 708 685 c 2
 708 670 l 1
 709 656 724 644 734 644 c 2
 776 644 l 1
 776 549 l 1
 686 549 l 2
 638 549 599 587 599 630 c 2
 599 707 l 2
 599 756 644 794 693 794 c 2
 808 794 l 2
 864 794 910 755 910 699 c 2
 910 535 l 2
 910 477 885 423 844 412 c 1
EndSplineSet
LCarets2: 1 0
EndChar

StartChar: tta.sub
Encoding: 162 -1 162
Width: 161
VWidth: 999
Flags: HW
AnchorPoint: "Sub" -289 156 mark 0
AnchorPoint: "Sub" 314 -407 basemark 0
LayerCount: 2
Fore
SplineSet
257 -128 m 1
 293 -137 324 -169 324 -209 c 2
 325 -339 l 2
 325 -378 294 -407 250 -407 c 2
 107 -407 l 2
 62 -407 26 -376 26 -344 c 1
 11 -386 -27 -407 -56 -407 c 2
 -194 -407 l 1
 -194 -410 l 1
 -260 -410 -315 -365 -315 -306 c 2
 -315 -197 l 2
 -315 -139 -269 -96 -214 -96 c 2
 -56 -96 l 1
 -56 -260 l 1
 -151 -260 l 1
 -151 -192 l 1
 -179 -192 l 2
 -202 -192 -219 -203 -219 -219 c 2
 -219 -279 l 2
 -219 -308 -196 -327 -165 -327 c 2
 -78 -327 l 2
 -48 -327 -24 -305 -24 -273 c 2
 -24 -233 l 1
 73 -233 l 1
 73 -273 l 2
 73 -303 94 -327 121 -327 c 2
 190 -327 l 2
 211 -327 230 -317 230 -301 c 2
 230 -197 l 2
 230 -177 193 -170 168 -170 c 2
 108 -170 l 1
 108 -90 l 1
 163 -90 l 2
 195 -90 222 -64 222 -34 c 2
 222 81 l 2
 222 121 172 140 172 152 c 1
 173 154 174 156 175 156 c 2
 216 216 l 1
 275 181 317 136 317 83 c 2
 317 -28 l 2
 317 -82 290 -118 257 -128 c 1
EndSplineSet
LCarets2: 1 0
EndChar

StartChar: ttha.base
Encoding: 164 -1 164
Width: 614
VWidth: 999
Flags: HW
LayerCount: 2
Fore
SplineSet
643 670 m 1
 724 614 784 523 784 425 c 2
 783 158 l 2
 783 71 708 1 617 1 c 2
 354 1 l 2
 257 1 182 71 182 159 c 2
 182 425 l 2
 182 489 209 542 264 587 c 1
 196 587 l 1
 196 683 l 1
 643 683 l 1
 643 670 l 1
606 96 m 2
 645 96 674 125 673 164 c 1
 673 425 l 2
 673 498 624 557 578 587 c 1
 387 587 l 1
 336 557 292 499 292 425 c 2
 292 164 l 2
 292 127 321 96 361 96 c 2
 606 96 l 2
544 273 m 1
 433 273 l 1
 433 382 l 1
 544 382 l 1
 544 273 l 1
EndSplineSet
EndChar

StartChar: ttha.imathra
Encoding: 165 -1 165
Width: 751
VWidth: 999
Flags: HW
LayerCount: 2
Fore
SplineSet
186 791 m 2
 186 853 244 902 314 902 c 2
 409 902 l 2
 451 902 488 886 518 854 c 1
 648 745 786 600 786 487 c 2
 785 164 l 2
 785 60 725 2 676 2 c 2
 349 2 l 2
 263 2 186 72 186 164 c 2
 186 480 l 2
 186 531 213 579 267 623 c 1
 231 642 186 677 186 731 c 2
 186 791 l 2
338 806 m 2
 318 806 297 790 297 774 c 2
 297 732 l 2
 297 709 311 693 338 684 c 1
 558 684 l 1
 477 766 l 2
 451 793 428 806 406 806 c 2
 338 806 l 2
615 97 m 2
 650 97 676 127 677 165 c 1
 677 480 l 2
 677 516 661 551 629 588 c 1
 364 588 l 1
 318 542 295 507 295 480 c 2
 295 179 l 2
 295 137 324 97 364 97 c 2
 615 97 l 2
545 274 m 1
 434 274 l 1
 434 383 l 1
 545 383 l 1
 545 274 l 1
EndSplineSet
LCarets2: 1 0
EndChar

StartChar: ttha.sub
Encoding: 166 -1 166
Width: 98
VWidth: 999
Flags: HW
AnchorPoint: "Sub" -195 -34 mark 0
AnchorPoint: "Sub" 194 -400 basemark 0
LayerCount: 2
Fore
SplineSet
52 -29 m 2
 136 -29 202 -88 202 -164 c 2
 203 -287 l 2
 203 -357 148 -410 80 -410 c 2
 -56 -410 l 2
 -134 -410 -194 -353 -194 -293 c 2
 -194 -156 l 2
 -194 -84 -129 -29 -52 -29 c 2
 52 -29 l 2
38 -327 m 2
 76 -327 105 -299 106 -265 c 1
 106 -178 l 2
 106 -142 73 -110 25 -110 c 2
 -38 -110 l 2
 -72 -110 -98 -145 -98 -178 c 2
 -98 -265 l 2
 -98 -296 -70 -327 -30 -327 c 2
 38 -327 l 2
56 -260 m 1
 -53 -260 l 1
 -53 -178 l 1
 56 -178 l 1
 56 -260 l 1
EndSplineSet
LCarets2: 1 0
EndChar

StartChar: dda.base
Encoding: 168 -1 168
Width: 748
VWidth: 999
Flags: HW
LayerCount: 2
Fore
SplineSet
781 663 m 1
 889 623 917 528 917 478 c 2
 917 432 l 2
 917 399 903 372 876 350 c 1
 903 328 917 298 917 260 c 1
 914 117 l 1
 914 49 857 0 799 0 c 2
 641 0 l 2
 595 0 554 33 546 77 c 1
 534 28 495 0 460 0 c 2
 310 0 l 2
 247 0 194 49 194 109 c 2
 194 445 l 2
 194 509 244 560 288 586 c 1
 193 586 l 1
 193 682 l 1
 781 682 l 1
 781 663 l 1
802 350 m 1
 792 381 774 396 747 396 c 2
 721 396 l 2
 706 396 699 391 699 381 c 2
 699 341 l 2
 699 332 715 327 748 327 c 0
 758 327 776 335 802 350 c 1
752 95 m 2
 783 95 806 121 807 149 c 1
 807 260 l 1
 774 235 l 1
 766 233 l 1
 693 233 l 2
 642 233 604 268 604 309 c 2
 604 396 l 2
 604 440 637 479 679 479 c 2
 748 479 l 2
 771 479 792 467 808 445 c 1
 808 479 l 2
 808 522 771 569 699 586 c 1
 427 586 l 1
 376 562 303 512 303 437 c 2
 303 148 l 2
 303 123 324 95 357 95 c 2
 434 95 l 2
 469 95 494 125 494 157 c 2
 494 191 l 1
 603 191 l 1
 603 148 l 2
 603 120 626 95 657 95 c 2
 752 95 l 2
EndSplineSet
EndChar

StartChar: dda.imathra
Encoding: 169 -1 169
Width: 900
VWidth: 999
Flags: HW
LayerCount: 2
Fore
SplineSet
193 787 m 2
 193 848 241 902 301 902 c 2
 553 902 l 2
 583 902 608 888 628 876 c 1
 671 848 731 797 810 683 c 1
 889 572 929 495 929 451 c 2
 929 419 l 2
 929 398 916 378 893 356 c 1
 916 334 929 309 929 282 c 2
 927 104 l 2
 927 47 887 1 838 1 c 2
 618 1 l 2
 585 1 554 27 546 64 c 1
 540 24 505 1 470 1 c 2
 315 1 l 2
 245 1 192 56 192 124 c 2
 192 446 l 2
 192 506 238 562 287 596 c 1
 230 623 193 673 193 724 c 2
 193 787 l 2
352 809 m 2
 318 809 297 793 297 778 c 2
 297 742 l 2
 297 719 308 701 330 688 c 1
 693 687 l 1
 620 773 563 809 530 809 c 2
 352 809 l 2
822 360 m 1
 800 387 785 401 777 401 c 2
 728 401 l 2
 715 401 708 394 708 381 c 2
 708 346 l 2
 708 328 715 320 728 320 c 2
 765 320 l 2
 791 320 810 333 822 360 c 1
790 97 m 2
 808 97 818 116 820 140 c 1
 820 269 l 1
 794 246 779 235 772 235 c 2
 703 235 l 2
 655 235 616 274 616 317 c 2
 616 398 l 2
 616 443 649 480 689 480 c 2
 771 480 l 1
 776 479 781 477 785 473 c 2
 819 434 l 1
 819 461 l 1
 813 503 790 545 750 588 c 1
 424 588 l 1
 402 574 300 504 300 441 c 2
 300 163 l 2
 300 130 324 100 346 100 c 1
 346 98 l 1
 438 98 l 2
 466 98 492 115 492 139 c 2
 492 220 l 1
 601 220 l 1
 601 147 l 2
 601 116 625 97 646 97 c 2
 790 97 l 2
EndSplineSet
LCarets2: 1 0
EndChar

StartChar: dda.sub
Encoding: 170 -1 170
Width: 177
VWidth: 999
Flags: HW
AnchorPoint: "Sub" -367 -66 mark 0
AnchorPoint: "Sub" 363 -399 basemark 0
LayerCount: 2
Fore
SplineSet
279 -177 m 1
 326 -177 361 -207 361 -251 c 2
 361 -307 l 2
 361 -357 323 -396 279 -396 c 2
 115 -396 l 2
 71 -396 27 -362 -17 -293 c 1
 -50 -354 -106 -396 -165 -396 c 2
 -253 -396 l 2
 -305 -396 -347 -345 -347 -286 c 2
 -347 -197 l 2
 -347 -138 -236 -55 -157 -55 c 2
 115 -55 l 2
 202 -55 279 -106 279 -177 c 1
229 -314 m 2
 251 -314 263 -302 264 -292 c 1
 264 -264 l 2
 264 -252 257 -245 244 -245 c 2
 88 -245 l 1
 88 -177 l 1
 183 -177 l 1
 183 -157 156 -138 109 -138 c 2
 -143 -138 l 2
 -188 -138 -251 -185 -251 -208 c 2
 -251 -272 l 2
 -251 -290 -235 -305 -219 -305 c 2
 -172 -305 l 2
 -123 -305 -79 -271 -49 -218 c 1
 32 -218 l 1
 55 -263 98 -314 142 -314 c 2
 229 -314 l 2
EndSplineSet
LCarets2: 1 0
EndChar

StartChar: ddha.base
Encoding: 172 -1 172
Width: 748
VWidth: 999
Flags: HW
LayerCount: 2
Fore
SplineSet
781 663 m 1
 889 623 917 528 917 478 c 2
 917 432 l 2
 917 399 903 372 876 350 c 1
 903 328 917 298 917 260 c 1
 914 117 l 1
 914 49 857 0 799 0 c 2
 641 0 l 2
 595 0 554 33 546 77 c 1
 534 28 495 0 460 0 c 2
 310 0 l 2
 247 0 194 49 194 109 c 2
 194 445 l 2
 194 509 244 560 288 586 c 1
 193 586 l 1
 193 682 l 1
 781 682 l 1
 781 663 l 1
802 350 m 1
 792 381 774 396 747 396 c 2
 721 396 l 2
 706 396 699 391 699 381 c 2
 699 341 l 2
 699 332 715 327 748 327 c 0
 758 327 776 335 802 350 c 1
752 95 m 2
 783 95 806 121 807 149 c 1
 807 260 l 1
 774 235 l 1
 766 233 l 1
 693 233 l 2
 642 233 604 268 604 309 c 2
 604 396 l 2
 604 440 637 479 679 479 c 2
 748 479 l 2
 771 479 792 467 808 445 c 1
 808 479 l 2
 808 522 771 569 699 586 c 1
 427 586 l 1
 376 562 303 512 303 437 c 2
 303 148 l 2
 303 123 324 95 357 95 c 2
 434 95 l 2
 469 95 494 125 494 157 c 2
 494 191 l 1
 603 191 l 1
 603 148 l 2
 603 120 626 95 657 95 c 2
 752 95 l 2
603 -143 m 1
 494 -143 l 1
 494 -7 l 1
 603 -7 l 1
 603 -143 l 1
EndSplineSet
EndChar

StartChar: ddha.imathra
Encoding: 173 -1 173
Width: 900
VWidth: 999
Flags: HW
LayerCount: 2
Fore
SplineSet
193 787 m 2
 193 848 241 902 301 902 c 2
 553 902 l 2
 583 902 608 888 628 876 c 1
 671 848 731 797 810 683 c 1
 889 572 929 495 929 451 c 2
 929 419 l 2
 929 398 916 378 893 356 c 1
 916 334 929 309 929 282 c 2
 927 104 l 2
 927 47 887 1 838 1 c 2
 618 1 l 2
 585 1 554 27 546 64 c 1
 540 24 505 1 470 1 c 2
 315 1 l 2
 245 1 192 56 192 124 c 2
 192 446 l 2
 192 506 238 562 287 596 c 1
 230 623 193 673 193 724 c 2
 193 787 l 2
352 809 m 2
 318 809 297 793 297 778 c 2
 297 742 l 2
 297 719 308 701 330 688 c 1
 693 687 l 1
 620 773 563 809 530 809 c 2
 352 809 l 2
822 360 m 1
 800 387 785 401 777 401 c 2
 728 401 l 2
 715 401 708 394 708 381 c 2
 708 346 l 2
 708 328 715 320 728 320 c 2
 765 320 l 2
 791 320 810 333 822 360 c 1
790 97 m 2
 808 97 818 116 820 140 c 1
 820 269 l 1
 794 246 779 235 772 235 c 2
 703 235 l 2
 655 235 616 274 616 317 c 2
 616 398 l 2
 616 443 649 480 689 480 c 2
 771 480 l 1
 776 479 781 477 785 473 c 2
 819 434 l 1
 819 461 l 1
 813 503 790 545 750 588 c 1
 424 588 l 1
 402 574 300 504 300 441 c 2
 300 163 l 2
 300 130 324 100 346 100 c 1
 346 98 l 1
 438 98 l 2
 466 98 492 115 492 139 c 2
 492 220 l 1
 601 220 l 1
 601 147 l 2
 601 116 625 97 646 97 c 2
 790 97 l 2
600 -141 m 1
 491 -141 l 1
 491 -4 l 1
 600 -4 l 1
 600 -141 l 1
EndSplineSet
LCarets2: 1 0
EndChar

StartChar: ddha.sub
Encoding: 174 -1 174
Width: 177
VWidth: 999
Flags: HW
AnchorPoint: "Sub" -357 -68 mark 0
AnchorPoint: "Sub" 355 -380 basemark 0
LayerCount: 2
Fore
SplineSet
279 -177 m 1
 326 -177 361 -207 361 -251 c 2
 361 -307 l 2
 361 -347 324 -381 279 -381 c 2
 115 -381 l 2
 75 -381 30 -351 -17 -292 c 1
 -63 -364 -125 -395 -165 -395 c 2
 -253 -395 l 2
 -305 -395 -347 -345 -347 -286 c 2
 -347 -196 l 2
 -347 -137 -236 -54 -157 -54 c 2
 115 -54 l 2
 202 -54 279 -106 279 -177 c 1
34 -409 m 1
 -61 -409 l 1
 -61 -368 l 1
 -15 -332 l 1
 34 -368 l 1
 34 -409 l 1
228 -314 m 2
 250 -314 263 -302 264 -292 c 1
 264 -264 l 2
 264 -252 256 -245 243 -245 c 2
 88 -245 l 1
 88 -177 l 1
 183 -177 l 1
 183 -157 156 -138 109 -138 c 2
 -143 -138 l 2
 -188 -138 -252 -185 -252 -208 c 2
 -252 -272 l 2
 -252 -290 -235 -305 -219 -305 c 2
 -172 -305 l 2
 -123 -305 -80 -271 -50 -218 c 1
 31 -218 l 1
 54 -263 97 -314 141 -314 c 2
 228 -314 l 2
EndSplineSet
LCarets2: 1 0
EndChar

StartChar: nna
Encoding: 175 3235 175
Width: 957
VWidth: 999
Flags: HW
LayerCount: 2
Fore
SplineSet
845 685 m 2
 920 685 982 626 982 544 c 2
 984 132 l 2
 984 61 929 0 861 0 c 2
 657 0 l 1
 657 172 l 2
 657 236 699 286 747 286 c 2
 820 286 l 1
 820 192 l 1
 801 192 l 2
 781 192 767 175 767 159 c 2
 767 96 l 1
 830 96 l 2
 857 96 875 127 875 159 c 2
 875 542 l 2
 875 569 850 588 820 588 c 2
 692 588 l 2
 661 588 629 570 629 543 c 2
 629 480 l 1
 520 480 l 1
 520 543 l 2
 520 572 492 588 460 588 c 2
 337 588 l 2
 310 588 288 568 288 543 c 2
 288 426 l 2
 288 384 317 357 342 357 c 2
 411 357 l 1
 411 262 l 1
 337 262 l 2
 306 262 288 239 288 215 c 2
 288 148 l 2
 288 119 311 98 337 98 c 2
 480 98 l 1
 480 3 l 1
 296 3 l 2
 232 3 179 50 179 106 c 2
 179 229 l 2
 179 264 220 299 260 317 c 1
 216 333 178 375 178 426 c 2
 178 569 l 2
 178 632 231 684 301 684 c 2
 472 684 l 2
 528 684 565 657 573 625 c 1
 593 665 630 685 682 685 c 2
 845 685 l 2
EndSplineSet
LCarets2: 1 0
EndChar

StartChar: nna.base
Encoding: 176 -1 176
Width: 716
VWidth: 999
Flags: HW
LayerCount: 2
Fore
SplineSet
747 588 m 1
 200 588 l 1
 200 683 l 1
 747 683 l 1
 747 588 l 1
738 532 m 2
 825 532 884 463 884 381 c 2
 883 117 l 2
 883 55 843 0 788 0 c 2
 583 0 l 1
 583 146 l 2
 583 216 636 272 698 272 c 2
 747 272 l 1
 747 177 l 1
 732 177 l 2
 712 177 692 162 692 138 c 2
 692 96 l 1
 747 96 l 2
 772 96 788 120 788 149 c 2
 788 382 l 2
 788 412 759 437 720 437 c 2
 624 437 l 2
 601 437 583 411 583 382 c 2
 583 355 l 1
 474 355 l 1
 474 396 l 2
 474 420 459 437 434 437 c 2
 338 437 l 2
 316 437 297 420 297 396 c 2
 297 341 l 2
 297 326 318 309 343 309 c 2
 380 309 l 1
 380 204 l 1
 343 204 l 2
 319 204 297 185 297 159 c 2
 297 124 l 2
 297 101 324 84 352 84 c 2
 447 84 l 1
 447 2 l 1
 283 2 l 2
 227 2 189 44 189 84 c 2
 189 173 l 2
 189 212 218 243 249 256 c 1
 219 265 189 288 189 322 c 2
 189 438 l 2
 189 494 241 532 304 532 c 2
 462 532 l 2
 494 532 516 519 529 492 c 1
 540 516 573 532 611 532 c 2
 738 532 l 2
EndSplineSet
EndChar

StartChar: nna.imathra
Encoding: 177 -1 177
Width: 957
VWidth: 999
Flags: HW
LayerCount: 2
Fore
SplineSet
881 670 m 1
 942 659 981 609 981 543 c 2
 984 132 l 1
 984 61 929 0 861 0 c 2
 657 0 l 1
 657 172 l 2
 657 236 699 286 747 286 c 2
 820 286 l 1
 820 192 l 1
 801 192 l 2
 787 192 767 181 767 150 c 2
 767 96 l 1
 830 96 l 2
 857 96 875 127 875 159 c 2
 875 533 l 2
 875 565 848 587 820 587 c 2
 692 587 l 2
 659 587 629 561 629 533 c 2
 629 480 l 1
 520 480 l 1
 520 533 l 2
 520 563 494 587 460 587 c 2
 351 587 l 2
 319 587 288 559 288 528 c 2
 288 425 l 2
 288 383 317 356 342 356 c 2
 411 356 l 1
 411 261 l 1
 342 261 l 2
 304 261 289 228 289 206 c 2
 289 147 l 2
 289 118 312 97 338 97 c 2
 481 97 l 1
 481 2 l 1
 297 2 l 2
 233 2 180 49 180 105 c 2
 180 228 l 2
 180 263 222 298 262 316 c 1
 218 332 179 374 179 425 c 2
 179 568 l 2
 179 631 232 683 302 683 c 2
 473 683 l 2
 529 683 566 656 574 624 c 1
 587 656 616 684 656 684 c 2
 773 684 l 2
 801 684 818 712 818 746 c 2
 818 814 l 2
 818 851 799 860 787 860 c 2
 731 860 l 2
 707 860 697 849 697 842 c 1
 698 829 708 819 723 819 c 2
 764 819 l 1
 764 732 l 1
 682 732 l 2
 636 732 601 766 601 806 c 2
 601 882 l 2
 601 919 634 956 682 956 c 2
 828 956 l 2
 880 956 926 918 926 860 c 2
 926 737 l 2
 926 709 911 686 881 670 c 1
EndSplineSet
LCarets2: 1 0
EndChar

StartChar: nna.sub
Encoding: 178 -1 178
Width: 172
VWidth: 999
Flags: HW
AnchorPoint: "Sub" -340 -36 mark 0
AnchorPoint: "Sub" 346 -396 basemark 0
LayerCount: 2
Fore
SplineSet
219 -40 m 2
 298 -40 351 -102 351 -176 c 1
 353 -315 l 1
 353 -367 303 -410 244 -410 c 2
 53 -410 l 1
 53 -293 l 1
 74 -238 127 -199 180 -185 c 1
 215 -261 l 1
 158 -279 147 -297 147 -306 c 2
 147 -326 l 1
 221 -326 l 2
 242 -326 256 -308 256 -286 c 2
 256 -183 l 2
 256 -147 227 -123 194 -123 c 2
 106 -123 l 2
 75 -123 44 -157 44 -204 c 1
 -52 -204 l 1
 -52 -158 -76 -123 -106 -123 c 2
 -215 -123 l 2
 -237 -123 -248 -127 -248 -137 c 2
 -248 -163 l 1
 -247 -174 -234 -183 -220 -183 c 2
 -125 -183 l 1
 -125 -263 l 1
 -220 -263 l 2
 -230 -263 -248 -268 -248 -285 c 2
 -248 -313 l 1
 -247 -321 -236 -325 -215 -325 c 2
 -71 -325 l 1
 -71 -407 l 1
 -263 -407 l 2
 -306 -407 -343 -381 -343 -352 c 2
 -343 -284 l 2
 -343 -264 -330 -246 -303 -230 c 1
 -330 -210 -343 -194 -343 -182 c 2
 -343 -122 l 2
 -343 -74 -302 -40 -249 -40 c 2
 -106 -40 l 2
 -46 -40 -11 -74 -3 -108 c 1
 8 -75 32 -40 84 -40 c 2
 219 -40 l 2
EndSplineSet
LCarets2: 1 0
EndChar

StartChar: ta.base
Encoding: 180 -1 180
Width: 614
VWidth: 999
Flags: HW
LayerCount: 2
Fore
SplineSet
615 682 m 2
 704 682 779 621 779 546 c 2
 779 472 l 2
 779 445 761 414 724 377 c 1
 761 348 779 312 779 270 c 2
 780 135 l 2
 780 65 718 3 629 3 c 2
 273 3 l 1
 276 1 l 1
 201 1 140 56 140 123 c 2
 140 355 l 1
 250 355 l 1
 250 146 l 2
 250 117 274 96 295 96 c 2
 604 96 l 2
 645 96 671 124 671 150 c 2
 671 281 l 2
 671 301 667 314 659 321 c 1
 616 289 586 273 568 273 c 2
 433 273 l 2
 377 273 331 315 331 364 c 2
 331 437 l 2
 331 482 375 518 427 518 c 2
 563 518 l 2
 590 518 619 500 648 463 c 1
 670 498 l 1
 670 546 l 2
 670 569 644 586 615 586 c 2
 150 586 l 1
 150 682 l 1
 615 682 l 2
426 394 m 2
 426 378 445 373 451 373 c 2
 547 373 l 2
 566 373 584 382 602 399 c 1
 591 417 570 427 539 427 c 2
 457 427 l 2
 443 427 426 420 426 408 c 2
 426 394 l 2
EndSplineSet
EndChar

StartChar: ta.imathra
Encoding: 181 -1 181
Width: 754
VWidth: 999
Flags: HW
LayerCount: 2
Fore
SplineSet
659 790 m 2
 726 790 782 736 782 663 c 2
 782 512 l 2
 782 477 759 436 713 389 c 1
 759 351 782 311 782 267 c 2
 783 132 l 1
 783 61 728 0 660 0 c 2
 250 0 l 2
 190 0 141 55 141 123 c 2
 141 355 l 1
 250 355 l 1
 250 158 l 2
 250 127 271 96 298 96 c 2
 604 96 l 2
 644 96 672 126 672 164 c 2
 672 267 l 2
 672 289 663 308 645 321 c 1
 618 289 594 273 572 273 c 2
 437 273 l 2
 377 273 332 314 332 364 c 2
 332 437 l 2
 332 482 376 518 428 518 c 2
 564 518 l 2
 595 518 625 500 654 463 c 1
 666 480 672 492 672 498 c 2
 672 640 l 2
 672 672 656 695 632 695 c 2
 537 695 l 2
 527 695 523 688 523 675 c 2
 523 663 l 1
 524 653 534 641 550 641 c 2
 616 641 l 1
 616 559 l 1
 508 559 l 2
 465 559 427 600 427 641 c 2
 427 710 l 2
 427 755 456 790 496 790 c 2
 659 790 l 2
427 390 m 2
 427 378 439 370 453 370 c 2
 535 370 l 2
 563 370 586 379 604 396 c 1
 593 415 568 424 530 424 c 2
 461 424 l 2
 438 424 427 416 427 403 c 2
 427 390 l 2
EndSplineSet
LCarets2: 1 0
EndChar

StartChar: ta.sub
Encoding: 182 -1 182
Width: 145
VWidth: 999
Flags: HW
AnchorPoint: "Sub" -300 -67 mark 0
AnchorPoint: "Sub" 285 -345 basemark 0
LayerCount: 2
Fore
SplineSet
39 -156 m 2
 39 -95 90 -55 147 -55 c 2
 298 -55 l 1
 298 -238 l 2
 298 -301 245 -355 175 -355 c 2
 -289 -355 l 1
 -289 -264 l 1
 140 -264 l 2
 175 -264 202 -248 202 -224 c 2
 202 -143 l 1
 175 -143 l 2
 153 -143 135 -158 135 -184 c 2
 135 -219 l 1
 39 -219 l 1
 39 -156 l 2
EndSplineSet
LCarets2: 1 0
EndChar

StartChar: ta_ya.sub
Encoding: 183 -1 183
Width: 249
VWidth: 999
Flags: HW
LayerCount: 2
Fore
SplineSet
-103 -408 m 2
 -141 -408 -176 -380 -176 -339 c 2
 -176 -305 l 2
 -176 -281 -167 -260 -149 -244 c 1
 -54 -176 l 1
 -36 -161 -27 -150 -27 -142 c 0
 -27 -129 -31 -123 -40 -123 c 2
 -77 -123 l 2
 -88 -123 -94 -129 -94 -142 c 2
 -94 -163 l 1
 -413 -162 l 1
 -413 -85 l 1
 -183 -85 l 1
 -178 -73 -157 -42 -115 -42 c 2
 -7 -42 l 2
 41 -42 70 -77 70 -114 c 2
 70 -155 l 2
 70 -176 56 -197 28 -218 c 1
 -53 -272 l 2
 -71 -284 -81 -296 -81 -306 c 2
 -81 -314 l 1
 -80 -322 -76 -326 -68 -326 c 2
 150 -326 l 2
 171 -326 178 -302 178 -278 c 2
 178 -154 l 2
 178 -113 169 -87 150 -74 c 1
 84 -5 l 1
 56 20 42 40 42 55 c 2
 42 164 l 2
 42 209 81 247 124 247 c 2
 261 247 l 2
 301 247 328 214 328 178 c 2
 328 96 l 1
 233 96 l 1
 233 138 l 2
 233 155 225 164 211 164 c 2
 165 164 l 1
 150 163 138 154 138 139 c 2
 138 84 l 2
 138 68 145 54 157 43 c 1
 225 -26 l 1
 258 -50 274 -82 274 -121 c 2
 274 -313 l 2
 274 -367 230 -408 184 -408 c 2
 -103 -408 l 2
EndSplineSet
EndChar

StartChar: ta_va.sub
Encoding: 184 -1 184
Width: 249
VWidth: 999
Flags: HW
LayerCount: 2
Fore
SplineSet
160 -348 m 1
 156 -357 123 -410 78 -410 c 0
 74 -410 71 -410 70 -410 c 2
 -102 -410 l 2
 -140 -410 -175 -383 -175 -342 c 2
 -175 -307 l 2
 -175 -283 -165 -263 -147 -247 c 1
 -52 -179 l 1
 -34 -164 -26 -152 -26 -144 c 0
 -26 -131 -30 -125 -39 -125 c 2
 -75 -125 l 2
 -86 -125 -92 -131 -92 -144 c 2
 -92 -165 l 1
 -412 -165 l 1
 -412 -88 l 1
 -184 -88 l 1
 -179 -76 -158 -44 -116 -44 c 2
 -7 -44 l 2
 41 -44 70 -80 70 -117 c 2
 70 -157 l 2
 70 -178 56 -199 28 -220 c 1
 -54 -274 l 2
 -72 -286 -81 -298 -81 -308 c 2
 -81 -316 l 1
 -80 -324 -76 -328 -68 -328 c 2
 37 -328 l 2
 76 -328 105 -299 105 -265 c 2
 105 -234 l 1
 214 -234 l 1
 214 -274 l 2
 214 -303 231 -327 254 -327 c 2
 338 -327 l 2
 355 -327 364 -313 364 -301 c 2
 364 -245 l 1
 362 -222 345 -219 338 -219 c 2
 270 -219 l 1
 270 -137 l 1
 329 -137 l 2
 350 -137 364 -120 364 -103 c 2
 364 -8 l 1
 460 -8 l 1
 460 -111 l 2
 460 -136 446 -159 418 -180 c 1
 446 -192 460 -212 460 -239 c 2
 460 -328 l 2
 460 -374 429 -411 393 -411 c 2
 240 -411 l 2
 206 -411 180 -390 160 -348 c 1
EndSplineSet
EndChar

StartChar: ta_rvocalicmatra.sub
Encoding: 185 -1 185
Width: 139
VWidth: 999
Flags: HW
LayerCount: 2
Fore
SplineSet
137 -315 m 2
 159 -315 185 -295 185 -260 c 2
 185 -20 l 1
 77 63 l 1
 137 145 l 1
 281 28 l 1
 281 -307 l 2
 281 -363 251 -410 200 -410 c 2
 -41 -410 l 2
 -95 -410 -142 -360 -142 -301 c 2
 -142 -260 l 1
 -278 -260 l 1
 -278 -164 l 1
 -142 -164 l 1
 -142 -102 l 2
 -142 -61 -112 -30 -75 -30 c 2
 14 -30 l 2
 69 -30 103 -67 103 -103 c 2
 103 -198 l 2
 103 -233 76 -260 41 -260 c 2
 -47 -260 l 1
 -47 -279 l 2
 -47 -298 -30 -315 -15 -315 c 2
 137 -315 l 2
14 -156 m 2
 14 -143 l 2
 14 -130 9 -124 -1 -124 c 2
 -28 -124 l 2
 -40 -124 -47 -128 -47 -138 c 2
 -47 -164 l 1
 -1 -164 l 2
 9 -164 14 -162 14 -156 c 2
EndSplineSet
EndChar

StartChar: ta_ailengthmark.sub
Encoding: 186 -1 186
Width: 192
VWidth: 999
Flags: HW
LayerCount: 2
Fore
SplineSet
322 -73 m 1
 358 -87 384 -122 384 -167 c 2
 385 -270 l 2
 385 -349 327 -407 255 -407 c 2
 -32 -407 l 1
 -32 -410 l 1
 -107 -410 -161 -345 -161 -273 c 1
 -378 -273 l 1
 -378 -178 l 1
 -174 -178 l 1
 -174 -150 l 2
 -174 -84 -120 -29 -52 -29 c 2
 17 -29 l 2
 70 -29 112 -62 112 -110 c 2
 112 -197 l 2
 112 -233 81 -273 30 -273 c 2
 -52 -273 l 1
 -52 -295 -28 -314 -6 -314 c 2
 221 -314 l 2
 252 -314 276 -292 276 -264 c 2
 276 -178 l 2
 276 -159 268 -124 235 -124 c 2
 152 -124 l 1
 152 -29 l 1
 227 -29 l 2
 265 -29 289 6 289 34 c 2
 289 136 l 2
 289 168 264 176 249 176 c 2
 195 176 l 1
 195 271 l 1
 281 271 l 2
 340 271 384 219 384 148 c 2
 384 33 l 2
 384 -16 355 -53 322 -73 c 1
-19 -108 m 2
 -39 -108 -51 -123 -51 -136 c 2
 -51 -176 l 1
 -10 -176 l 2
 9 -176 18 -171 17 -162 c 1
 17 -136 l 2
 17 -124 12 -108 -11 -108 c 2
 -19 -108 l 2
EndSplineSet
EndChar

StartChar: tha.base
Encoding: 188 -1 188
Width: 729
VWidth: 999
Flags: HW
LayerCount: 2
Fore
SplineSet
191 396 m 2
 191 471 236 538 291 583 c 1
 204 583 l 1
 204 678 l 1
 761 678 l 1
 790 583 l 1
 886 506 901 431 901 393 c 2
 900 120 l 2
 900 50 853 -3 796 -3 c 2
 627 -3 l 2
 590 -3 554 26 545 60 c 1
 529 21 496 -3 463 -3 c 2
 299 -3 l 1
 299 -1 l 1
 241 -1 191 52 191 117 c 2
 191 396 l 2
735 91 m 2
 761 91 789 115 790 161 c 1
 790 393 l 2
 790 468 722 535 641 580 c 1
 441 580 l 1
 361 542 300 471 300 398 c 2
 300 144 l 2
 300 112 320 89 341 89 c 2
 428 91 l 1
 464 91 491 117 491 146 c 2
 491 201 l 1
 600 201 l 1
 600 141 l 2
 600 115 624 91 660 91 c 2
 735 91 l 2
600 -144 m 1
 491 -144 l 1
 491 -7 l 1
 600 -7 l 1
 600 -144 l 1
604 299 m 1
 493 299 l 1
 493 408 l 1
 604 408 l 1
 604 299 l 1
EndSplineSet
EndChar

StartChar: tha.imathra
Encoding: 189 -1 189
Width: 866
VWidth: 999
Flags: HW
LayerCount: 2
Fore
SplineSet
192 797 m 2
 192 855 233 898 286 898 c 2
 524 898 l 2
 565 898 600 881 628 844 c 1
 791 687 l 2
 865 616 902 541 902 461 c 1
 900 147 l 1
 900 59 846 -3 790 -3 c 2
 614 -3 l 2
 574 -3 539 28 531 66 c 1
 520 32 494 -3 455 -3 c 2
 313 -3 l 1
 313 0 l 1
 245 0 191 58 191 132 c 2
 191 451 l 2
 191 497 226 555 299 628 c 1
 241 650 192 688 192 728 c 2
 192 797 l 2
347 802 m 2
 322 802 301 784 301 761 c 2
 301 743 l 2
 301 723 319 702 356 680 c 1
 670 679 l 1
 553 784 l 2
 539 796 521 802 499 802 c 2
 347 802 l 2
731 93 m 2
 765 93 791 116 792 142 c 1
 792 461 l 2
 792 510 757 556 713 584 c 1
 416 584 l 1
 364 555 302 502 302 448 c 2
 302 143 l 2
 302 117 326 93 349 93 c 2
 426 93 l 2
 452 93 480 117 480 148 c 2
 480 203 l 1
 588 203 l 1
 588 156 l 2
 588 125 611 93 634 93 c 2
 731 93 l 2
602 -142 m 1
 494 -142 l 1
 494 -5 l 1
 602 -5 l 1
 602 -142 l 1
595 301 m 1
 484 301 l 1
 484 410 l 1
 595 410 l 1
 595 301 l 1
EndSplineSet
LCarets2: 1 0
EndChar

StartChar: tha.sub
Encoding: 190 -1 190
Width: 166
VWidth: 999
Flags: HW
AnchorPoint: "Sub" -380 -24 mark 0
AnchorPoint: "Sub" 320 -406 basemark 0
LayerCount: 2
Fore
SplineSet
-231 -369 m 2
 -283 -369 -327 -331 -327 -293 c 2
 -327 -205 l 2
 -327 -190 -313 -169 -286 -143 c 1
 -144 -42 l 1
 -96 -16 l 1
 115 -16 l 2
 133 -16 149 -24 164 -42 c 1
 292 -150 l 1
 325 -174 341 -199 341 -225 c 1
 339 -293 l 1
 339 -331 300 -369 250 -369 c 2
 108 -369 l 2
 64 -369 28 -336 14 -301 c 1
 2 -338 -38 -369 -89 -369 c 2
 -231 -369 l 2
59 -411 m 1
 -36 -411 l 1
 -36 -370 l 1
 13 -328 l 1
 59 -376 l 1
 59 -411 l 1
218 -287 m 2
 239 -287 246 -273 246 -265 c 2
 246 -225 l 1
 239 -209 232 -199 223 -196 c 1
 114 -114 l 2
 101 -104 91 -100 75 -100 c 2
 -49 -100 l 2
 -70 -100 -88 -107 -103 -119 c 1
 -199 -182 l 1
 -199 -179 l 1
 -220 -202 -231 -217 -231 -225 c 2
 -231 -253 l 2
 -231 -273 -212 -287 -199 -287 c 2
 -82 -287 l 2
 -57 -287 -40 -269 -40 -247 c 1
 69 -247 l 1
 69 -271 88 -287 101 -287 c 2
 218 -287 l 2
59 -222 m 1
 -37 -222 l 1
 -37 -141 l 1
 59 -141 l 1
 59 -222 l 1
EndSplineSet
LCarets2: 1 0
EndChar

StartChar: da.base
Encoding: 192 -1 192
Width: 729
VWidth: 999
Flags: HW
LayerCount: 2
Fore
SplineSet
191 396 m 2
 191 471 236 538 291 583 c 1
 204 583 l 1
 204 678 l 1
 761 678 l 1
 790 583 l 1
 886 506 901 431 901 393 c 2
 900 120 l 2
 900 50 853 -3 796 -3 c 2
 627 -3 l 2
 590 -3 554 26 545 60 c 1
 529 21 496 -3 463 -3 c 2
 299 -3 l 1
 299 -1 l 1
 241 -1 191 52 191 117 c 2
 191 396 l 2
735 91 m 2
 761 91 789 115 790 161 c 1
 790 393 l 2
 790 468 722 535 641 580 c 1
 441 580 l 1
 361 542 300 471 300 398 c 2
 300 144 l 2
 300 112 320 89 341 89 c 2
 428 91 l 1
 464 91 491 117 491 146 c 2
 491 201 l 1
 600 201 l 1
 600 141 l 2
 600 115 624 91 660 91 c 2
 735 91 l 2
EndSplineSet
EndChar

StartChar: da.imathra
Encoding: 193 -1 193
Width: 866
VWidth: 999
Flags: HW
LayerCount: 2
Fore
SplineSet
192 797 m 2
 192 855 233 898 286 898 c 2
 524 898 l 2
 565 898 600 881 628 844 c 1
 791 687 l 2
 865 616 902 541 902 461 c 1
 900 147 l 1
 900 59 846 -3 790 -3 c 2
 614 -3 l 2
 574 -3 539 28 531 66 c 1
 520 32 494 -3 455 -3 c 2
 313 -3 l 1
 313 0 l 1
 245 0 191 58 191 132 c 2
 191 451 l 2
 191 497 226 555 299 628 c 1
 241 650 192 688 192 728 c 2
 192 797 l 2
347 802 m 2
 322 802 301 784 301 761 c 2
 301 743 l 2
 301 723 319 702 356 680 c 1
 670 679 l 1
 553 784 l 2
 539 796 521 802 499 802 c 2
 347 802 l 2
731 93 m 2
 765 93 791 116 792 142 c 1
 792 461 l 2
 792 510 757 556 713 584 c 1
 416 584 l 1
 364 555 302 502 302 448 c 2
 302 143 l 2
 302 117 326 93 349 93 c 2
 426 93 l 2
 452 93 480 117 480 148 c 2
 480 203 l 1
 588 203 l 1
 588 156 l 2
 588 125 611 93 634 93 c 2
 731 93 l 2
EndSplineSet
LCarets2: 1 0
EndChar

StartChar: da.sub
Encoding: 194 -1 194
Width: 158
VWidth: 999
Flags: HW
AnchorPoint: "Sub" -297 -26 mark 0
AnchorPoint: "Sub" 318 -366 basemark 0
LayerCount: 2
Fore
SplineSet
-204 -369 m 2
 -266 -369 -314 -325 -314 -279 c 2
 -314 -205 l 2
 -314 -182 -303 -161 -281 -143 c 2
 -137 -33 l 1
 -119 -22 -104 -16 -90 -16 c 2
 109 -16 l 2
 130 -16 148 -24 163 -42 c 1
 299 -170 l 1
 317 -183 326 -199 326 -219 c 2
 325 -293 l 1
 325 -330 296 -369 250 -369 c 2
 93 -369 l 2
 45 -369 20 -334 14 -307 c 1
 6 -343 -35 -369 -82 -369 c 2
 -204 -369 l 2
204 -286 m 2
 221 -286 230 -272 231 -259 c 1
 231 -237 l 2
 231 -219 223 -204 205 -192 c 1
 114 -114 l 1
 102 -102 88 -96 74 -96 c 2
 -50 -96 l 2
 -59 -96 -70 -100 -83 -109 c 2
 -192 -184 l 1
 -209 -200 -218 -212 -218 -219 c 2
 -218 -252 l 2
 -218 -269 -205 -286 -192 -286 c 2
 -83 -286 l 2
 -57 -286 -36 -271 -36 -247 c 2
 -36 -219 l 1
 59 -219 l 1
 59 -247 l 2
 59 -268 79 -286 100 -286 c 2
 204 -286 l 2
EndSplineSet
LCarets2: 1 0
EndChar

StartChar: dha.base
Encoding: 196 -1 196
Width: 729
VWidth: 999
Flags: HW
LayerCount: 2
Fore
SplineSet
191 396 m 2
 191 471 236 538 291 583 c 1
 204 583 l 1
 204 678 l 1
 761 678 l 1
 790 583 l 1
 886 506 901 431 901 393 c 2
 900 120 l 2
 900 50 853 -3 796 -3 c 2
 627 -3 l 2
 590 -3 554 26 545 60 c 1
 529 21 496 -3 463 -3 c 2
 299 -3 l 1
 299 -1 l 1
 241 -1 191 52 191 117 c 2
 191 396 l 2
735 91 m 2
 761 91 789 115 790 161 c 1
 790 393 l 2
 790 468 722 535 641 580 c 1
 441 580 l 1
 361 542 300 471 300 398 c 2
 300 144 l 2
 300 112 320 89 341 89 c 2
 428 91 l 1
 464 91 491 117 491 146 c 2
 491 201 l 1
 600 201 l 1
 600 141 l 2
 600 115 624 91 660 91 c 2
 735 91 l 2
600 -144 m 1
 491 -144 l 1
 491 -7 l 1
 600 -7 l 1
 600 -144 l 1
EndSplineSet
EndChar

StartChar: dha.imathra
Encoding: 197 -1 197
Width: 866
VWidth: 999
Flags: HW
LayerCount: 2
Fore
SplineSet
192 797 m 2
 192 855 233 898 286 898 c 2
 524 898 l 2
 565 898 600 881 628 844 c 1
 791 687 l 2
 865 616 902 541 902 461 c 1
 900 147 l 1
 900 59 846 -3 790 -3 c 2
 614 -3 l 2
 574 -3 539 28 531 66 c 1
 520 32 494 -3 455 -3 c 2
 313 -3 l 1
 313 0 l 1
 245 0 191 58 191 132 c 2
 191 451 l 2
 191 497 226 555 299 628 c 1
 241 650 192 688 192 728 c 2
 192 797 l 2
347 802 m 2
 322 802 301 784 301 761 c 2
 301 743 l 2
 301 723 319 702 356 680 c 1
 670 679 l 1
 553 784 l 2
 539 796 521 802 499 802 c 2
 347 802 l 2
731 93 m 2
 765 93 791 116 792 142 c 1
 792 461 l 2
 792 510 757 556 713 584 c 1
 416 584 l 1
 364 555 302 502 302 448 c 2
 302 143 l 2
 302 117 326 93 349 93 c 2
 426 93 l 2
 452 93 480 117 480 148 c 2
 480 203 l 1
 588 203 l 1
 588 156 l 2
 588 125 611 93 634 93 c 2
 731 93 l 2
602 -142 m 1
 494 -142 l 1
 494 -5 l 1
 602 -5 l 1
 602 -142 l 1
EndSplineSet
LCarets2: 1 0
EndChar

StartChar: dha.sub
Encoding: 198 -1 198
Width: 158
VWidth: 999
Flags: HW
AnchorPoint: "Sub" -316 -36 mark 0
AnchorPoint: "Sub" 321 -382 basemark 0
LayerCount: 2
Fore
SplineSet
-231 -369 m 2
 -276 -369 -313 -331 -313 -292 c 2
 -313 -204 l 2
 -313 -187 -304 -168 -286 -149 c 1
 -143 -41 l 1
 -95 -15 l 1
 115 -15 l 2
 133 -15 149 -23 164 -41 c 1
 292 -156 l 1
 315 -171 327 -193 327 -223 c 1
 325 -293 l 1
 325 -330 296 -369 250 -369 c 2
 108 -369 l 2
 64 -369 28 -336 14 -301 c 1
 3 -337 -39 -369 -89 -369 c 2
 -231 -369 l 2
60 -409 m 1
 -36 -409 l 1
 -36 -369 l 1
 14 -327 l 1
 60 -369 l 1
 60 -409 l 1
207 -282 m 1
 220 -281 234 -275 232 -263 c 1
 232 -221 l 1
 226 -205 219 -195 210 -192 c 1
 115 -110 l 1
 103 -101 89 -96 75 -96 c 2
 -49 -96 l 2
 -58 -96 -68 -101 -81 -110 c 2
 -185 -178 l 1
 -213 -207 l 1
 -214 -210 -214 -211 -215 -215 c 1
 -215 -256 l 2
 -215 -274 -211 -282 -202 -282 c 2
 -80 -282 l 2
 -52 -282 -34 -260 -34 -228 c 1
 62 -228 l 1
 62 -257 80 -282 103 -282 c 2
 207 -282 l 1
EndSplineSet
LCarets2: 1 0
EndChar

StartChar: na.base
Encoding: 200 -1 200
Width: 670
VWidth: 999
Flags: HW
LayerCount: 2
Fore
SplineSet
661 683 m 1
 780 671 841 567 841 479 c 2
 840 123 l 2
 840 54 798 0 744 0 c 2
 554 0 l 2
 502 0 458 47 458 109 c 2
 458 327 l 2
 458 353 444 381 424 381 c 2
 336 381 l 2
 316 381 296 359 296 327 c 2
 296 138 l 2
 296 110 314 96 327 96 c 2
 350 96 l 1
 350 1 l 1
 300 1 l 2
 237 1 187 51 187 110 c 2
 187 350 l 2
 187 424 236 479 295 479 c 2
 459 479 l 2
 518 479 568 421 568 341 c 2
 568 132 l 2
 568 112 583 96 601 96 c 2
 695 96 l 2
 714 96 730 121 730 150 c 2
 730 487 l 2
 730 542 677 578 622 587 c 1
 199 587 l 1
 199 683 l 1
 661 683 l 1
EndSplineSet
EndChar

StartChar: na.imathra
Encoding: 201 -1 201
Width: 792
VWidth: 999
Flags: HW
LayerCount: 2
Fore
SplineSet
723 794 m 2
 780 794 818 747 818 686 c 1
 823 109 l 1
 823 48 785 1 729 1 c 2
 569 1 l 2
 515 1 469 49 469 109 c 2
 469 322 l 2
 469 353 441 369 414 369 c 2
 323 369 l 2
 300 369 278 351 278 322 c 2
 278 138 l 2
 278 114 296 97 318 97 c 2
 345 97 l 1
 345 2 l 1
 291 2 l 2
 229 2 181 42 181 91 c 2
 181 351 l 2
 181 416 231 466 290 466 c 2
 454 466 l 2
 521 466 562 402 562 343 c 2
 562 140 l 2
 562 118 577 98 595 98 c 2
 670 98 l 2
 696 98 712 120 712 148 c 2
 712 659 l 2
 712 689 695 699 684 699 c 2
 635 699 l 2
 622 699 615 691 615 673 c 2
 615 631 l 1
 616 618 626 605 642 605 c 2
 669 605 l 1
 669 509 l 1
 607 509 l 2
 550 509 505 551 505 599 c 2
 505 700 l 2
 505 754 549 794 606 794 c 2
 723 794 l 2
EndSplineSet
LCarets2: 1 0
EndChar

StartChar: na.sub
Encoding: 202 -1 202
Width: 139
VWidth: 999
Flags: HW
AnchorPoint: "Sub" -279 39 mark 0
AnchorPoint: "Sub" 288 -402 basemark 0
LayerCount: 2
Fore
SplineSet
162 -328 m 0
 175 -328 189 -319 189 -303 c 2
 189 -275 l 1
 284 -275 l 1
 284 -334 l 2
 284 -381 250 -410 216 -410 c 2
 135 -410 l 2
 108 -410 71 -387 26 -341 c 1
 -15 -381 -52 -401 -84 -401 c 2
 -201 -401 l 2
 -245 -401 -274 -366 -274 -328 c 2
 -274 -247 l 2
 -274 -222 -266 -201 -248 -184 c 1
 -232 -166 -211 -157 -188 -157 c 2
 -65 -157 l 2
 -42 -157 -12 -174 26 -210 c 1
 57 -179 73 -157 73 -144 c 2
 73 -90 l 2
 73 -58 60 -31 40 -31 c 1
 40 61 l 1
 106 61 168 -1 168 -90 c 2
 168 -144 l 2
 168 -186 143 -232 93 -280 c 1
 129 -312 152 -328 162 -328 c 0
-179 -302 m 2
 -179 -313 -167 -321 -151 -321 c 2
 -106 -321 l 2
 -80 -321 -55 -305 -30 -275 c 1
 -42 -261 -55 -254 -71 -254 c 2
 -152 -254 l 2
 -162 -254 -179 -257 -179 -274 c 2
 -179 -302 l 2
EndSplineSet
LCarets2: 1 0
EndChar

StartChar: pa.base
Encoding: 204 -1 204
Width: 806
VWidth: 999
Flags: HW
LayerCount: 2
Fore
SplineSet
834 585 m 1
 178 585 l 1
 178 680 l 1
 834 680 l 1
 834 585 l 1
615 369 m 1
 506 369 l 1
 506 499 l 1
 615 499 l 1
 615 369 l 1
846 543 m 1
 915 511 970 458 970 401 c 2
 970 114 l 2
 970 53 930 -3 869 -3 c 1
 869 -1 l 1
 657 -1 l 2
 607 -1 566 36 560 82 c 1
 552 35 509 -1 466 -1 c 2
 269 -1 l 2
 212 -1 166 46 166 103 c 2
 166 409 l 1
 339 409 l 2
 405 409 466 357 466 281 c 2
 466 233 l 1
 357 233 l 1
 357 273 l 2
 357 299 341 314 317 314 c 2
 275 314 l 1
 275 158 l 2
 275 125 305 95 338 95 c 2
 439 95 l 2
 481 95 507 128 507 158 c 2
 507 272 l 1
 615 272 l 1
 615 158 l 2
 615 125 645 95 677 95 c 2
 801 95 l 2
 833 95 861 122 861 158 c 2
 861 396 l 2
 861 419 837 440 788 460 c 1
 846 543 l 1
EndSplineSet
EndChar

StartChar: pa.imathra
Encoding: 205 -1 205
Width: 943
VWidth: 999
Flags: HW
LayerCount: 2
Fore
SplineSet
627 665 m 0
 627 631 604 604 578 604 c 0
 569 604 556 607 534 612 c 1
 501 617 465 617 448 660 c 1
 441 681 l 130
 434 703 433 718 433 727 c 0
 433 727 436 837 492 859 c 128
 492 859 551 878 602 878 c 0
 627 878 695 871 717 860 c 0
 747 844 761 820 766 773 c 1
 772 743 775 716 775 692 c 0
 775 636 752 554 751 551 c 0
 741 525 723 505 698 495 c 1
 679 489 664 484 653 481 c 2
 591 460 l 130
 570 453 552 450 537 450 c 0
 478 450 468 512 468 530 c 0
 468 546 478 591 513 591 c 0
 535 591 579 571 601 571 c 0
 617 571 626 576 633 577 c 1
 644 581 650 588 653 600 c 130
 656 614 l 1
 666 649 673 677 673 697 c 0
 673 716 669 733 656 750 c 2
 648 762 l 1
 638 775 619 785 600 785 c 0
 589 785 558 777 554 771 c 128
 551 767 548 753 548 741 c 256
 548 714 561 709 575 705 c 1
 603 705 l 1
 617 700 627 684 627 665 c 0
845 543 m 1
 914 511 969 458 969 401 c 2
 970 114 l 2
 970 53 930 -3 869 -3 c 1
 869 0 l 1
 657 0 l 2
 610 0 573 41 560 82 c 1
 552 35 509 0 466 0 c 2
 269 0 l 2
 212 0 166 46 166 103 c 2
 166 410 l 1
 338 410 l 2
 404 410 466 357 466 281 c 2
 466 233 l 1
 356 233 l 1
 356 273 l 2
 356 299 340 315 316 315 c 2
 274 315 l 1
 274 158 l 2
 274 125 304 96 337 96 c 2
 452 96 l 2
 483 96 506 127 506 164 c 2
 506 273 l 1
 614 273 l 1
 614 164 l 2
 614 125 643 96 676 96 c 2
 791 96 l 2
 830 96 860 129 860 172 c 2
 860 382 l 2
 860 415 836 441 787 461 c 1
 845 543 l 1
EndSplineSet
LCarets2: 1 0
EndChar

StartChar: pa.sub
Encoding: 206 -1 206
Width: 163
VWidth: 999
Flags: HW
AnchorPoint: "Sub" -320 129 mark 0
AnchorPoint: "Sub" 326 -384 basemark 0
LayerCount: 2
Fore
SplineSet
210 173 m 1
 280 135 334 72 334 5 c 2
 334 -241 l 2
 334 -313 297 -372 253 -372 c 2
 129 -372 l 2
 90 -372 51 -335 33 -305 c 1
 13 -340 -23 -373 -61 -373 c 2
 -198 -373 l 1
 -198 -370 l 1
 -266 -370 -319 -324 -319 -262 c 2
 -319 -185 l 2
 -319 -121 -253 -70 -170 -70 c 2
 -75 -70 l 1
 -75 -220 l 1
 -170 -220 l 1
 -170 -165 l 1
 -200 -165 -223 -178 -223 -198 c 2
 -223 -247 l 2
 -223 -267 -198 -287 -169 -287 c 2
 -87 -287 l 2
 -45 -287 -15 -260 -15 -220 c 2
 -15 -165 l 1
 82 -165 l 1
 82 -205 l 2
 82 -251 113 -287 144 -287 c 2
 211 -287 l 2
 228 -287 239 -267 239 -234 c 2
 239 -1 l 2
 239 41 214 77 163 105 c 1
 210 173 l 1
80 -413 m 1
 -17 -413 l 1
 -17 -366 l 1
 33 -338 l 1
 80 -366 l 1
 80 -413 l 1
EndSplineSet
LCarets2: 1 0
EndChar

StartChar: pha.base
Encoding: 208 -1 208
Width: 806
VWidth: 999
Flags: HW
LayerCount: 2
Fore
SplineSet
834 585 m 1
 178 585 l 1
 178 680 l 1
 834 680 l 1
 834 585 l 1
615 369 m 1
 506 369 l 1
 506 499 l 1
 615 499 l 1
 615 369 l 1
846 543 m 1
 915 511 970 458 970 401 c 2
 970 114 l 2
 970 53 930 -3 869 -3 c 1
 869 -1 l 1
 657 -1 l 2
 607 -1 566 36 560 82 c 1
 552 35 509 -1 466 -1 c 2
 269 -1 l 2
 212 -1 166 46 166 103 c 2
 166 409 l 1
 339 409 l 2
 405 409 466 357 466 281 c 2
 466 233 l 1
 357 233 l 1
 357 273 l 2
 357 299 341 314 317 314 c 2
 275 314 l 1
 275 158 l 2
 275 125 305 95 338 95 c 2
 439 95 l 2
 481 95 507 128 507 158 c 2
 507 272 l 1
 615 272 l 1
 615 158 l 2
 615 125 645 95 677 95 c 2
 801 95 l 2
 833 95 861 122 861 158 c 2
 861 396 l 2
 861 419 837 440 788 460 c 1
 846 543 l 1
613 -143 m 1
 504 -143 l 1
 504 -7 l 1
 613 -7 l 1
 613 -143 l 1
EndSplineSet
EndChar

StartChar: pha.imathra
Encoding: 209 -1 209
Width: 943
VWidth: 999
Flags: HW
LayerCount: 2
Fore
SplineSet
663 875 m 2
 726 875 764 826 764 775 c 2
 766 615 l 1
 766 542 715 480 651 480 c 2
 479 480 l 1
 479 574 l 1
 623 574 l 2
 641 574 656 594 656 615 c 2
 656 751 l 2
 656 770 647 779 628 779 c 2
 568 779 l 1
 561 778 547 773 547 752 c 2
 547 733 l 1
 548 719 560 706 573 706 c 2
 601 706 l 1
 601 612 l 1
 532 612 l 2
 481 612 437 642 437 684 c 2
 437 780 l 2
 437 834 482 875 541 875 c 2
 663 875 l 2
843 545 m 1
 912 513 967 460 967 403 c 2
 968 116 l 2
 968 55 928 -1 867 -1 c 1
 867 2 l 1
 655 2 l 2
 608 2 571 43 558 84 c 1
 550 37 506 2 463 2 c 2
 267 2 l 2
 210 2 164 48 164 105 c 2
 164 411 l 1
 336 411 l 2
 402 411 463 359 463 283 c 2
 463 235 l 1
 354 235 l 1
 354 275 l 2
 354 301 338 316 314 316 c 2
 272 316 l 1
 272 160 l 2
 272 127 302 97 335 97 c 2
 450 97 l 2
 481 97 504 128 504 165 c 2
 504 274 l 1
 612 274 l 1
 612 165 l 2
 612 126 641 98 674 98 c 2
 789 98 l 2
 828 98 858 131 858 174 c 2
 858 383 l 2
 858 416 834 442 785 462 c 1
 843 545 l 1
612 -141 m 1
 503 -141 l 1
 503 -5 l 1
 612 -5 l 1
 612 -141 l 1
EndSplineSet
LCarets2: 1 0
EndChar

StartChar: pha.sub
Encoding: 210 -1 210
Width: 149
VWidth: 999
Flags: HW
AnchorPoint: "Sub" -288 179 mark 0
AnchorPoint: "Sub" 292 -369 basemark 0
LayerCount: 2
Fore
SplineSet
147 217 m 1
 244 195 306 106 306 -2 c 1
 307 -209 l 2
 307 -289 272 -346 230 -346 c 2
 110 -346 l 2
 60 -346 25 -319 16 -287 c 1
 6 -319 -19 -355 -70 -355 c 2
 -211 -355 l 2
 -256 -355 -299 -314 -299 -253 c 2
 -299 -143 l 2
 -299 -93 -259 -55 -205 -55 c 2
 -90 -55 l 1
 -90 -139 l 1
 -164 -139 l 2
 -181 -139 -205 -145 -205 -170 c 2
 -205 -238 l 2
 -205 -251 -193 -265 -178 -265 c 2
 -81 -265 l 2
 -53 -265 -34 -235 -34 -198 c 2
 -34 -165 l 1
 55 -165 l 1
 55 -205 l 2
 55 -238 79 -265 104 -265 c 2
 186 -265 l 2
 205 -265 213 -234 213 -210 c 2
 213 -1 l 2
 213 74 171 126 121 136 c 1
 147 217 l 1
53 -412 m 1
 -36 -412 l 1
 -36 -371 l 1
 13 -317 l 1
 53 -363 l 1
 53 -412 l 1
EndSplineSet
LCarets2: 1 0
EndChar

StartChar: ba
Encoding: 211 3244 211
Width: 903
VWidth: 999
Flags: HW
LayerCount: 2
Fore
SplineSet
767 682 m 2
 851 682 929 616 929 518 c 2
 929 146 l 2
 929 60 859 0 780 0 c 2
 629 0 l 2
 587 0 546 27 535 68 c 1
 525 30 490 0 441 0 c 2
 271 0 l 2
 200 0 141 63 141 145 c 2
 141 245 l 1
 359 376 l 2
 377 386 385 405 385 431 c 2
 385 531 l 2
 385 561 363 585 332 585 c 2
 251 585 l 1
 251 544 l 2
 251 522 266 503 285 503 c 2
 319 503 l 1
 319 408 l 1
 259 408 l 2
 195 408 142 461 142 525 c 2
 142 680 l 1
 345 680 l 2
 433 680 497 613 497 531 c 2
 497 380 l 2
 497 357 488 338 469 326 c 1
 251 191 l 1
 251 148 l 2
 251 118 269 95 291 95 c 2
 422 95 l 2
 457 95 482 128 482 158 c 2
 482 204 l 1
 590 204 l 1
 590 149 l 2
 590 123 615 95 653 95 c 2
 761 95 l 2
 792 95 820 127 820 171 c 2
 820 513 l 2
 820 557 785 586 747 586 c 2
 629 586 l 1
 629 682 l 1
 767 682 l 2
EndSplineSet
LCarets2: 1 0
EndChar

StartChar: ba.base
Encoding: 212 -1 212
Width: 765
VWidth: 999
Flags: HW
LayerCount: 2
Fore
SplineSet
794 657 m 1
 873 629 929 562 929 465 c 2
 927 138 l 2
 927 61 863 1 785 1 c 2
 640 1 l 2
 588 1 543 31 532 69 c 1
 522 33 484 1 424 1 c 2
 282 1 l 2
 202 1 138 62 138 132 c 2
 138 247 l 1
 356 370 l 2
 373 380 382 398 382 425 c 2
 382 533 l 2
 382 565 358 587 328 587 c 2
 248 587 l 1
 248 532 l 2
 248 514 260 506 268 506 c 2
 301 506 l 1
 301 411 l 1
 255 411 l 2
 191 411 138 464 138 528 c 2
 138 683 l 1
 342 683 l 2
 427 683 492 616 492 533 c 2
 492 382 l 2
 492 359 484 340 465 328 c 1
 247 193 l 1
 247 139 l 2
 247 113 269 97 287 97 c 2
 432 97 l 2
 459 97 478 120 478 147 c 2
 478 205 l 1
 587 205 l 1
 587 150 l 2
 587 122 609 97 635 97 c 2
 759 97 l 2
 794 97 818 130 818 160 c 2
 818 460 l 2
 818 534 756 588 690 588 c 2
 628 588 l 1
 628 683 l 1
 794 683 l 1
 794 657 l 1
EndSplineSet
EndChar

StartChar: ba.imathra
Encoding: 213 -1 213
Width: 897
VWidth: 999
Flags: HW
LayerCount: 2
Fore
SplineSet
822 805 m 2
 878 805 923 737 923 651 c 2
 921 149 l 2
 921 70 860 1 780 1 c 2
 635 1 l 2
 581 1 539 31 526 69 c 1
 516 29 472 1 418 1 c 2
 263 1 l 2
 191 1 132 63 132 132 c 2
 132 227 l 1
 336 355 l 2
 364 372 378 395 378 424 c 2
 378 532 l 2
 378 564 351 586 323 586 c 2
 240 586 l 1
 240 546 l 2
 240 527 255 505 276 505 c 2
 295 505 l 1
 295 410 l 1
 263 410 l 2
 194 410 132 469 132 541 c 2
 132 682 l 1
 336 682 l 2
 428 682 499 615 499 532 c 2
 499 381 l 2
 499 357 485 335 459 315 c 1
 255 177 l 1
 255 149 l 2
 255 121 278 96 309 96 c 2
 413 96 l 2
 448 96 472 128 472 158 c 2
 472 204 l 1
 582 204 l 1
 582 164 l 2
 582 127 614 96 658 96 c 2
 753 96 l 2
 784 96 813 119 813 163 c 2
 813 651 l 2
 813 685 801 711 787 711 c 2
 731 711 l 1
 715 710 705 697 705 683 c 2
 705 614 l 1
 706 601 720 588 731 588 c 2
 774 588 l 1
 774 493 l 1
 699 493 l 2
 642 493 596 541 596 602 c 2
 596 697 l 2
 596 759 652 805 714 805 c 2
 822 805 l 2
EndSplineSet
LCarets2: 1 0
EndChar

StartChar: ba.sub
Encoding: 214 -1 214
Width: 163
VWidth: 999
Flags: HW
AnchorPoint: "Sub" -337 139 mark 0
AnchorPoint: "Sub" 329 -376 basemark 0
LayerCount: 2
Fore
SplineSet
191 -307 m 2
 220 -307 239 -283 239 -261 c 2
 239 53 l 2
 239 101 223 136 191 157 c 1
 295 157 l 1
 322 136 335 109 335 76 c 2
 334 -252 l 2
 334 -325 281 -388 216 -388 c 2
 156 -388 l 2
 101 -388 56 -354 48 -315 c 1
 23 -359 -25 -388 -73 -388 c 2
 -211 -388 l 2
 -273 -388 -319 -349 -319 -307 c 2
 -319 -219 l 2
 -319 -183 -288 -156 -247 -156 c 2
 -156 -156 l 2
 -147 -156 -143 -152 -143 -143 c 2
 -143 -124 l 1
 -144 -118 -148 -116 -156 -116 c 2
 -307 -116 l 1
 -307 -34 l 1
 -114 -34 l 2
 -75 -34 -47 -60 -47 -90 c 2
 -47 -165 l 2
 -47 -204 -80 -234 -123 -234 c 2
 -196 -234 l 2
 -214 -234 -223 -238 -223 -247 c 2
 -223 -287 l 2
 -223 -298 -208 -307 -196 -307 c 2
 -86 -307 l 2
 -39 -307 0 -271 0 -225 c 2
 0 -185 l 1
 95 -185 l 1
 95 -233 l 2
 95 -274 123 -307 149 -307 c 2
 191 -307 l 2
EndSplineSet
LCarets2: 1 0
EndChar

StartChar: bha.base
Encoding: 216 -1 216
Width: 765
VWidth: 999
Flags: HW
LayerCount: 2
Fore
SplineSet
794 657 m 1
 873 629 929 562 929 465 c 2
 927 138 l 2
 927 61 863 1 785 1 c 2
 640 1 l 2
 588 1 543 31 532 69 c 1
 522 33 484 1 424 1 c 2
 282 1 l 2
 202 1 138 62 138 132 c 2
 138 247 l 1
 356 370 l 2
 373 380 382 398 382 425 c 2
 382 533 l 2
 382 565 358 587 328 587 c 2
 248 587 l 1
 248 532 l 2
 248 514 260 506 268 506 c 2
 301 506 l 1
 301 411 l 1
 255 411 l 2
 191 411 138 464 138 528 c 2
 138 683 l 1
 342 683 l 2
 427 683 492 616 492 533 c 2
 492 382 l 2
 492 359 484 340 465 328 c 1
 247 193 l 1
 247 139 l 2
 247 113 269 97 287 97 c 2
 432 97 l 2
 459 97 478 120 478 147 c 2
 478 205 l 1
 587 205 l 1
 587 150 l 2
 587 122 609 97 635 97 c 2
 759 97 l 2
 794 97 818 130 818 160 c 2
 818 460 l 2
 818 534 756 588 690 588 c 2
 628 588 l 1
 628 683 l 1
 794 683 l 1
 794 657 l 1
588 -141 m 1
 479 -142 l 1
 479 -5 l 1
 588 -5 l 1
 588 -141 l 1
EndSplineSet
EndChar

StartChar: bha.imathra
Encoding: 217 -1 217
Width: 897
VWidth: 999
Flags: HW
LayerCount: 2
Fore
SplineSet
822 805 m 2
 878 805 923 737 923 651 c 2
 921 149 l 2
 921 70 860 1 780 1 c 2
 635 1 l 2
 581 1 539 31 526 69 c 1
 516 29 472 1 418 1 c 2
 263 1 l 2
 191 1 132 63 132 132 c 2
 132 227 l 1
 336 355 l 2
 364 372 378 395 378 424 c 2
 378 532 l 2
 378 564 351 586 323 586 c 2
 240 586 l 1
 240 546 l 2
 240 527 255 505 276 505 c 2
 295 505 l 1
 295 410 l 1
 263 410 l 2
 194 410 132 469 132 541 c 2
 132 682 l 1
 336 682 l 2
 428 682 499 615 499 532 c 2
 499 381 l 2
 499 357 485 335 459 315 c 1
 255 177 l 1
 255 149 l 2
 255 121 278 96 309 96 c 2
 413 96 l 2
 448 96 472 128 472 158 c 2
 472 204 l 1
 582 204 l 1
 582 164 l 2
 582 127 614 96 658 96 c 2
 753 96 l 2
 784 96 813 119 813 163 c 2
 813 651 l 2
 813 685 801 711 787 711 c 2
 731 711 l 1
 715 710 705 697 705 683 c 2
 705 614 l 1
 706 601 720 588 731 588 c 2
 774 588 l 1
 774 493 l 1
 699 493 l 2
 642 493 596 541 596 602 c 2
 596 697 l 2
 596 759 652 805 714 805 c 2
 822 805 l 2
580 -143 m 1
 472 -143 l 1
 472 -7 l 1
 580 -7 l 1
 580 -143 l 1
EndSplineSet
LCarets2: 1 0
EndChar

StartChar: bha.sub
Encoding: 218 -1 218
Width: 163
VWidth: 999
Flags: HW
AnchorPoint: "Sub" -314 155 mark 0
AnchorPoint: "Sub" 316 -379 basemark 0
LayerCount: 2
Fore
SplineSet
238 83 m 2
 238 139 202 159 185 163 c 1
 299 163 l 1
 322 144 334 119 334 89 c 2
 334 -246 l 2
 334 -317 284 -381 216 -381 c 2
 162 -381 l 2
 106 -381 65 -338 48 -292 c 1
 26 -329 -18 -381 -76 -381 c 2
 -225 -381 l 2
 -279 -381 -320 -347 -320 -306 c 2
 -320 -209 l 2
 -320 -182 -279 -164 -239 -164 c 2
 -157 -164 l 2
 -148 -164 -144 -155 -144 -138 c 2
 -144 -124 l 2
 -144 -115 -151 -110 -165 -110 c 2
 -307 -110 l 1
 -307 -30 l 1
 -115 -30 l 2
 -76 -30 -47 -51 -47 -83 c 2
 -47 -156 l 2
 -47 -200 -75 -238 -115 -238 c 2
 -197 -238 l 2
 -215 -238 -224 -242 -224 -252 c 2
 -224 -279 l 2
 -224 -290 -205 -301 -192 -301 c 2
 -96 -301 l 2
 -41 -301 -1 -261 -1 -219 c 2
 -1 -178 l 1
 94 -178 l 1
 94 -219 l 2
 94 -263 132 -300 170 -300 c 2
 190 -300 l 2
 215 -300 238 -279 238 -251 c 2
 238 83 l 2
89 -411 m 1
 7 -411 l 1
 7 -371 l 1
 47 -329 l 1
 89 -371 l 1
 89 -411 l 1
EndSplineSet
LCarets2: 1 0
EndChar

StartChar: ma.sub
Encoding: 222 -1 222
Width: 163
VWidth: 999
Flags: HW
AnchorPoint: "Sub" -71 95 mark 0
AnchorPoint: "Sub" 470 -405 basemark 0
LayerCount: 2
Fore
SplineSet
277 -327 m 2
 302 -327 350 -318 399 -247 c 1
 467 -301 l 1
 429 -357 370 -410 305 -410 c 2
 91 -410 l 2
 18 -410 -51 -368 -51 -306 c 2
 -51 -204 l 2
 -51 -184 -33 -164 4 -143 c 2
 86 -96 l 1
 86 -20 l 2
 86 2 68 13 51 13 c 1
 51 94 l 1
 87 94 l 2
 140 94 181 61 181 14 c 2
 181 -55 l 1
 277 -55 l 2
 313 -55 344 -85 344 -129 c 2
 344 -197 l 2
 344 -233 317 -259 289 -259 c 2
 140 -259 l 2
 106 -259 91 -232 91 -210 c 2
 91 -193 l 1
 60 -210 45 -223 45 -233 c 2
 45 -293 l 2
 45 -309 68 -327 104 -327 c 2
 277 -327 l 2
241 -192 m 1
 259 -191 263 -176 263 -170 c 2
 263 -156 l 2
 263 -144 255 -138 241 -138 c 2
 181 -138 l 1
 181 -170 l 2
 181 -185 185 -192 195 -192 c 2
 241 -192 l 1
EndSplineSet
LCarets2: 1 0
EndChar

StartChar: ya.sub
Encoding: 228 -1 228
Width: 249
VWidth: 999
Flags: HW
AnchorPoint: "Sub" -224 218 mark 0
AnchorPoint: "Sub" 284 -405 basemark 0
LayerCount: 2
Fore
SplineSet
263 247 m 2
 303 247 329 214 329 178 c 2
 330 95 l 1
 235 95 l 1
 235 137 l 2
 235 154 227 163 213 163 c 2
 167 163 l 1
 152 162 141 153 141 138 c 2
 141 83 l 2
 141 67 148 53 160 42 c 1
 227 -27 l 1
 260 -51 277 -83 277 -122 c 2
 277 -314 l 2
 277 -368 233 -409 187 -409 c 2
 -100 -409 l 2
 -138 -409 -173 -381 -173 -340 c 2
 -173 -306 l 2
 -173 -282 -164 -261 -146 -245 c 1
 -51 -177 l 1
 -33 -162 -25 -151 -25 -143 c 0
 -25 -130 -29 -124 -38 -124 c 2
 -74 -124 l 2
 -85 -124 -91 -130 -91 -143 c 2
 -91 -164 l 1
 -188 -164 l 1
 -188 -114 l 2
 -188 -76 -158 -42 -114 -42 c 2
 -5 -42 l 2
 43 -42 72 -77 72 -114 c 2
 72 -155 l 2
 72 -176 58 -197 30 -218 c 1
 -52 -272 l 2
 -70 -284 -79 -296 -79 -306 c 2
 -79 -314 l 1
 -78 -322 -74 -326 -66 -326 c 2
 152 -326 l 2
 173 -326 180 -302 180 -278 c 2
 180 -154 l 2
 180 -113 171 -87 152 -74 c 1
 85 -5 l 1
 57 20 44 40 44 55 c 2
 44 164 l 2
 44 209 83 247 126 247 c 2
 263 247 l 2
EndSplineSet
LCarets2: 1 0
EndChar

StartChar: ya.part
Encoding: 229 -1 229
Width: 970
VWidth: 999
Flags: HW
LayerCount: 2
Fore
SplineSet
1009 515 m 2
 1009 559 968 589 927 589 c 2
 763 589 l 1
 763 684 l 1
 961 684 l 1
 1000 672 l 1
 1030 661 1051 648 1064 636 c 0
 1089 612 1118 581 1118 530 c 2
 1119 140 l 2
 1119 62 1060 3 988 3 c 2
 790 3 l 2
 734 3 691 32 673 71 c 1
 651 33 608 3 552 3 c 2
 319 3 l 2
 247 3 191 64 191 139 c 2
 191 535 l 2
 191 620 261 685 345 685 c 2
 551 685 l 2
 637 685 709 619 709 535 c 2
 709 202 l 2
 709 141 761 98 818 98 c 2
 932 98 l 2
 978 98 1009 136 1009 173 c 2
 1009 515 l 2
536 99 m 2
 570 99 599 129 599 167 c 2
 599 530 l 2
 599 563 573 591 544 591 c 2
 358 591 l 2
 321 591 298 558 298 530 c 2
 298 162 l 2
 298 129 322 99 344 99 c 2
 536 99 l 2
EndSplineSet
EndChar

StartChar: ya.part.i
Encoding: 230 -1 230
Width: 1082
VWidth: 999
Flags: HW
LayerCount: 2
Fore
SplineSet
988 804 m 2
 1064 804 1119 731 1119 655 c 2
 1117 178 l 2
 1117 89 1045 1 945 1 c 2
 802 1 l 2
 738 1 687 29 667 69 c 1
 655 49 618 0 545 0 c 2
 330 0 l 2
 248 0 191 74 191 148 c 2
 191 532 l 2
 191 616 265 682 359 682 c 2
 551 682 l 2
 637 682 709 615 709 532 c 2
 709 199 l 2
 709 142 752 95 804 95 c 2
 947 95 l 2
 981 95 1009 129 1009 171 c 2
 1009 656 l 2
 1009 682 996 710 974 710 c 2
 941 710 l 2
 918 710 901 699 901 682 c 2
 901 636 l 2
 901 615 917 602 941 602 c 2
 967 602 l 1
 967 505 l 1
 919 505 l 2
 840 505 791 569 791 622 c 2
 791 695 l 2
 791 755 850 804 919 804 c 2
 988 804 l 2
537 95 m 2
 571 95 599 122 599 163 c 2
 599 541 l 2
 599 571 568 586 545 586 c 2
 358 586 l 2
 326 586 299 567 299 541 c 2
 299 157 l 2
 299 124 321 95 345 95 c 2
 537 95 l 2
EndSplineSet
EndChar

StartChar: ra.base
Encoding: 233 -1 233
Width: 614
VWidth: 999
Flags: HW
LayerCount: 2
Fore
SplineSet
643 670 m 1
 724 614 784 523 784 425 c 2
 783 158 l 2
 783 71 708 1 617 1 c 2
 354 1 l 2
 257 1 182 71 182 159 c 2
 182 425 l 2
 182 489 209 542 264 587 c 1
 196 587 l 1
 196 683 l 1
 643 683 l 1
 643 670 l 1
606 96 m 2
 645 96 674 125 673 164 c 1
 673 425 l 2
 673 498 624 557 578 587 c 1
 387 587 l 1
 336 557 292 499 292 425 c 2
 292 164 l 2
 292 127 321 96 361 96 c 2
 606 96 l 2
EndSplineSet
EndChar

StartChar: ra.below
Encoding: 234 -1 234
Width: 21
VWidth: 999
Flags: HW
AnchorPoint: "Sub" 158 -307 basemark 0
LayerCount: 2
Fore
SplineSet
-592 -104 m 1
 -583 -171 -527 -226 -460 -226 c 2
 -51 -226 l 2
 8 -226 81 -180 95 -91 c 1
 187 -91 l 1
 173 -201 94 -308 -30 -308 c 2
 -478 -308 l 2
 -600 -308 -686 -199 -686 -104 c 1
 -592 -104 l 1
EndSplineSet
EndChar

StartChar: ra.imathra
Encoding: 235 -1 235
Width: 751
VWidth: 999
Flags: HW
LayerCount: 2
Fore
SplineSet
186 791 m 2
 186 853 244 902 314 902 c 2
 409 902 l 2
 451 902 488 886 518 854 c 1
 648 745 786 600 786 487 c 2
 785 164 l 2
 785 60 725 2 676 2 c 2
 349 2 l 2
 263 2 186 72 186 164 c 2
 186 480 l 2
 186 531 213 579 267 623 c 1
 231 642 186 677 186 731 c 2
 186 791 l 2
338 806 m 2
 318 806 297 790 297 774 c 2
 297 732 l 2
 297 709 311 693 338 684 c 1
 558 684 l 1
 477 766 l 2
 451 793 428 806 406 806 c 2
 338 806 l 2
615 97 m 2
 650 97 676 127 677 165 c 1
 677 480 l 2
 677 516 661 551 629 588 c 1
 364 588 l 1
 318 542 295 507 295 480 c 2
 295 179 l 2
 295 137 324 97 364 97 c 2
 615 97 l 2
EndSplineSet
LCarets2: 1 0
EndChar

StartChar: ra.below.ra
Encoding: 236 -1 236
Width: 152
VWidth: 999
Flags: HW
AnchorPoint: "Sub" 126 -321 basemark 0
LayerCount: 2
Fore
SplineSet
-82 -246 m 2
 -2 -246 60 -177 60 -89 c 2
 60 273 l 1
 155 273 l 1
 156 -82 l 2
 156 -207 61 -327 -77 -327 c 2
 -255 -327 l 1
 -255 -246 l 1
 -82 -246 l 2
EndSplineSet
LCarets2: 1 0
EndChar

StartChar: ra.below.subcons
Encoding: 237 -1 237
Width: 152
VWidth: 999
Flags: HW
LayerCount: 2
Fore
SplineSet
408 -177 m 2
 408 -223 398 -340 378 -378 c 1
 341 -445 271 -500 176 -500 c 2
 -154 -500 l 1
 -154 -419 l 1
 170 -419 l 2
 210 -419 244 -404 271 -373 c 0
 297 -345 312 -240 312 -183 c 2
 312 208 l 1
 407 208 l 1
 408 -177 l 2
EndSplineSet
EndChar

StartChar: ra.below.large
Encoding: 238 -1 238
Width: 20
VWidth: 999
Flags: HW
AnchorPoint: "Sub" -20 -306 basemark 0
LayerCount: 2
Fore
SplineSet
-868 -104 m 1
 -859 -171 -804 -226 -737 -226 c 2
 -241 -226 l 2
 -182 -226 -109 -180 -95 -91 c 1
 -2 -91 l 1
 -15 -198 -93 -308 -220 -308 c 2
 -755 -308 l 2
 -877 -308 -962 -199 -962 -104 c 1
 -868 -104 l 1
EndSplineSet
EndChar

StartChar: ra_ailengthmark.sub
Encoding: 239 -1 239
Width: 177
VWidth: 999
Flags: HW
LayerCount: 2
Fore
SplineSet
-83 -247 m 2
 -3 -247 60 -178 60 -90 c 2
 60 272 l 1
 155 272 l 1
 155 -84 l 2
 155 -122 147 -157 131 -192 c 1
 279 -192 l 1
 279 -287 l 1
 155 -287 l 1
 155 -309 179 -327 211 -327 c 2
 338 -327 l 2
 367 -327 386 -306 386 -273 c 2
 386 -197 l 2
 386 -173 367 -149 338 -149 c 2
 278 -149 l 1
 278 -54 l 1
 331 -54 l 2
 364 -54 386 -26 386 8 c 2
 386 82 l 2
 386 106 373 122 352 122 c 2
 224 122 l 1
 224 202 l 1
 393 202 l 2
 443 202 483 160 483 102 c 2
 483 -7 l 2
 483 -49 458 -85 428 -97 c 1
 465 -111 483 -149 483 -176 c 2
 483 -291 l 2
 483 -356 437 -408 379 -408 c 2
 182 -408 l 1
 182 -410 l 1
 106 -410 53 -350 46 -291 c 1
 -5 -325 -53 -328 -78 -328 c 2
 -255 -328 l 1
 -255 -247 l 1
 -83 -247 l 2
EndSplineSet
EndChar

StartChar: rra
Encoding: 240 3249 240
Width: 795
VWidth: 999
Flags: HW
LayerCount: 2
Fore
SplineSet
854 687 m 2
 926 687 1005 638 1005 557 c 2
 1004 140 l 2
 1004 67 945 4 867 4 c 1
 867 1 l 1
 730 1 l 2
 671 1 622 40 605 91 c 1
 587 41 539 1 477 1 c 2
 341 1 l 2
 254 1 186 64 186 138 c 2
 186 547 l 2
 186 625 249 684 322 684 c 2
 498 684 l 1
 498 506 l 2
 498 480 478 449 438 413 c 1
 745 413 l 1
 708 450 690 482 690 509 c 2
 690 687 l 1
 854 687 l 2
818 100 m 2
 868 100 893 151 896 196 c 1
 896 537 l 2
 896 567 871 592 842 592 c 2
 800 592 l 1
 800 509 l 2
 800 479 822 448 868 414 c 1
 868 319 l 1
 322 319 l 1
 322 414 l 1
 367 451 390 482 390 509 c 2
 390 592 l 1
 349 592 l 2
 321 592 295 557 295 509 c 2
 295 176 l 2
 295 136 330 100 377 100 c 2
 450 100 l 2
 507 100 551 146 551 208 c 1
 660 208 l 1
 660 142 704 100 752 100 c 2
 818 100 l 2
EndSplineSet
LCarets2: 1 0
EndChar

StartChar: rra.imathra
Encoding: 241 -1 241
Width: 795
VWidth: 999
Flags: HW
LayerCount: 2
Fore
SplineSet
854 687 m 2
 926 687 1005 638 1005 557 c 2
 1004 140 l 2
 1004 67 945 4 867 4 c 1
 867 1 l 1
 730 1 l 2
 671 1 622 40 605 91 c 1
 587 41 539 1 477 1 c 2
 341 1 l 2
 254 1 186 64 186 138 c 2
 186 547 l 2
 186 625 249 684 322 684 c 2
 498 684 l 1
 498 506 l 2
 498 480 478 449 438 413 c 1
 745 413 l 1
 708 450 690 482 690 509 c 2
 690 687 l 1
 854 687 l 2
818 100 m 2
 868 100 893 151 896 196 c 1
 896 537 l 2
 896 567 871 592 842 592 c 2
 800 592 l 1
 800 509 l 2
 800 479 822 448 868 414 c 1
 868 319 l 1
 322 319 l 1
 322 414 l 1
 367 451 390 482 390 509 c 2
 390 592 l 1
 349 592 l 2
 321 592 295 557 295 509 c 2
 295 176 l 2
 295 136 330 100 377 100 c 2
 450 100 l 2
 507 100 551 146 551 208 c 1
 660 208 l 1
 660 142 704 100 752 100 c 2
 818 100 l 2
643 957 m 2
 681 957 706 929 706 894 c 2
 705 794 l 2
 705 748 673 709 633 709 c 2
 526 708 l 1
 526 769 l 1
 616 769 l 2
 628 769 637 781 637 794 c 2
 637 880 l 2
 637 891 631 897 620 897 c 2
 583 897 l 2
 574 897 570 890 570 880 c 2
 570 868 l 2
 570 858 578 851 585 851 c 2
 603 851 l 1
 603 792 l 1
 559 792 l 2
 524 792 500 813 500 837 c 2
 500 897 l 2
 500 932 527 957 566 957 c 2
 643 957 l 2
EndSplineSet
LCarets2: 1 0
EndChar

StartChar: rra.sub
Encoding: 242 -1 242
Width: 152
VWidth: 999
Flags: HW
AnchorPoint: "Sub" -303 -49 mark 0
AnchorPoint: "Sub" 356 -362 basemark 0
LayerCount: 2
Fore
SplineSet
259 -42 m 2
 317 -42 360 -88 360 -143 c 2
 359 -279 l 2
 359 -326 316 -369 263 -369 c 2
 107 -369 l 2
 73 -369 46 -349 26 -307 c 1
 12 -340 -24 -369 -65 -369 c 2
 -206 -369 l 2
 -259 -369 -303 -326 -303 -279 c 2
 -303 -143 l 2
 -303 -85 -257 -42 -202 -42 c 2
 -56 -42 l 1
 -86 -129 l 1
 154 -129 l 1
 113 -42 l 1
 259 -42 l 2
236 -286 m 2
 249 -286 262 -273 263 -260 c 1
 263 -149 l 2
 263 -133 253 -125 237 -124 c 1
 209 -124 l 1
 209 -178 l 1
 -151 -178 l 1
 -151 -124 l 1
 -179 -124 l 1
 -195 -125 -205 -133 -205 -149 c 2
 -205 -260 l 2
 -205 -273 -193 -286 -179 -286 c 2
 -97 -286 l 2
 -58 -286 -28 -258 -28 -224 c 2
 -28 -192 l 1
 81 -192 l 1
 81 -233 l 2
 81 -262 98 -286 121 -286 c 2
 236 -286 l 2
EndSplineSet
LCarets2: 1 0
EndChar

StartChar: la
Encoding: 243 3250 243
Width: 861
VWidth: 999
Flags: HW
LayerCount: 2
Fore
SplineSet
750 681 m 2
 835 681 895 614 895 532 c 2
 894 172 l 2
 894 78 822 1 730 1 c 2
 335 1 l 2
 257 1 186 68 186 164 c 2
 186 533 l 2
 186 622 260 682 340 682 c 2
 512 682 l 1
 512 532 l 2
 512 448 446 381 363 381 c 2
 335 381 l 1
 335 478 l 1
 363 478 l 2
 379 478 402 490 402 526 c 2
 402 586 l 1
 340 586 l 2
 318 586 294 561 294 531 c 2
 294 170 l 2
 294 135 320 108 348 108 c 2
 718 108 l 2
 746 108 773 138 773 176 c 2
 773 540 l 2
 773 567 755 586 730 586 c 2
 664 586 l 1
 664 681 l 1
 750 681 l 2
EndSplineSet
LCarets2: 1 0
EndChar

StartChar: la.base
Encoding: 244 -1 244
Width: 725
VWidth: 999
Flags: HW
LayerCount: 2
Fore
SplineSet
733 680 m 2
 827 680 895 597 895 511 c 2
 894 158 l 2
 894 68 827 -5 744 -5 c 2
 340 -5 l 1
 340 1 l 1
 261 1 185 69 185 164 c 2
 185 527 l 2
 185 617 257 683 340 683 c 2
 512 683 l 1
 512 527 l 2
 512 446 447 382 368 382 c 2
 335 382 l 1
 335 479 l 1
 377 479 l 2
 387 479 403 488 403 519 c 2
 403 587 l 1
 349 587 l 2
 320 587 294 561 294 532 c 2
 294 163 l 2
 294 135 320 110 354 110 c 2
 718 110 l 2
 754 110 786 138 786 178 c 2
 786 506 l 2
 786 551 755 585 718 585 c 2
 649 585 l 1
 649 680 l 1
 733 680 l 2
EndSplineSet
EndChar

StartChar: la.imathra
Encoding: 245 -1 245
Width: 861
VWidth: 999
Flags: HW
LayerCount: 2
Fore
SplineSet
763 805 m 2
 834 805 891 740 891 656 c 2
 892 175 l 2
 892 86 822 -2 715 -2 c 2
 332 -2 l 1
 332 1 l 1
 252 1 182 80 182 178 c 2
 182 528 l 2
 182 612 249 683 340 683 c 2
 509 683 l 1
 509 533 l 2
 509 448 448 382 374 382 c 2
 332 382 l 1
 332 479 l 1
 360 479 l 2
 384 479 400 504 400 533 c 2
 400 587 l 1
 340 587 l 2
 314 587 291 562 291 528 c 2
 291 175 l 2
 291 134 323 108 353 108 c 2
 722 108 l 2
 752 108 782 140 782 185 c 2
 782 655 l 2
 782 685 771 709 755 709 c 2
 729 709 l 2
 707 709 688 695 688 675 c 2
 688 627 l 2
 688 611 703 601 715 601 c 2
 755 601 l 1
 755 504 l 1
 709 504 l 2
 634 504 578 562 578 621 c 2
 578 676 l 2
 578 747 641 805 715 805 c 2
 763 805 l 2
EndSplineSet
LCarets2: 1 0
EndChar

StartChar: la.sub
Encoding: 246 -1 246
Width: 163
VWidth: 999
Flags: HW
AnchorPoint: "Sub" -320 -70 mark 0
AnchorPoint: "Sub" 325 -405 basemark 0
LayerCount: 2
Fore
SplineSet
221 -69 m 2
 274 -69 329 -111 329 -177 c 1
 330 -307 l 2
 330 -361 298 -410 250 -410 c 2
 167 -410 l 1
 167 -327 l 1
 200 -327 l 2
 218 -327 235 -313 235 -293 c 2
 235 -192 l 2
 235 -162 215 -150 195 -150 c 2
 104 -150 l 2
 70 -150 44 -170 44 -197 c 2
 44 -273 l 1
 -65 -273 l 1
 -65 -210 l 2
 -65 -180 -87 -150 -113 -150 c 2
 -195 -150 l 2
 -207 -150 -227 -160 -227 -184 c 2
 -227 -307 l 2
 -227 -319 -212 -327 -201 -327 c 2
 -173 -327 l 1
 -173 -410 l 1
 -228 -410 l 2
 -279 -410 -323 -374 -323 -328 c 2
 -323 -170 l 2
 -323 -108 -275 -69 -223 -69 c 2
 -91 -69 l 2
 -52 -69 -23 -96 -11 -129 c 1
 10 -89 39 -69 77 -69 c 2
 221 -69 l 2
EndSplineSet
LCarets2: 1 0
EndChar

StartChar: lla.base
Encoding: 248 -1 248
Width: 610
VWidth: 999
Flags: HW
LayerCount: 2
Fore
SplineSet
613 682 m 1
 704 674 777 608 777 527 c 2
 777 396 l 2
 777 313 720 247 645 247 c 2
 600 247 l 1
 618 235 626 220 626 201 c 2
 626 110 l 2
 626 58 591 2 531 2 c 2
 353 2 l 2
 299 2 258 46 258 92 c 2
 258 174 l 2
 258 197 274 222 305 248 c 1
 245 248 l 2
 159 248 93 317 93 397 c 2
 93 569 l 2
 93 633 157 684 230 684 c 2
 423 684 l 1
 423 528 l 2
 423 463 371 411 313 411 c 2
 258 411 l 1
 258 506 l 1
 285 506 l 2
 307 506 313 529 313 542 c 2
 313 587 l 1
 250 587 l 2
 229 587 204 578 204 559 c 2
 204 404 l 2
 204 374 235 342 277 342 c 2
 591 342 l 2
 633 342 667 374 667 410 c 2
 667 519 l 2
 667 546 648 578 604 587 c 1
 476 587 l 1
 476 682 l 1
 613 682 l 1
476 95 m 2
 500 95 516 122 517 149 c 1
 517 199 l 2
 517 220 505 236 482 245 c 1
 413 245 l 1
 383 230 367 210 367 185 c 2
 367 149 l 2
 367 122 388 95 413 95 c 2
 476 95 l 2
EndSplineSet
EndChar

StartChar: lla.imathra
Encoding: 249 -1 249
Width: 748
VWidth: 999
Flags: HW
LayerCount: 2
Fore
SplineSet
677 807 m 2
 733 807 778 750 778 677 c 2
 777 382 l 2
 777 309 726 247 662 247 c 2
 600 247 l 1
 618 235 626 215 626 187 c 2
 626 83 l 2
 626 39 596 1 557 1 c 2
 340 1 l 2
 294 1 258 46 258 91 c 2
 258 187 l 2
 258 207 271 227 294 247 c 1
 245 247 l 2
 159 247 94 316 94 396 c 2
 94 568 l 2
 94 632 158 683 231 683 c 2
 409 683 l 1
 409 527 l 2
 409 464 369 410 314 410 c 2
 259 410 l 1
 259 505 l 1
 285 505 l 2
 307 505 313 528 313 541 c 2
 313 586 l 1
 253 586 l 2
 214 586 205 559 205 546 c 2
 205 418 l 2
 205 372 243 342 280 342 c 2
 608 342 l 2
 641 342 668 372 668 411 c 2
 668 665 l 2
 668 691 655 712 635 712 c 2
 609 712 l 2
 580 712 559 694 559 671 c 2
 559 629 l 2
 559 609 581 588 601 588 c 2
 615 588 l 1
 615 494 l 1
 527 494 l 2
 485 494 451 535 451 582 c 2
 451 705 l 2
 451 767 492 807 533 807 c 2
 677 807 l 2
479 97 m 2
 502 97 519 117 518 138 c 1
 518 200 l 2
 518 221 501 243 486 246 c 1
 404 246 l 1
 381 237 369 222 369 203 c 2
 369 140 l 2
 369 118 384 99 404 99 c 1
 404 97 l 1
 479 97 l 2
EndSplineSet
LCarets2: 1 0
EndChar

StartChar: lla.sub
Encoding: 250 -1 250
Width: 142
VWidth: 999
Flags: HW
AnchorPoint: "Sub" -297 192 mark 0
AnchorPoint: "Sub" 274 -344 basemark 0
LayerCount: 2
Fore
SplineSet
190 245 m 1
 252 216 293 147 293 54 c 1
 290 -156 l 1
 290 -223 247 -273 200 -273 c 2
 153 -273 l 1
 153 -355 l 2
 153 -387 123 -409 88 -409 c 2
 -30 -409 l 2
 -62 -409 -89 -387 -89 -354 c 2
 -89 -272 l 1
 -171 -272 l 2
 -234 -272 -281 -222 -281 -169 c 2
 -281 -129 l 2
 -281 -71 -241 -28 -194 -28 c 2
 -49 -28 l 1
 -49 -156 l 1
 -132 -156 l 1
 -132 -110 l 1
 -166 -110 l 2
 -181 -110 -185 -123 -185 -129 c 2
 -185 -169 l 1
 -184 -182 -162 -192 -144 -192 c 2
 162 -192 l 2
 183 -192 198 -168 198 -143 c 2
 198 77 l 2
 198 122 168 165 129 177 c 1
 190 245 l 1
60 -316 m 1
 60 -274 l 1
 6 -274 l 1
 6 -321 l 2
 6 -335 11 -342 20 -342 c 2
 46 -342 l 2
 55 -342 59 -333 60 -316 c 1
EndSplineSet
LCarets2: 1 0
EndChar

StartChar: va.base
Encoding: 252 -1 252
Width: 772
VWidth: 999
Flags: HW
LayerCount: 2
Fore
SplineSet
802 663 m 1
 880 642 941 564 941 464 c 2
 941 149 l 2
 941 70 876 0 790 0 c 2
 673 0 l 2
 615 0 568 33 558 77 c 1
 552 30 514 0 477 0 c 2
 272 0 l 2
 213 0 164 52 164 117 c 2
 164 410 l 1
 355 410 l 2
 410 410 450 358 450 295 c 2
 450 233 l 1
 341 233 l 1
 341 281 l 2
 341 300 330 314 314 314 c 2
 272 314 l 1
 272 149 l 2
 272 124 294 95 326 95 c 2
 441 95 l 2
 477 95 503 120 503 149 c 2
 503 272 l 1
 614 272 l 1
 614 163 l 2
 614 126 639 95 672 95 c 2
 777 95 l 2
 805 95 832 122 832 158 c 2
 832 463 l 2
 832 534 773 586 695 586 c 2
 190 586 l 1
 190 682 l 1
 802 682 l 1
 802 663 l 1
EndSplineSet
EndChar

StartChar: va.imathra
Encoding: 253 -1 253
Width: 906
VWidth: 999
Flags: HW
LayerCount: 2
Fore
SplineSet
819 806 m 2
 882 806 941 741 941 643 c 2
 941 164 l 2
 941 74 884 0 809 0 c 2
 660 0 l 2
 608 0 566 36 558 77 c 1
 553 34 514 -1 463 -1 c 2
 272 -1 l 2
 213 -1 164 52 164 117 c 2
 164 409 l 1
 320 409 l 2
 393 409 441 347 441 281 c 2
 441 233 l 1
 332 233 l 1
 332 267 l 2
 332 294 317 315 292 315 c 2
 272 315 l 1
 272 149 l 2
 272 124 294 96 326 96 c 2
 437 96 l 2
 474 96 503 123 503 164 c 2
 503 273 l 1
 614 273 l 1
 614 164 l 2
 614 127 639 96 672 96 c 2
 777 96 l 2
 806 96 831 129 831 172 c 2
 831 642 l 2
 831 675 815 697 790 697 c 2
 742 697 l 2
 726 697 711 685 711 670 c 2
 711 602 l 2
 711 585 725 575 736 575 c 2
 790 575 l 1
 790 480 l 1
 724 480 l 2
 653 480 601 536 601 597 c 2
 601 677 l 2
 601 751 663 806 736 806 c 2
 819 806 l 2
EndSplineSet
LCarets2: 1 0
EndChar

StartChar: va.sub
Encoding: 254 -1 254
Width: 152
VWidth: 999
Flags: HW
AnchorPoint: "Sub" -321 -49 mark 0
AnchorPoint: "Sub" 311 -363 basemark 0
LayerCount: 2
Fore
SplineSet
181 -96 m 2
 202 -96 215 -78 215 -61 c 2
 215 34 l 1
 312 34 l 1
 312 -70 l 2
 312 -95 298 -117 270 -138 c 1
 298 -150 312 -170 312 -197 c 2
 312 -287 l 2
 312 -333 280 -369 244 -369 c 2
 107 -369 l 2
 73 -369 46 -349 26 -307 c 1
 12 -340 -24 -369 -65 -369 c 2
 -206 -369 l 2
 -259 -369 -303 -326 -303 -279 c 2
 -303 -143 l 2
 -303 -85 -257 -42 -202 -42 c 2
 -56 -42 l 1
 -56 -178 l 1
 -151 -178 l 1
 -151 -124 l 1
 -179 -124 l 1
 -195 -125 -206 -133 -206 -149 c 2
 -206 -260 l 2
 -206 -273 -193 -286 -179 -286 c 2
 -97 -286 l 2
 -58 -286 -29 -258 -29 -224 c 2
 -29 -192 l 1
 80 -192 l 1
 80 -233 l 2
 80 -262 97 -286 120 -286 c 2
 189 -286 l 2
 206 -286 215 -271 215 -259 c 2
 215 -204 l 1
 213 -181 197 -178 190 -178 c 2
 107 -178 l 1
 107 -96 l 1
 181 -96 l 2
EndSplineSet
LCarets2: 1 0
EndChar

StartChar: sha.base
Encoding: 256 -1 256
Width: 584
VWidth: 999
Flags: HW
LayerCount: 2
Fore
SplineSet
614 663 m 1
 690 628 751 548 751 439 c 2
 751 142 l 2
 751 53 686 -3 624 -3 c 2
 282 -3 l 2
 211 -3 150 45 150 106 c 2
 150 244 l 2
 150 302 205 341 273 341 c 2
 438 341 l 2
 477 341 505 380 505 424 c 2
 505 553 l 2
 505 565 499 586 465 586 c 2
 355 586 l 2
 331 586 316 566 316 540 c 2
 316 504 l 2
 316 488 333 477 351 477 c 0
 362 477 370 492 370 504 c 2
 370 545 l 1
 479 545 l 1
 479 477 l 2
 479 423 440 380 391 380 c 2
 302 380 l 2
 249 380 206 426 206 476 c 2
 206 530 l 2
 206 543 215 560 234 581 c 1
 165 581 l 1
 165 676 l 1
 614 676 l 1
 614 663 l 1
584 90 m 2
 616 90 644 119 642 152 c 1
 642 439 l 2
 642 478 633 508 615 527 c 1
 615 403 l 2
 615 325 555 241 452 241 c 2
 317 241 l 2
 284 241 263 218 263 195 c 2
 263 140 l 2
 263 112 285 90 311 90 c 2
 584 90 l 2
EndSplineSet
EndChar

StartChar: sha.imathra
Encoding: 257 -1 257
Width: 697
VWidth: 999
Flags: HW
LayerCount: 2
Fore
SplineSet
585 639 m 1
 666 594 722 523 722 447 c 2
 722 178 l 2
 722 69 649 1 581 1 c 2
 271 1 l 2
 202 1 149 57 149 118 c 2
 149 241 l 2
 149 297 210 341 285 341 c 2
 402 341 l 2
 442 341 476 376 476 418 c 2
 476 546 l 2
 476 560 470 586 443 586 c 2
 408 586 l 1
 427 562 436 547 436 541 c 2
 436 463 l 2
 436 426 407 396 367 396 c 2
 280 396 l 2
 230 396 190 437 190 486 c 2
 190 567 l 2
 190 629 253 682 334 682 c 2
 476 682 l 1
 476 736 l 1
 340 736 l 2
 291 736 258 780 258 817 c 2
 258 886 l 2
 258 923 294 953 340 953 c 2
 497 953 l 2
 550 953 585 919 585 880 c 2
 585 639 l 1
354 837 m 2
 354 823 376 815 395 815 c 2
 476 814 l 1
 476 854 l 2
 476 870 461 882 442 882 c 2
 389 882 l 2
 369 882 354 872 354 863 c 2
 354 837 l 2
321 478 m 1
 332 478 339 495 340 504 c 1
 340 540 l 2
 340 561 334 576 322 583 c 1
 307 580 299 562 299 529 c 2
 299 495 l 1
 301 483 312 475 321 475 c 1
 321 478 l 1
519 91 m 2
 573 91 615 128 614 168 c 1
 614 455 l 2
 614 487 605 510 586 523 c 1
 586 414 l 2
 586 319 513 242 423 242 c 2
 308 242 l 2
 282 242 259 229 259 208 c 2
 259 141 l 2
 259 112 283 91 309 91 c 2
 519 91 l 2
EndSplineSet
LCarets2: 1 0
EndChar

StartChar: sha.sub
Encoding: 258 -1 258
Width: 163
VWidth: 999
Flags: HW
AnchorPoint: "Sub" -49 238 mark 0
AnchorPoint: "Sub" 470 -404 basemark 0
LayerCount: 2
Fore
SplineSet
358 -27 m 2
 415 -27 466 -60 466 -108 c 2
 467 -317 l 2
 467 -368 428 -407 373 -407 c 2
 18 -407 l 1
 18 -410 l 1
 -21 -410 -51 -384 -51 -355 c 2
 -51 -264 l 2
 -51 -234 -23 -204 19 -204 c 2
 187 -204 l 2
 205 -204 222 -189 222 -169 c 2
 222 -109 l 1
 147 -109 l 2
 125 -109 113 -114 113 -123 c 2
 113 -163 l 1
 19 -163 l 1
 19 -95 l 2
 19 -54 61 -29 104 -29 c 2
 221 -29 l 1
 221 145 l 2
 221 194 178 232 127 240 c 1
 159 308 l 1
 234 287 317 233 317 146 c 2
 317 -27 l 1
 358 -27 l 2
336 -326 m 2
 354 -326 371 -307 371 -285 c 2
 371 -141 l 2
 371 -121 356 -109 335 -109 c 2
 316 -109 l 1
 316 -177 l 2
 316 -241 273 -285 226 -285 c 2
 63 -285 l 2
 52 -285 44 -293 44 -306 c 0
 44 -319 48 -326 57 -326 c 2
 336 -326 l 2
EndSplineSet
LCarets2: 1 0
EndChar

StartChar: sha_ra.imathra
Encoding: 259 -1 259
Width: 1486
VWidth: 999
Flags: HW
LayerCount: 2
Fore
SplineSet
868 822 m 2
 968 822 1046 755 1046 672 c 2
 1045 17 l 2
 1045 -114 937 -215 804 -215 c 2
 265 -215 l 1
 265 -218 l 1
 133 -218 33 -118 33 -6 c 2
 33 69 l 1
 144 69 l 1
 144 -6 l 2
 144 -66 204 -122 285 -122 c 2
 805 -122 l 2
 877 -122 936 -64 936 15 c 2
 936 677 l 2
 936 709 903 725 860 725 c 2
 690 725 l 1
 690 643 l 1
 770 600 842 530 842 455 c 2
 842 191 l 2
 842 89 776 5 691 5 c 2
 391 5 l 2
 321 5 267 61 267 122 c 2
 267 246 l 2
 267 301 329 346 404 346 c 2
 519 346 l 2
 560 346 596 380 596 423 c 2
 596 551 l 2
 596 573 581 592 559 592 c 2
 499 592 l 1
 516 573 l 2
 523 566 527 561 527 558 c 2
 527 469 l 2
 527 419 498 386 465 386 c 2
 365 386 l 2
 312 386 268 435 268 491 c 2
 268 572 l 2
 268 633 332 687 410 687 c 2
 596 687 l 1
 596 728 l 1
 459 728 l 2
 407 728 365 771 365 822 c 2
 365 891 l 2
 365 931 408 960 459 960 c 2
 615 960 l 2
 660 960 690 927 690 886 c 2
 690 822 l 1
 868 822 l 2
473 845 m 2
 473 833 486 823 498 823 c 2
 595 823 l 1
 595 864 l 2
 595 873 583 877 558 877 c 2
 504 877 l 2
 490 877 473 869 473 858 c 2
 473 845 l 2
378 503 m 1
 379 492 389 484 403 484 c 2
 417 484 l 2
 426 484 431 488 431 497 c 2
 431 551 l 2
 431 572 427 585 418 592 c 1
 391 582 378 568 378 551 c 2
 378 503 l 1
649 103 m 2
 698 103 730 140 730 177 c 2
 730 451 l 2
 730 488 722 512 704 524 c 1
 704 424 l 2
 704 327 629 252 541 252 c 2
 424 252 l 2
 400 252 378 234 378 206 c 2
 378 151 l 2
 378 124 399 103 424 103 c 2
 649 103 l 2
1123 558 m 2
 1123 632 1182 686 1251 686 c 2
 1518 686 l 1
 1519 510 l 2
 1519 437 1468 386 1416 386 c 2
 1342 386 l 1
 1342 483 l 1
 1383 483 l 2
 1399 483 1410 501 1410 523 c 2
 1410 590 l 1
 1292 590 l 2
 1259 590 1231 560 1231 531 c 2
 1231 340 l 2
 1231 316 1236 297 1246 285 c 1
 1478 45 l 1
 1396 -24 l 1
 1178 204 l 1
 1141 248 1123 288 1123 325 c 2
 1123 558 l 2
EndSplineSet
EndChar

StartChar: ssa.base
Encoding: 261 -1 261
Width: 806
VWidth: 999
Flags: HW
LayerCount: 2
Fore
SplineSet
615 159 m 2
 615 126 645 96 677 96 c 2
 801 96 l 2
 811 96 818 98 825 101 c 1
 718 208 l 1
 779 260 l 1
 861 178 l 1
 861 396 l 2
 861 419 837 441 788 461 c 1
 847 540 l 1
 871 528 969 485 969 402 c 2
 969 115 l 2
 969 102 967 88 963 76 c 1
 1063 -24 l 1
 1003 -75 l 1
 917 11 l 1
 903 2 886 -2 869 -2 c 1
 869 1 l 1
 657 1 l 2
 607 1 566 37 560 83 c 1
 552 36 509 1 466 1 c 2
 269 1 l 2
 212 1 166 47 166 104 c 2
 166 410 l 1
 339 410 l 2
 405 410 466 358 466 282 c 2
 466 234 l 1
 357 234 l 1
 357 274 l 2
 357 300 341 315 317 315 c 2
 275 315 l 1
 275 159 l 2
 275 126 305 96 338 96 c 2
 439 96 l 2
 481 96 507 129 507 159 c 2
 507 273 l 1
 615 273 l 1
 615 159 l 2
615 369 m 1
 506 369 l 1
 506 499 l 1
 615 499 l 1
 615 369 l 1
834 584 m 1
 178 584 l 1
 178 679 l 1
 834 679 l 1
 834 584 l 1
EndSplineSet
EndChar

StartChar: ssa.imathra
Encoding: 262 -1 262
Width: 943
VWidth: 999
Flags: HW
LayerCount: 2
Fore
SplineSet
663 875 m 2
 726 875 764 826 764 775 c 2
 766 615 l 1
 766 542 715 480 651 480 c 2
 479 480 l 1
 479 574 l 1
 623 574 l 2
 641 574 656 594 656 615 c 2
 656 751 l 2
 656 770 647 779 628 779 c 2
 568 779 l 1
 561 778 547 773 547 752 c 2
 547 733 l 1
 548 719 560 706 573 706 c 2
 601 706 l 1
 601 612 l 1
 532 612 l 2
 481 612 437 642 437 684 c 2
 437 780 l 2
 437 834 482 875 541 875 c 2
 663 875 l 2
613 161 m 2
 613 128 643 98 675 98 c 2
 799 98 l 2
 809 98 816 100 823 103 c 1
 716 210 l 1
 777 262 l 1
 859 180 l 1
 859 398 l 2
 859 421 835 442 786 462 c 1
 845 541 l 1
 869 529 967 486 967 403 c 2
 967 117 l 2
 967 104 965 90 961 78 c 1
 1061 -22 l 1
 1001 -74 l 1
 915 12 l 1
 901 3 884 -1 867 -1 c 1
 867 2 l 1
 655 2 l 2
 605 2 564 38 558 84 c 1
 550 37 507 2 464 2 c 2
 267 2 l 2
 210 2 164 48 164 105 c 2
 164 412 l 1
 337 412 l 2
 403 412 464 359 464 283 c 2
 464 235 l 1
 355 235 l 1
 355 276 l 2
 355 302 339 317 315 317 c 2
 273 317 l 1
 273 161 l 2
 273 128 303 98 336 98 c 2
 437 98 l 2
 479 98 505 131 505 161 c 2
 505 275 l 1
 613 275 l 1
 613 161 l 2
EndSplineSet
LCarets2: 1 0
EndChar

StartChar: ssa.sub
Encoding: 263 -1 263
Width: 218
VWidth: 999
Flags: HW
AnchorPoint: "Sub" -470 182 mark 0
AnchorPoint: "Sub" 457 -410 basemark 0
AnchorPoint: "s" -63 9 basechar 0
LayerCount: 2
Fore
SplineSet
376 -273 m 2
 376 -297 392 -309 402 -309 c 2
 442 -309 l 1
 442 -407 l 1
 389 -407 l 2
 326 -407 280 -358 280 -298 c 2
 280 -175 l 2
 280 -154 271 -141 253 -135 c 1
 253 -244 l 2
 253 -311 204 -367 144 -367 c 2
 22 -367 l 2
 -22 -367 -57 -344 -74 -305 c 1
 -85 -341 -121 -367 -162 -367 c 2
 -313 -367 l 1
 -313 -369 l 1
 -378 -369 -428 -315 -428 -252 c 2
 -428 -143 l 2
 -428 -86 -377 -42 -313 -42 c 2
 -168 -42 l 1
 -168 -193 l 1
 -263 -193 l 1
 -263 -124 l 1
 -300 -124 l 2
 -318 -124 -331 -144 -331 -164 c 2
 -331 -237 l 2
 -331 -264 -314 -286 -291 -286 c 2
 -182 -286 l 2
 -138 -286 -113 -246 -113 -209 c 2
 -113 -164 l 1
 -31 -164 l 1
 -31 -224 l 2
 -31 -260 -5 -286 29 -286 c 2
 118 -286 l 2
 145 -286 159 -264 159 -246 c 2
 159 -19 l 2
 159 33 96 84 15 95 c 1
 63 177 l 1
 171 141 254 68 254 -5 c 2
 254 -40 l 1
 306 -52 376 -91 376 -150 c 2
 376 -273 l 2
EndSplineSet
LCarets2: 1 0
EndChar

StartChar: sa.base
Encoding: 265 -1 265
Width: 647
VWidth: 999
Flags: HW
LayerCount: 2
Fore
SplineSet
677 588 m 1
 158 588 l 1
 158 683 l 1
 677 683 l 1
 677 588 l 1
446 425 m 1
 337 425 l 1
 337 533 l 1
 446 533 l 1
 446 425 l 1
721 466 m 2
 777 466 815 420 815 357 c 2
 815 82 l 2
 815 39 784 1 738 1 c 2
 560 1 l 2
 513 1 474 38 474 77 c 2
 474 212 l 2
 474 248 454 259 440 259 c 2
 303 259 l 2
 285 259 258 243 258 200 c 2
 258 1 l 1
 149 1 l 1
 149 233 l 2
 149 310 201 370 270 370 c 2
 496 370 l 2
 546 370 584 321 584 260 c 2
 584 124 l 2
 584 107 604 97 616 97 c 2
 685 97 l 2
 699 97 706 110 706 134 c 2
 706 329 l 2
 706 347 697 357 678 357 c 2
 653 357 l 1
 653 466 l 1
 721 466 l 2
EndSplineSet
EndChar

StartChar: sa.imathra
Encoding: 266 -1 266
Width: 787
VWidth: 999
Flags: HW
LayerCount: 2
Fore
SplineSet
500 889 m 2
 558 889 596 837 596 780 c 2
 597 588 l 2
 597 522 556 465 497 465 c 2
 296 465 l 1
 296 560 l 1
 460 560 l 2
 477 560 487 582 487 602 c 2
 487 737 l 2
 487 765 481 779 468 779 c 2
 413 779 l 2
 390 779 379 775 379 766 c 2
 379 738 l 2
 379 728 391 713 413 713 c 2
 460 713 l 1
 460 616 l 1
 378 616 l 2
 316 616 268 660 268 706 c 2
 268 788 l 2
 268 855 326 889 373 889 c 2
 500 889 l 2
719 453 m 2
 776 453 814 410 814 357 c 2
 814 83 l 2
 814 36 781 2 741 2 c 2
 569 2 l 2
 514 2 473 38 473 78 c 2
 473 213 l 2
 473 242 456 260 428 260 c 2
 306 260 l 2
 275 260 257 241 257 214 c 2
 257 1 l 1
 148 1 l 1
 148 234 l 2
 148 311 201 370 270 370 c 2
 498 370 l 2
 540 370 583 330 583 262 c 2
 583 125 l 1
 584 108 604 98 617 98 c 2
 686 98 l 2
 697 98 705 115 705 134 c 2
 705 330 l 2
 705 348 696 357 677 357 c 2
 651 357 l 1
 651 453 l 1
 719 453 l 2
EndSplineSet
LCarets2: 1 0
EndChar

StartChar: sa.sub
Encoding: 267 -1 267
Width: 145
VWidth: 999
Flags: HW
AnchorPoint: "Sub" -289 80 mark 0
AnchorPoint: "Sub" 297 -392 basemark 0
LayerCount: 2
Fore
SplineSet
198 116 m 1
 247 93 301 48 301 -20 c 1
 298 -279 l 1
 298 -347 239 -410 153 -410 c 0
 116 -410 82 -397 61 -388 c 1
 32 -373 8 -354 -10 -328 c 1
 -29 -292 -57 -273 -94 -273 c 2
 -143 -273 l 2
 -170 -273 -189 -296 -189 -320 c 2
 -189 -410 l 1
 -286 -410 l 1
 -286 -301 l 2
 -286 -230 -242 -178 -192 -178 c 2
 -54 -178 l 2
 -2 -178 45 -227 75 -279 c 128
 93 -311 119 -327 150 -327 c 0
 179 -327 206 -295 206 -253 c 2
 206 -33 l 2
 206 -11 190 26 151 40 c 1
 198 116 l 1
EndSplineSet
LCarets2: 1 0
EndChar

StartChar: ha.base
Encoding: 269 -1 269
Width: 843
VWidth: 999
Flags: HW
LayerCount: 2
Fore
SplineSet
880 465 m 2
 957 465 1003 399 1003 329 c 2
 1004 132 l 2
 1004 61 952 0 890 0 c 2
 712 0 l 2
 659 0 610 28 581 77 c 1
 565 33 526 1 472 1 c 2
 294 1 l 2
 226 1 171 55 171 123 c 2
 171 315 l 2
 171 401 229 465 294 465 c 2
 458 465 l 2
 480 465 503 452 525 425 c 1
 525 505 l 2
 525 556 487 587 443 587 c 2
 170 587 l 1
 170 683 l 1
 870 683 l 1
 870 587 l 1
 595 587 l 1
 622 565 635 541 635 514 c 2
 635 425 l 1
 658 452 676 465 689 465 c 2
 880 465 l 2
834 97 m 2
 865 97 894 125 893 161 c 1
 893 303 l 2
 893 341 867 371 834 371 c 2
 712 371 l 2
 668 371 634 339 634 303 c 2
 634 165 l 2
 634 127 665 97 702 97 c 2
 834 97 l 2
456 97 m 2
 497 97 524 126 524 160 c 2
 524 302 l 2
 524 343 495 370 456 370 c 2
 347 370 l 2
 307 370 280 342 280 310 c 2
 280 165 l 2
 280 123 311 97 341 97 c 2
 456 97 l 2
EndSplineSet
EndChar

StartChar: ha.imathra
Encoding: 270 -1 270
Width: 970
VWidth: 999
Flags: HW
LayerCount: 2
Fore
SplineSet
482 956 m 2
 542 956 590 914 590 860 c 2
 591 664 l 2
 591 595 547 533 487 533 c 2
 264 533 l 1
 264 628 l 1
 446 628 l 2
 466 628 482 648 482 670 c 2
 482 819 l 2
 482 847 462 860 446 860 c 2
 378 860 l 2
 360 860 345 850 345 843 c 2
 345 820 l 1
 346 809 356 793 373 793 c 2
 427 793 l 1
 427 684 l 1
 322 684 l 2
 279 684 236 730 236 792 c 2
 236 854 l 2
 236 914 287 956 344 956 c 2
 482 956 l 2
882 491 m 2
 952 491 999 431 999 368 c 2
 1000 122 l 2
 1000 55 955 -1 897 -1 c 2
 686 -1 l 2
 637 -1 599 29 592 67 c 1
 578 28 538 -1 483 -1 c 2
 306 -1 l 2
 236 -1 182 56 182 122 c 2
 182 368 l 2
 182 435 234 491 306 491 c 2
 473 491 l 2
 520 491 569 467 590 418 c 1
 613 461 659 491 704 491 c 2
 882 491 l 2
835 94 m 2
 864 94 889 120 890 157 c 1
 890 340 l 2
 890 373 861 394 828 394 c 2
 718 394 l 2
 687 394 662 376 644 339 c 1
 644 147 l 1
 654 116 681 94 718 94 c 2
 835 94 l 2
458 94 m 2
 497 94 523 129 534 162 c 1
 534 325 l 1
 527 364 499 394 457 394 c 2
 348 394 l 2
 314 394 288 363 288 334 c 2
 288 157 l 2
 288 122 315 94 343 94 c 2
 458 94 l 2
EndSplineSet
LCarets2: 1 0
EndChar

StartChar: ha.sub
Encoding: 271 -1 271
Width: 155
VWidth: 999
Flags: HW
AnchorPoint: "Sub" -318 -69 mark 0
AnchorPoint: "Sub" 319 -350 basemark 0
LayerCount: 2
Fore
SplineSet
242 -69 m 2
 285 -69 317 -103 317 -150 c 2
 317 -279 l 2
 317 -322 287 -355 250 -355 c 2
 64 -355 l 2
 28 -355 10 -325 4 -302 c 1
 -3 -329 -29 -355 -73 -355 c 2
 -250 -355 l 2
 -283 -355 -310 -318 -310 -279 c 2
 -310 -150 l 2
 -310 -108 -282 -70 -242 -70 c 2
 -73 -70 l 2
 -34 -70 -2 -91 4 -129 c 1
 24 -89 51 -69 86 -69 c 2
 242 -69 l 2
59 -238 m 2
 59 -260 78 -273 91 -273 c 2
 201 -273 l 2
 215 -273 221 -260 221 -233 c 2
 221 -185 l 2
 221 -162 214 -150 200 -150 c 2
 91 -150 l 2
 76 -150 59 -164 59 -185 c 2
 59 -238 l 2
-213 -253 m 1
 -211 -267 -194 -273 -182 -273 c 2
 -86 -273 l 2
 -64 -273 -52 -264 -51 -247 c 1
 -51 -185 l 2
 -51 -160 -76 -151 -90 -151 c 2
 -182 -151 l 2
 -197 -151 -213 -164 -213 -185 c 2
 -213 -253 l 1
EndSplineSet
LCarets2: 1 0
EndChar

StartChar: avagraha
Encoding: 272 3261 272
Width: 584
VWidth: 999
Flags: HW
LayerCount: 2
Fore
SplineSet
416 447 m 2
 517 447 612 357 613 227 c 1
 613 108 534 1 430 1 c 2
 299 1 l 2
 190 1 93 85 93 187 c 1
 210 187 l 1
 210 148 253 105 307 105 c 2
 422 105 l 2
 470 105 502 156 502 220 c 0
 502 293 462 342 416 342 c 2
 280 342 l 2
 185 342 108 417 108 506 c 0
 108 612 203 683 298 683 c 2
 540 683 l 1
 540 582 l 1
 298 582 l 2
 254 582 225 547 225 506 c 0
 225 475 247 447 280 447 c 2
 416 447 l 2
EndSplineSet
EndChar

